<svg width="250" height="456" viewBox="0 0 250 456" fill="none" xmlns="http://www.w3.org/2000/svg">
<path d="M100.009 450.193H156.907V453.683C156.907 454.635 156.132 455.405 155.175 455.405H101.741C100.784 455.405 100.009 454.635 100.009 453.683V450.193Z" fill="#FFDC13"/>
<mask id="mask0_1572_416" style="mask-type:alpha" maskUnits="userSpaceOnUse" x="100" y="404" width="57" height="47">
<path d="M100.008 450.193L105.248 412.961L126.959 404.397C124.839 414.078 128.083 434.183 138.564 437.162C152.682 441.174 156.782 447.091 156.906 450.193H100.008Z" fill="#D6E2FB"/>
<path d="M100.008 450.193L105.248 412.961L126.959 404.397C124.839 414.078 128.083 434.183 138.564 437.162C152.682 441.174 156.782 447.091 156.906 450.193H100.008Z" fill="url(#paint0_linear_1572_416)"/>
</mask>
<g mask="url(#mask0_1572_416)">
<path d="M141.934 435.3H157.656V450.193H138.939L141.934 435.3Z" fill="#FEF9DE"/>
</g>
<path fill-rule="evenodd" clip-rule="evenodd" d="M113.11 437.301C115.254 437.301 116.993 435.572 116.993 433.438C116.993 431.306 115.254 429.576 113.11 429.576C110.965 429.576 109.227 431.306 109.227 433.438C109.227 435.572 110.965 437.301 113.11 437.301ZM113.11 439.024C116.211 439.024 118.725 436.523 118.725 433.438C118.725 430.354 116.211 427.854 113.11 427.854C110.009 427.854 107.495 430.354 107.495 433.438C107.495 436.523 110.009 439.024 113.11 439.024Z" fill="#FEF9DE"/>
<path d="M168.138 450.193H225.036V453.683C225.036 454.635 224.261 455.405 223.304 455.405H169.87C168.913 455.405 168.138 454.635 168.138 453.683V450.193Z" fill="#FFDC13"/>
<mask id="mask1_1572_416" style="mask-type:alpha" maskUnits="userSpaceOnUse" x="163" y="403" width="63" height="48">
<path d="M163.645 403.652L168.137 450.193H225.036C223.538 443.119 219.795 443.491 202.201 435.672C188.126 429.417 184.607 411.719 184.607 403.652H163.645Z" fill="#D6E2FB"/>
<path d="M163.645 403.652L168.137 450.193H225.036C223.538 443.119 219.795 443.491 202.201 435.672C188.126 429.417 184.607 411.719 184.607 403.652H163.645Z" fill="url(#paint1_linear_1572_416)"/>
</mask>
<g mask="url(#mask1_1572_416)">
<path d="M210.062 435.3H225.784V450.193H207.067L210.062 435.3Z" fill="#FEF9DE"/>
</g>
<path fill-rule="evenodd" clip-rule="evenodd" d="M178.245 437.301C180.389 437.301 182.127 435.572 182.127 433.438C182.127 431.306 180.389 429.576 178.245 429.576C176.1 429.576 174.361 431.306 174.361 433.438C174.361 435.572 176.1 437.301 178.245 437.301ZM178.245 439.024C181.345 439.024 183.859 436.523 183.859 433.438C183.859 430.354 181.345 427.854 178.245 427.854C175.143 427.854 172.629 430.354 172.629 433.438C172.629 436.523 175.143 439.024 178.245 439.024Z" fill="#FEF9DE"/>
<path d="M100.009 450.193L105.249 412.96L126.96 404.396C124.84 414.077 128.084 434.183 138.565 437.161C152.683 441.173 156.783 447.09 156.907 450.193H100.009Z" fill="#FEE883"/>
<path d="M100.009 450.193L105.249 412.96L126.96 404.396C124.84 414.077 128.084 434.183 138.565 437.161C152.683 441.173 156.783 447.09 156.907 450.193H100.009Z" fill="url(#paint2_linear_1572_416)"/>
<path d="M163.645 403.652L168.137 450.193H225.036C223.538 443.119 219.795 443.491 202.201 435.672C188.126 429.417 184.607 411.719 184.607 403.652H163.645Z" fill="#FEE883"/>
<path d="M163.645 403.652L168.137 450.193H225.036C223.538 443.119 219.795 443.491 202.201 435.672C188.126 429.417 184.607 411.719 184.607 403.652H163.645Z" fill="url(#paint3_linear_1572_416)"/>
<path d="M97.1849 414.06L121.345 149.354L128.083 146.375L153.538 258.073L133.516 414.434C133.406 415.294 132.67 415.939 131.798 415.939H98.9099C97.8915 415.939 97.0931 415.069 97.1849 414.06Z" fill="#EBC025"/>
<path d="M97.1849 414.06L121.345 149.354L128.083 146.375L153.538 258.073L133.516 414.434C133.406 415.294 132.67 415.939 131.798 415.939H98.9099C97.8915 415.939 97.0931 415.069 97.1849 414.06Z" fill="url(#paint4_linear_1572_416)"/>
<path fill-rule="evenodd" clip-rule="evenodd" d="M135.197 403.397H97.7627V401.674H135.197V403.397Z" fill="#FEF9DE"/>
<path d="M155.959 414.069L121.345 153.077L156.157 137.812L169.259 178.767L193.767 413.666C193.873 414.682 193.072 415.567 192.044 415.567H157.676C156.807 415.567 156.072 414.926 155.959 414.069Z" fill="#FFDC13"/>
<path fill-rule="evenodd" clip-rule="evenodd" d="M192.843 403.397H153.912V401.674H192.843V403.397Z" fill="#FEF9DE"/>
<path d="M117.228 118.824H125.463L133.698 124.78V150.843H118.959C118.003 150.843 117.228 150.073 117.228 149.121V118.824Z" fill="url(#paint5_linear_1572_416)"/>
<path d="M118.725 150.843H134.447V154.567H120.456C119.5 154.567 118.725 153.795 118.725 152.844V150.843Z" fill="#F7ECB9"/>
<path d="M113.793 115.1H117.227V118.079V149.121C117.227 150.072 118.002 150.843 118.959 150.843H135.57L170.008 135.951C166.889 118.824 160.425 83.5267 159.527 79.3572C158.404 74.1446 153.163 55.1557 133.698 58.5066C118.634 61.0999 113.098 95.0302 112.075 113.308C112.02 114.286 112.808 115.1 113.793 115.1Z" fill="#F9FAFB"/>
<path d="M113.793 115.1H117.227V118.079V149.121C117.227 150.072 118.002 150.843 118.959 150.843H135.57L170.008 135.951C166.889 118.824 160.425 83.5267 159.527 79.3572C158.404 74.1446 153.163 55.1557 133.698 58.5066C118.634 61.0999 113.098 95.0302 112.075 113.308C112.02 114.286 112.808 115.1 113.793 115.1Z" fill="url(#paint6_linear_1572_416)"/>
<path d="M138.939 115.1H133.698L130.703 122.547L138.939 129.993V115.1Z" fill="url(#paint7_linear_1572_416)"/>
<path d="M70.5 195C100 179.5 116.5 182.333 124 184C133.5 186.834 143.3 191.5 120.5 189.5C92 187 76 201.673 54 208.5C25 217.5 7.16667 208.834 -2 203.5V193.5C15 213 51.5962 204.932 70.5 195Z" fill="url(#paint8_linear_1572_416)"/>
<path fill-rule="evenodd" clip-rule="evenodd" d="M139.056 88.293V115.1H137.324V88.293H139.056Z" fill="#FEF9DE"/>
<path d="M126.117 199.281C124.12 199.812 120.9 194.284 118.925 186.933C116.95 179.583 116.969 173.194 118.966 172.663L138.133 167.569L145.285 194.186L126.117 199.281Z" fill="#FEE883"/>
<path d="M126.117 199.281C124.12 199.812 120.9 194.284 118.925 186.933C116.95 179.583 116.969 173.194 118.966 172.663L138.133 167.569L145.285 194.186L126.117 199.281Z" fill="url(#paint9_linear_1572_416)"/>
<path d="M165.181 229.303C157.991 231.214 146.061 210.056 138.536 182.045C131.01 154.034 130.739 129.777 137.929 127.866L165.414 120.561L192.666 221.998L165.181 229.303Z" fill="#FEE883"/>
<path d="M165.181 229.303C157.991 231.214 146.061 210.056 138.536 182.045C131.01 154.034 130.739 129.777 137.929 127.866L165.414 120.561L192.666 221.998L165.181 229.303Z" fill="url(#paint10_linear_1572_416)"/>
<path d="M165.181 229.303C157.991 231.214 146.061 210.056 138.536 182.045C131.01 154.034 130.739 129.777 137.929 127.866L165.414 120.561L192.666 221.998L165.181 229.303Z" fill="url(#paint11_linear_1572_416)"/>
<path d="M196.493 227.594C188.504 229.717 175.105 205.671 166.565 173.886C158.026 142.1 157.58 114.612 165.569 112.488L171.356 110.951L202.279 226.056L196.493 227.594Z" fill="#FEE883"/>
<path d="M196.493 227.594C188.504 229.717 175.105 205.671 166.565 173.886C158.026 142.1 157.58 114.612 165.569 112.488L171.356 110.951L202.279 226.056L196.493 227.594Z" fill="url(#paint12_linear_1572_416)"/>
<path d="M172.352 172.348C180.892 204.133 194.291 228.179 202.28 226.055C210.269 223.932 209.823 196.444 201.284 164.658C192.744 132.873 179.346 108.826 171.356 110.95C163.367 113.073 163.813 140.562 172.352 172.348Z" fill="#FEE883"/>
<path d="M204.543 220.058C197.353 221.969 185.25 200.167 177.512 171.362C169.773 142.556 169.328 117.655 176.518 115.744L216.299 105.171L244.324 209.485L204.543 220.058Z" fill="#FEE883"/>
<path d="M204.543 220.058C197.353 221.969 185.25 200.167 177.512 171.362C169.773 142.556 169.328 117.655 176.518 115.744L216.299 105.171L244.324 209.485L204.543 220.058Z" fill="url(#paint13_linear_1572_416)"/>
<path d="M204.543 220.058C197.353 221.969 185.25 200.167 177.512 171.362C169.773 142.556 169.328 117.655 176.518 115.744L216.299 105.171L244.324 209.485L204.543 220.058Z" fill="url(#paint14_linear_1572_416)"/>
<path d="M220.575 167.238L197.068 173.486C193.273 174.495 191.019 178.372 192.033 182.147C193.047 185.922 196.945 188.164 200.74 187.155L224.247 180.907L220.575 167.238Z" fill="url(#paint15_linear_1572_416)"/>
<path d="M217.292 160.789C225.031 189.594 237.133 211.397 244.323 209.486C251.514 207.575 251.069 182.674 243.33 153.868C235.591 125.063 223.489 103.26 216.299 105.171C209.108 107.083 209.553 131.984 217.292 160.789Z" fill="#FEE883"/>
<path d="M217.292 160.789C225.031 189.594 237.133 211.397 244.323 209.486C251.514 207.575 251.069 182.674 243.33 153.868C235.591 125.063 223.489 103.26 216.299 105.171C209.108 107.083 209.553 131.984 217.292 160.789Z" fill="url(#paint16_linear_1572_416)"/>
<path d="M234.194 165.07C235.417 169.641 234.951 173.731 233.152 174.208C231.355 174.684 228.906 171.364 227.683 166.793C226.46 162.223 226.926 158.132 228.725 157.657C230.522 157.181 232.971 160.5 234.194 165.07Z" fill="#FEF9DE"/>
<path d="M239.841 154.329C241.064 158.899 240.597 162.99 238.799 163.466C237.001 163.942 234.552 160.623 233.329 156.053C232.106 151.482 232.573 147.391 234.371 146.915C236.169 146.439 238.618 149.758 239.841 154.329Z" fill="#FEF9DE"/>
<path d="M156.158 8.98726C162.148 13.1572 155.909 17.9231 152.041 19.7847L136.319 40.2624C132.076 39.1455 122.918 35.1988 120.222 28.3481C116.854 19.7845 125.089 23.8801 124.715 14.1997C124.34 4.51918 132.576 5.63629 135.57 4.89161C138.565 4.14701 140.062 -0.320891 145.678 0.423702C151.292 1.16838 148.672 3.77467 156.158 8.98726Z" fill="#301B0B"/>
<path d="M132.574 60.7408L135.195 32.8164L146.425 36.5396L146.051 60.7408H132.574Z" fill="#FFDFC9"/>
<path d="M132.574 60.7408L135.195 32.8164L146.425 36.5396L146.051 60.7408H132.574Z" fill="url(#paint17_linear_1572_416)"/>
<path d="M149.794 43.2415C156.682 41.4543 153.912 23.8806 151.667 15.317C146.426 14.5724 142.307 28.7208 139.687 25.3699C137.067 22.0189 132.201 22.3912 131.827 26.4868C131.452 30.5824 141.185 45.4754 149.794 43.2415Z" fill="#FFDFC9"/>
<path d="M148.944 26.7381C148.862 27.2258 149.192 27.6881 149.682 27.7706C150.173 27.853 150.637 27.5245 150.72 27.0367C150.803 26.5491 150.473 26.0868 149.982 26.0044C149.492 25.9219 149.027 26.2504 148.944 26.7381Z" fill="#281B11"/>
<path fill-rule="evenodd" clip-rule="evenodd" d="M150.522 23.5614C151.148 23.6747 151.613 24.024 152.032 24.4763C152.194 24.6513 152.468 24.6625 152.643 24.5014C152.819 24.3402 152.83 24.0678 152.668 23.8929C152.185 23.3703 151.562 22.8742 150.677 22.714C149.796 22.5547 148.729 22.741 147.379 23.4227C147.166 23.5305 147.081 23.7896 147.19 24.0018C147.298 24.2138 147.559 24.2984 147.772 24.1907C149.021 23.5595 149.89 23.4473 150.522 23.5614Z" fill="#281B11"/>
<path fill-rule="evenodd" clip-rule="evenodd" d="M153.377 26.2743C153.141 26.3096 152.978 26.5288 153.013 26.764L153.894 32.6237C153.911 32.7283 153.825 32.8208 153.719 32.8144L151.172 32.6612C150.933 32.6469 150.728 32.8277 150.714 33.0651C150.699 33.3025 150.881 33.5066 151.12 33.521L153.667 33.6742C154.323 33.7136 154.849 33.1424 154.751 32.4963L153.869 26.6365C153.835 26.4013 153.614 26.2391 153.377 26.2743Z" fill="#281B11"/>
<path fill-rule="evenodd" clip-rule="evenodd" d="M150.266 36.1373C149.73 36.0106 149.175 35.7844 148.332 35.4167C148.113 35.3212 147.857 35.4204 147.761 35.6382C147.665 35.8561 147.765 36.1101 147.984 36.2055C148.82 36.5701 149.443 36.8281 150.066 36.9753C150.701 37.1253 151.319 37.1566 152.152 37.1003C152.391 37.0842 152.571 36.8788 152.555 36.6414C152.539 36.4041 152.332 36.2249 152.094 36.241C151.316 36.2935 150.791 36.2612 150.266 36.1373Z" fill="#281B11"/>
<path fill-rule="evenodd" clip-rule="evenodd" d="M134.67 28.5025C134.423 27.9192 134.463 27.341 134.614 26.7448C134.673 26.5141 134.533 26.28 134.301 26.2217C134.068 26.1635 133.834 26.3032 133.775 26.5338C133.6 27.2224 133.523 28.0123 133.873 28.8371C134.221 29.6577 134.961 30.4435 136.273 31.1942C136.481 31.3128 136.745 31.2418 136.865 31.0356C136.984 30.8294 136.912 30.5662 136.705 30.4476C135.49 29.7525 134.92 29.0902 134.67 28.5025Z" fill="#281B11"/>
<path d="M116.479 115.1H133.699V121.058C135.944 124.16 141.56 132.227 146.051 139.674C151.666 148.982 168.511 177.651 178.993 184.725C193.966 194.831 192.843 207.437 186.854 205.575C180.864 203.714 152.415 173.556 134.821 152.705C120.747 136.024 116.729 120.685 116.479 115.1Z" fill="#FFDFC9"/>
<path d="M116.479 115.1H133.699V121.058C135.944 124.16 141.56 132.227 146.051 139.674C151.666 148.982 168.511 177.651 178.993 184.725C193.966 194.831 192.843 207.437 186.854 205.575C180.864 203.714 152.415 173.556 134.821 152.705C120.747 136.024 116.729 120.685 116.479 115.1Z" fill="url(#paint18_linear_1572_416)"/>
<defs>
<linearGradient id="paint0_linear_1572_416" x1="141.618" y1="396.578" x2="141.618" y2="438.651" gradientUnits="userSpaceOnUse">
<stop stop-color="#C8D8FA"/>
<stop offset="1" stop-color="#C8D8FA" stop-opacity="0"/>
</linearGradient>
<linearGradient id="paint1_linear_1572_416" x1="208.54" y1="395.706" x2="208.54" y2="438.463" gradientUnits="userSpaceOnUse">
<stop stop-color="#C8D8FA"/>
<stop offset="1" stop-color="#C8D8FA" stop-opacity="0"/>
</linearGradient>
<linearGradient id="paint2_linear_1572_416" x1="141.619" y1="396.578" x2="141.619" y2="438.65" gradientUnits="userSpaceOnUse">
<stop stop-color="#FAEFC8"/>
<stop offset="1" stop-color="#FAF8C8" stop-opacity="0"/>
</linearGradient>
<linearGradient id="paint3_linear_1572_416" x1="208.54" y1="395.706" x2="208.54" y2="438.463" gradientUnits="userSpaceOnUse">
<stop stop-color="#FAF1C8"/>
<stop offset="1" stop-color="#FAF3C8" stop-opacity="0"/>
</linearGradient>
<linearGradient id="paint4_linear_1572_416" x1="-19.7215" y1="102.248" x2="186.68" y2="368.303" gradientUnits="userSpaceOnUse">
<stop stop-color="#301B0B"/>
<stop offset="1" stop-color="#301B0B" stop-opacity="0"/>
</linearGradient>
<linearGradient id="paint5_linear_1572_416" x1="129.273" y1="102.013" x2="129.273" y2="138.036" gradientUnits="userSpaceOnUse">
<stop stop-color="#FAF0C8"/>
<stop offset="1" stop-color="#FAEEC8" stop-opacity="0"/>
</linearGradient>
<linearGradient id="paint6_linear_1572_416" x1="154.418" y1="-38.6704" x2="154.418" y2="104.675" gradientUnits="userSpaceOnUse">
<stop stop-color="#FAF8C8"/>
<stop offset="1" stop-color="#FAF3C8" stop-opacity="0"/>
</linearGradient>
<linearGradient id="paint7_linear_1572_416" x1="136.726" y1="107.281" x2="136.726" y2="124.036" gradientUnits="userSpaceOnUse">
<stop stop-color="#FAEEC8"/>
<stop offset="1" stop-color="#FAE4C8" stop-opacity="0"/>
</linearGradient>
<linearGradient id="paint8_linear_1572_416" x1="135" y1="188.5" x2="-1.64287e-05" y2="200.5" gradientUnits="userSpaceOnUse">
<stop stop-color="#301B0B"/>
<stop offset="1" stop-color="#301B0B" stop-opacity="0"/>
</linearGradient>
<linearGradient id="paint9_linear_1572_416" x1="164.098" y1="235.371" x2="149.077" y2="178.857" gradientUnits="userSpaceOnUse">
<stop stop-color="#EBC725"/>
<stop offset="1" stop-color="#EBCD25" stop-opacity="0"/>
</linearGradient>
<linearGradient id="paint10_linear_1572_416" x1="98.529" y1="268.214" x2="116.196" y2="148.595" gradientUnits="userSpaceOnUse">
<stop stop-color="#FBFBF9"/>
<stop offset="1" stop-color="#FBFAF9" stop-opacity="0"/>
</linearGradient>
<linearGradient id="paint11_linear_1572_416" x1="298.633" y1="250.1" x2="153.569" y2="220.151" gradientUnits="userSpaceOnUse">
<stop stop-color="#EBD125"/>
<stop offset="1" stop-color="#EBD125" stop-opacity="0"/>
</linearGradient>
<linearGradient id="paint12_linear_1572_416" x1="153.483" y1="84.8077" x2="211.652" y2="303.664" gradientUnits="userSpaceOnUse">
<stop stop-color="#F9FAFB"/>
<stop offset="1" stop-color="#F9FAFB" stop-opacity="0"/>
</linearGradient>
<linearGradient id="paint13_linear_1572_416" x1="184.375" y1="91.627" x2="212.024" y2="195.656" gradientUnits="userSpaceOnUse">
<stop stop-color="#F9FAFB"/>
<stop offset="1" stop-color="#F9FAFB" stop-opacity="0"/>
</linearGradient>
<linearGradient id="paint14_linear_1572_416" x1="236.035" y1="298.339" x2="198.245" y2="156.154" gradientUnits="userSpaceOnUse">
<stop stop-color="#EBBD25"/>
<stop offset="1" stop-color="#EBD125" stop-opacity="0"/>
</linearGradient>
<linearGradient id="paint15_linear_1572_416" x1="201.505" y1="156.829" x2="212.603" y2="198.585" gradientUnits="userSpaceOnUse">
<stop stop-color="white"/>
<stop offset="1" stop-color="white" stop-opacity="0"/>
</linearGradient>
<linearGradient id="paint16_linear_1572_416" x1="178.497" y1="-35.5304" x2="227.96" y2="150.57" gradientUnits="userSpaceOnUse">
<stop stop-color="#EBC725"/>
<stop offset="1" stop-color="#EBE825" stop-opacity="0"/>
</linearGradient>
<linearGradient id="paint17_linear_1572_416" x1="160.65" y1="25.7422" x2="139.722" y2="54.8864" gradientUnits="userSpaceOnUse">
<stop stop-color="#7F4D0F"/>
<stop offset="1" stop-color="#7F270F" stop-opacity="0"/>
</linearGradient>
<linearGradient id="paint18_linear_1572_416" x1="154.01" y1="12.7107" x2="170.581" y2="155.332" gradientUnits="userSpaceOnUse">
<stop stop-color="#7F270F"/>
<stop offset="1" stop-color="#7F270F" stop-opacity="0"/>
</linearGradient>
</defs>
</svg>
