<svg width="296" height="469" viewBox="0 0 296 469" fill="none" xmlns="http://www.w3.org/2000/svg">
<path d="M125.094 468.842L129.24 431.608H111.903C110.019 439.841 104.515 451.616 91.093 457.214C78.1039 460.659 75.8498 466.435 76.101 468.842H125.094Z" fill="#FBF4D6"/>
<path d="M125.094 468.842L129.24 431.608H111.903C110.019 439.841 104.515 451.616 91.093 457.214C78.1039 460.659 75.8498 466.435 76.101 468.842H125.094Z" fill="url(#paint0_linear_1572_414)"/>
<path d="M124.25 468.841H77.0538C76.1048 468.841 75.335 468.075 75.335 467.131C75.335 466.243 76.0191 465.502 76.9101 465.427L105.323 463.049L123.151 459.04C126.271 458.338 129.239 460.698 129.239 463.879C129.239 466.62 127.006 468.841 124.25 468.841Z" fill="#FFD429"/>
<path fill-rule="evenodd" clip-rule="evenodd" d="M127.747 445.013H106.093C109.215 440.452 110.987 435.612 111.904 431.608H129.239L127.747 445.013Z" fill="#FAEEC8"/>
<path d="M192.127 468.841H141.967C141.967 459.82 160.173 457.94 163.518 449.671C166.192 443.056 163.889 433.384 162.402 429.375H180.609L192.127 468.841Z" fill="#FBF4D6"/>
<path d="M192.127 468.841H141.967C141.967 459.82 160.173 457.94 163.518 449.671C166.192 443.056 163.889 433.384 162.402 429.375H180.609L192.127 468.841Z" fill="url(#paint1_linear_1572_414)"/>
<path d="M190.133 468.841H142.937C141.988 468.841 141.218 468.075 141.218 467.131C141.218 466.243 141.902 465.502 142.793 465.427L171.206 463.049L189.033 459.04C192.153 458.338 195.122 460.698 195.122 463.879C195.122 466.62 192.889 468.841 190.133 468.841Z" fill="#FFD429"/>
<path fill-rule="evenodd" clip-rule="evenodd" d="M185.173 445.013H164.616C165.145 439.933 163.983 434.326 162.907 430.864H181.044L185.173 445.013Z" fill="#FAEEC8"/>
<path d="M187.035 433.902H148.221C147.41 433.902 146.707 433.342 146.531 432.554L137.475 392.202L152.448 244.76L188.736 431.853C188.942 432.915 188.123 433.902 187.035 433.902Z" fill="#FFCE1B"/>
<path d="M187.035 433.902H148.221C147.41 433.902 146.707 433.342 146.531 432.554L137.475 392.202L152.448 244.76L188.736 431.853C188.942 432.915 188.123 433.902 187.035 433.902Z" fill="url(#paint2_linear_1572_414)"/>
<path fill-rule="evenodd" clip-rule="evenodd" d="M187.636 424.278H144.213V422.556H187.636V424.278Z" fill="#FAEEC8"/>
<path d="M89.377 432.752L109.773 230.985C116.886 183.451 135.229 99.6278 151.699 144.605C168.07 189.312 147.58 354.705 135.08 433.234C134.946 434.07 134.228 434.646 133.376 434.646H91.1002C90.0749 434.646 89.2748 433.766 89.377 432.752Z" fill="#FFCE1B"/>
<path fill-rule="evenodd" clip-rule="evenodd" d="M147.698 186.99C147.698 227.56 133.714 361.608 126.73 423.513L125.009 423.321C132 361.365 145.966 227.439 145.966 186.99H147.698Z" fill="#FAEEC8"/>
<path fill-rule="evenodd" clip-rule="evenodd" d="M136.726 424.278H90.3086V422.556H136.726V424.278Z" fill="#FAEEC8"/>
<path d="M107.153 124.15C110.149 112.533 116.886 88.2825 119.881 77.6094L121.004 131.969C115.139 134.203 104.159 135.767 107.153 124.15Z" fill="#F9FAFB"/>
<path d="M107.153 124.15C110.149 112.533 116.886 88.2825 119.881 77.6094L121.004 131.969C115.139 134.203 104.159 135.767 107.153 124.15Z" fill="url(#paint3_linear_1572_414)"/>
<path fill-rule="evenodd" clip-rule="evenodd" d="M120.688 116.69L120.822 123.225C120.057 123.907 119.046 124.322 117.936 124.322C115.545 124.322 113.607 122.393 113.607 120.015C113.607 117.637 115.545 115.709 117.936 115.709C118.981 115.709 119.94 116.076 120.688 116.69ZM120.439 104.627L120.54 109.531C120.267 109.627 119.974 109.68 119.668 109.68C118.233 109.68 117.07 108.523 117.07 107.096C117.07 105.668 118.233 104.512 119.668 104.512C119.937 104.512 120.196 104.552 120.439 104.627ZM120.146 90.4717L120.298 97.7867C119.618 98.2268 118.807 98.4826 117.936 98.4826C116.555 98.4826 115.325 97.8392 114.532 96.8384C115.163 94.5517 115.785 92.3045 116.382 90.1556C116.864 89.9713 117.388 89.8696 117.936 89.8696C118.743 89.8696 119.499 90.0893 120.146 90.4717ZM110.726 110.735C111.223 108.906 111.736 107.022 112.257 105.116C112.567 105.709 112.741 106.382 112.741 107.096C112.741 108.627 111.937 109.971 110.726 110.735ZM107.599 122.432C107.927 121.177 108.288 119.812 108.674 118.361C109.051 118.808 109.277 119.385 109.277 120.015C109.277 121.12 108.58 122.063 107.599 122.432Z" fill="#FAEDC8" fill-opacity="0.5"/>
<path d="M160.308 150.585H148.704L143.464 130.852L157.314 126.384L160.308 150.585Z" fill="#F9FAFB"/>
<path d="M160.308 150.585H148.704L143.464 130.852L157.314 126.384L160.308 150.585Z" fill="url(#paint4_linear_1572_414)"/>
<path fill-rule="evenodd" clip-rule="evenodd" d="M156.734 150.585H160.309L159.303 142.46C159.086 142.426 158.863 142.409 158.636 142.409C156.245 142.409 154.307 144.337 154.307 146.715C154.307 148.415 155.296 149.885 156.734 150.585ZM158.485 135.847L157.938 131.425C157.621 131.288 157.272 131.212 156.904 131.212C155.47 131.212 154.307 132.369 154.307 133.796C154.307 135.223 155.47 136.38 156.904 136.38C157.499 136.38 158.048 136.181 158.485 135.847Z" fill="#FAEDC8" fill-opacity="0.5"/>
<path d="M123.999 66.0672C116.811 78.2795 115.015 112.3 115.015 128.93H135.603V131.224H160.269C161.293 131.224 162.094 130.355 161.989 129.342C160.618 116.151 157.457 91.1384 154.32 83.1946C150.202 72.7691 132.983 50.8018 123.999 66.0672Z" fill="#F9FAFB"/>
<path d="M123.999 66.0672C116.811 78.2795 115.015 112.3 115.015 128.93H135.603V131.224H160.269C161.293 131.224 162.094 130.355 161.989 129.342C160.618 116.151 157.457 91.1384 154.32 83.1946C150.202 72.7691 132.983 50.8018 123.999 66.0672Z" fill="url(#paint5_linear_1572_414)"/>
<path fill-rule="evenodd" clip-rule="evenodd" d="M126.458 62.9483C125.587 63.7383 124.763 64.7679 123.998 66.0672C123.599 66.7458 123.216 67.4918 122.849 68.2985C124.964 68.0152 126.596 66.2124 126.596 64.0307C126.596 63.6569 126.548 63.2942 126.458 62.9483ZM119.43 79.2898C119.813 77.5629 120.227 75.9155 120.673 74.3699C122.043 74.4413 123.132 75.5692 123.132 76.9502C123.132 78.3772 121.969 79.5341 120.534 79.5341C120.139 79.5341 119.765 79.4465 119.43 79.2898ZM123.115 128.93H117.954C117.943 128.831 117.937 128.731 117.937 128.628C117.937 127.201 119.099 126.044 120.534 126.044C121.969 126.044 123.132 127.201 123.132 128.628C123.132 128.731 123.126 128.831 123.115 128.93ZM135.603 130.674V128.93H127.472C127.465 128.831 127.462 128.73 127.462 128.628C127.462 126.25 129.401 124.322 131.792 124.322C134.182 124.322 136.121 126.25 136.121 128.628C136.121 129.369 135.933 130.066 135.603 130.674ZM157.761 131.224H150.851C150.302 130.502 149.976 129.603 149.976 128.628C149.976 126.25 151.915 124.322 154.306 124.322C156.697 124.322 158.636 126.25 158.636 128.628C158.636 129.603 158.31 130.502 157.761 131.224ZM158.329 101.196C158.43 101.815 158.528 102.441 158.627 103.07C158.481 105.318 156.603 107.096 154.306 107.096C151.915 107.096 149.976 105.167 149.976 102.789C149.976 100.411 151.915 98.4826 154.306 98.4826C156.132 98.4826 157.693 99.6058 158.329 101.196ZM155.599 87.3228C155.984 88.8171 156.367 90.5139 156.742 92.3579C156.518 92.42 156.282 92.4535 156.038 92.4535C154.603 92.4535 153.44 91.2968 153.44 89.8696C153.44 88.5915 154.374 87.5295 155.599 87.3228ZM150.203 75.5717C151.49 77.5192 152.586 79.4375 153.424 81.1671C151.455 80.7617 149.976 79.0277 149.976 76.9502C149.976 76.4681 150.056 76.0045 150.203 75.5717ZM144.515 68.3292C143.223 66.955 141.87 65.6862 140.488 64.5982C140.756 66.6226 142.437 68.2039 144.515 68.3292ZM136.121 64.0307C136.121 65.4578 134.958 66.6146 133.523 66.6146C132.089 66.6146 130.926 65.4578 130.926 64.0307C130.926 62.6036 132.089 61.4468 133.523 61.4468C134.958 61.4468 136.121 62.6036 136.121 64.0307ZM122.266 94.1761C124.657 94.1761 126.596 92.2477 126.596 89.8696C126.596 87.4916 124.657 85.5632 122.266 85.5632C119.875 85.5632 117.937 87.4916 117.937 89.8696C117.937 92.2477 119.875 94.1761 122.266 94.1761ZM136.121 89.8696C136.121 91.2968 134.958 92.4535 133.523 92.4535C132.089 92.4535 130.926 91.2968 130.926 89.8696C130.926 88.4425 132.089 87.2857 133.523 87.2857C134.958 87.2857 136.121 88.4425 136.121 89.8696ZM144.781 94.1761C147.172 94.1761 149.11 92.2477 149.11 89.8696C149.11 87.4916 147.172 85.5632 144.781 85.5632C142.39 85.5632 140.451 87.4916 140.451 89.8696C140.451 92.2477 142.39 94.1761 144.781 94.1761ZM140.451 102.789C140.451 104.216 141.614 105.373 143.049 105.373C144.484 105.373 145.647 104.216 145.647 102.789C145.647 101.362 144.484 100.205 143.049 100.205C141.614 100.205 140.451 101.362 140.451 102.789ZM131.792 107.096C129.401 107.096 127.462 105.167 127.462 102.789C127.462 100.411 129.401 98.4826 131.792 98.4826C134.182 98.4826 136.121 100.411 136.121 102.789C136.121 105.167 134.182 107.096 131.792 107.096ZM117.937 102.789C117.937 104.216 119.099 105.373 120.534 105.373C121.969 105.373 123.132 104.216 123.132 102.789C123.132 101.362 121.969 100.205 120.534 100.205C119.099 100.205 117.937 101.362 117.937 102.789ZM122.266 120.015C124.657 120.015 126.596 118.087 126.596 115.709C126.596 113.331 124.657 111.402 122.266 111.402C119.875 111.402 117.937 113.331 117.937 115.709C117.937 118.087 119.875 120.015 122.266 120.015ZM136.121 115.709C136.121 117.136 134.958 118.293 133.523 118.293C132.089 118.293 130.926 117.136 130.926 115.709C130.926 114.281 132.089 113.125 133.523 113.125C134.958 113.125 136.121 114.281 136.121 115.709ZM144.781 120.015C147.172 120.015 149.11 118.087 149.11 115.709C149.11 113.331 147.172 111.402 144.781 111.402C142.39 111.402 140.451 113.331 140.451 115.709C140.451 118.087 142.39 120.015 144.781 120.015ZM158.636 115.709C158.636 117.136 157.473 118.293 156.038 118.293C154.603 118.293 153.44 117.136 153.44 115.709C153.44 114.281 154.603 113.125 156.038 113.125C157.473 113.125 158.636 114.281 158.636 115.709ZM140.451 128.628C140.451 130.055 141.614 131.212 143.049 131.212C144.484 131.212 145.647 130.055 145.647 128.628C145.647 127.201 144.484 126.044 143.049 126.044C141.614 126.044 140.451 127.201 140.451 128.628ZM140.451 76.9502C140.451 78.3772 141.614 79.5341 143.049 79.5341C144.484 79.5341 145.647 78.3772 145.647 76.9502C145.647 75.5231 144.484 74.3663 143.049 74.3663C141.614 74.3663 140.451 75.5231 140.451 76.9502ZM131.792 81.2567C129.401 81.2567 127.462 79.3286 127.462 76.9502C127.462 74.5718 129.401 72.6437 131.792 72.6437C134.182 72.6437 136.121 74.5718 136.121 76.9502C136.121 79.3286 134.182 81.2567 131.792 81.2567Z" fill="#FAEAC8" fill-opacity="0.3"/>
<path fill-rule="evenodd" clip-rule="evenodd" d="M136.843 104.356V131.164H135.111V104.356H136.843Z" fill="#FAEEC8"/>
<path d="M224.033 189.034C193.123 173.923 175.834 176.685 167.975 178.31C158.021 181.072 147.752 185.622 171.642 183.672C201.505 181.235 218.27 195.539 241.322 202.195C271.709 210.969 290.395 202.52 300 197.321V187.572C282.187 206.582 243.841 198.717 224.033 189.034Z" fill="url(#paint6_linear_1572_414)"/>
<path d="M135.602 128.93H118.009V108.825L135.602 104.356V128.93Z" fill="url(#paint7_linear_1572_414)"/>
<path d="M164.706 194.892C166.773 194.892 168.448 188.724 168.448 181.115C168.448 173.508 166.773 167.34 164.706 167.34H144.866V194.892H164.706Z" fill="#FBF4D6"/>
<path d="M164.706 194.892C166.773 194.892 168.448 188.724 168.448 181.115C168.448 173.508 166.773 167.34 164.706 167.34H144.866V194.892H164.706Z" fill="url(#paint8_linear_1572_414)"/>
<path d="M134.759 233.926C142.202 233.926 148.235 210.422 148.235 181.429C148.235 152.435 142.202 128.931 134.759 128.931H106.31V233.926H134.759Z" fill="#FBF4D6"/>
<path d="M134.759 233.926C142.202 233.926 148.235 210.422 148.235 181.429C148.235 152.435 142.202 128.931 134.759 128.931H106.31V233.926H134.759Z" fill="url(#paint9_linear_1572_414)"/>
<path d="M134.759 233.926C142.202 233.926 148.235 210.422 148.235 181.429C148.235 152.435 142.202 128.931 134.759 128.931H106.31V233.926H134.759Z" fill="url(#paint10_linear_1572_414)"/>
<path d="M104.064 240.315C112.334 240.315 119.037 213.644 119.037 180.744C119.037 147.843 112.334 121.171 104.064 121.171H98.0742V240.315H104.064Z" fill="#FBF4D6"/>
<path d="M104.064 240.315C112.334 240.315 119.037 213.644 119.037 180.744C119.037 147.843 112.334 121.171 104.064 121.171H98.0742V240.315H104.064Z" fill="url(#paint11_linear_1572_414)"/>
<path d="M113.047 180.744C113.047 213.644 106.344 240.315 98.0745 240.315C89.8047 240.315 83.1006 213.644 83.1006 180.744C83.1006 147.843 89.8047 121.171 98.0745 121.171C106.344 121.171 113.047 147.843 113.047 180.744Z" fill="#FBF4D6"/>
<path d="M94.3316 235.103C101.774 235.103 107.807 210.932 107.807 181.116C107.807 151.299 101.774 127.128 94.3316 127.128H53.1543V235.103H94.3316Z" fill="#FBF4D6"/>
<path d="M94.3316 235.103C101.774 235.103 107.807 210.932 107.807 181.116C107.807 151.299 101.774 127.128 94.3316 127.128H53.1543V235.103H94.3316Z" fill="url(#paint12_linear_1572_414)"/>
<path d="M94.3316 235.103C101.774 235.103 107.807 210.932 107.807 181.116C107.807 151.299 101.774 127.128 94.3316 127.128H53.1543V235.103H94.3316Z" fill="url(#paint13_linear_1572_414)"/>
<path d="M65.1318 188.189H89.464C93.3919 188.189 96.576 191.357 96.576 195.264C96.576 199.171 93.3919 202.338 89.464 202.338H65.1318V188.189Z" fill="url(#paint14_linear_1572_414)"/>
<path d="M66.6303 181.116C66.6303 210.932 60.5973 235.103 53.1545 235.103C45.7117 235.103 39.6787 210.932 39.6787 181.116C39.6787 151.299 45.7117 127.128 53.1545 127.128C60.5973 127.128 66.6303 151.299 66.6303 181.116Z" fill="#FBF4D6"/>
<path d="M66.6303 181.116C66.6303 210.932 60.5973 235.103 53.1545 235.103C45.7117 235.103 39.6787 210.932 39.6787 181.116C39.6787 151.299 45.7117 127.128 53.1545 127.128C60.5973 127.128 66.6303 151.299 66.6303 181.116Z" fill="url(#paint15_linear_1572_414)"/>
<path d="M0 180.371C0 175.641 3.85432 171.808 8.60922 171.808H48.6634C51.0508 177.269 51.0508 183.472 48.6634 188.935H8.60922C3.85432 188.935 0 185.1 0 180.371Z" fill="#FBF4D6"/>
<path d="M0 180.371C0 175.641 3.85432 171.808 8.60922 171.808H48.6634C51.0508 177.269 51.0508 183.472 48.6634 188.935H8.60922C3.85432 188.935 0 185.1 0 180.371Z" fill="#EBB325" fill-opacity="0.4"/>
<path d="M8.23438 189.307C8.23438 184.577 12.0895 180.744 16.8444 180.744H56.8977C59.286 186.205 59.286 192.408 56.8977 197.871H16.8444C12.0895 197.871 8.23438 194.036 8.23438 189.307Z" fill="#FBF4D6"/>
<path d="M8.23438 189.307C8.23438 184.577 12.0895 180.744 16.8444 180.744H56.8977C59.286 186.205 59.286 192.408 56.8977 197.871H16.8444C12.0895 197.871 8.23438 194.036 8.23438 189.307Z" fill="#EBBD25" fill-opacity="0.2"/>
<path d="M123.998 69.0233L119.881 54.1303L127.368 47.0562L134.106 64.1831C132.009 66.8639 126.494 68.5269 123.998 69.0233Z" fill="#FFD5BC"/>
<path d="M123.998 69.0233L119.881 54.1303L127.368 47.0562L134.106 64.1831C132.009 66.8639 126.494 68.5269 123.998 69.0233Z" fill="url(#paint16_linear_1572_414)"/>
<path d="M129.614 20.6209C117.336 17.9401 112.269 25.4611 111.271 29.5567C113.642 37.9961 120.48 54.1302 128.865 51.1516C139.346 47.4284 144.961 23.9717 129.614 20.6209Z" fill="#301B0B"/>
<path d="M150.307 17.8585C147.057 24.3524 139.85 27.353 134.211 24.5605C128.571 21.768 126.634 14.24 129.884 7.74626C133.134 1.25243 140.341 -1.74813 145.981 1.04429C151.62 3.83673 153.557 11.3648 150.307 17.8585Z" fill="#301B0B"/>
<path d="M130.362 39.6095C132.233 41.0987 126.619 56.7364 116.137 55.6195C112.514 55.2333 110.764 51.868 110.096 47.4992C110.046 47.1738 109.748 47.5708 109.71 47.2351C109.673 46.9079 109.896 45.8481 109.869 45.5125C109.44 40.1175 110.327 33.7508 111.271 29.5566C112.893 30.5495 116.437 33.5033 117.635 37.3755C119.133 42.2157 122.875 43.705 124.747 41.8434C126.762 39.8383 128.49 38.1201 130.362 39.6095Z" fill="#FFD5BC"/>
<path d="M114.765 41.0355C114.848 41.5232 114.518 41.9854 114.027 42.0679C113.537 42.1504 113.072 41.8219 112.989 41.3341C112.906 40.8464 113.236 40.3842 113.727 40.3018C114.217 40.2192 114.682 40.5477 114.765 41.0355Z" fill="#281E11"/>
<path fill-rule="evenodd" clip-rule="evenodd" d="M113.188 37.8582C112.561 37.9716 112.097 38.3208 111.678 38.7732C111.516 38.9481 111.242 38.9593 111.065 38.7983C110.89 38.6371 110.878 38.3647 111.04 38.1898C111.524 37.6672 112.147 37.1711 113.033 37.0109C113.913 36.8516 114.98 37.0379 116.329 37.7196C116.542 37.8273 116.628 38.0865 116.52 38.2986C116.412 38.5107 116.151 38.5953 115.937 38.4876C114.688 37.8564 113.818 37.7441 113.188 37.8582Z" fill="#281E11"/>
<path fill-rule="evenodd" clip-rule="evenodd" d="M110.333 40.5712C110.569 40.6064 110.732 40.8256 110.697 41.0609L109.815 46.9205C109.8 47.0252 109.884 47.1177 109.991 47.1113L112.539 46.9581C112.777 46.9438 112.982 47.1246 112.997 47.362C113.011 47.5994 112.83 47.8035 112.591 47.8178L110.043 47.9711C109.387 48.0105 108.862 47.4393 108.959 46.7932L109.84 40.9334C109.876 40.6982 110.097 40.536 110.333 40.5712Z" fill="#281E11"/>
<path fill-rule="evenodd" clip-rule="evenodd" d="M113.444 50.4342C113.981 50.3075 114.535 50.0813 115.379 49.7136C115.598 49.6181 115.853 49.7173 115.949 49.9351C116.045 50.1529 115.946 50.4069 115.727 50.5024C114.89 50.867 114.268 51.125 113.644 51.2722C113.009 51.4222 112.391 51.4535 111.558 51.3972C111.32 51.3811 111.139 51.1757 111.155 50.9383C111.172 50.701 111.378 50.5218 111.617 50.5379C112.395 50.5904 112.919 50.5581 113.444 50.4342Z" fill="#281E11"/>
<path fill-rule="evenodd" clip-rule="evenodd" d="M128.173 43.6612C128.421 43.0778 128.381 42.4997 128.23 41.9035C128.172 41.6728 128.312 41.4387 128.544 41.3804C128.775 41.3222 129.011 41.4619 129.07 41.6924C129.244 42.3811 129.321 43.171 128.972 43.9958C128.624 44.8164 127.883 45.6022 126.57 46.3529C126.363 46.4714 126.099 46.4005 125.98 46.1943C125.86 45.9881 125.931 45.7249 126.139 45.6063C127.354 44.9112 127.924 44.2489 128.173 43.6612Z" fill="#281E11"/>
<path d="M154.693 131.224H137.848C137.848 137.553 126.993 191.912 120.255 198.614C113.517 205.317 101.912 223.129 115.388 219.465C129.618 215.596 144.212 166.223 147.956 156.914C150.95 149.468 153.695 136.684 154.693 131.224Z" fill="#FFD5BC"/>
<path d="M154.693 131.224H137.848C137.848 137.553 126.993 191.912 120.255 198.614C113.517 205.317 101.912 223.129 115.388 219.465C129.618 215.596 144.212 166.223 147.956 156.914C150.95 149.468 153.695 136.684 154.693 131.224Z" fill="url(#paint17_linear_1572_414)"/>
<defs>
<linearGradient id="paint0_linear_1572_414" x1="114.958" y1="425.252" x2="114.958" y2="459.458" gradientUnits="userSpaceOnUse">
<stop stop-color="#FAEDC8"/>
<stop offset="1" stop-color="#FAEEC8" stop-opacity="0"/>
</linearGradient>
<linearGradient id="paint1_linear_1572_414" x1="178.65" y1="422.636" x2="178.65" y2="458.894" gradientUnits="userSpaceOnUse">
<stop stop-color="#FAF0C8"/>
<stop offset="1" stop-color="#FAEDC8" stop-opacity="0"/>
</linearGradient>
<linearGradient id="paint2_linear_1572_414" x1="31.0853" y1="213.798" x2="162.814" y2="434.04" gradientUnits="userSpaceOnUse">
<stop stop-color="#301B0B"/>
<stop offset="1" stop-color="#301B0B" stop-opacity="0"/>
</linearGradient>
<linearGradient id="paint3_linear_1572_414" x1="144.213" y1="144.568" x2="117.853" y2="97.1623" gradientUnits="userSpaceOnUse">
<stop stop-color="#FAEEC8"/>
<stop offset="1" stop-color="#FAEDC8" stop-opacity="0"/>
</linearGradient>
<linearGradient id="paint4_linear_1572_414" x1="155.782" y1="121.111" x2="155.782" y2="146.43" gradientUnits="userSpaceOnUse">
<stop stop-color="#FAEBC8"/>
<stop offset="1" stop-color="#FAE8C8" stop-opacity="0"/>
</linearGradient>
<linearGradient id="paint5_linear_1572_414" x1="149.508" y1="-91.4855" x2="149.508" y2="101.751" gradientUnits="userSpaceOnUse">
<stop stop-color="#FAECC8"/>
<stop offset="1" stop-color="#FAECC8" stop-opacity="0"/>
</linearGradient>
<linearGradient id="paint6_linear_1572_414" x1="156.449" y1="182.697" x2="297.733" y2="196.195" gradientUnits="userSpaceOnUse">
<stop stop-color="#301B0B"/>
<stop offset="1" stop-color="#301B0B" stop-opacity="0"/>
</linearGradient>
<linearGradient id="paint7_linear_1572_414" x1="147.581" y1="141.217" x2="127.866" y2="117.656" gradientUnits="userSpaceOnUse">
<stop stop-color="#FAEFC8"/>
<stop offset="1" stop-color="#FAEDC8" stop-opacity="0"/>
</linearGradient>
<linearGradient id="paint8_linear_1572_414" x1="137.379" y1="239.512" x2="137.379" y2="181.056" gradientUnits="userSpaceOnUse">
<stop stop-color="#EBC025"/>
<stop offset="1" stop-color="#EBB325" stop-opacity="0"/>
</linearGradient>
<linearGradient id="paint9_linear_1572_414" x1="209.251" y1="254.405" x2="161.398" y2="143.264" gradientUnits="userSpaceOnUse">
<stop stop-color="#F9FAFB"/>
<stop offset="1" stop-color="#F9FAFB" stop-opacity="0"/>
</linearGradient>
<linearGradient id="paint10_linear_1572_414" x1="11.229" y1="288.286" x2="143.457" y2="221.815" gradientUnits="userSpaceOnUse">
<stop stop-color="#EBC025"/>
<stop offset="1" stop-color="#EBC025" stop-opacity="0"/>
</linearGradient>
<linearGradient id="paint11_linear_1572_414" x1="108.556" y1="91.3252" x2="108.556" y2="317.7" gradientUnits="userSpaceOnUse">
<stop stop-color="#F9FAFB"/>
<stop offset="1" stop-color="#F9FAFB" stop-opacity="0"/>
</linearGradient>
<linearGradient id="paint12_linear_1572_414" x1="80.4809" y1="105.846" x2="80.4809" y2="213.448" gradientUnits="userSpaceOnUse">
<stop stop-color="#F9FAFB"/>
<stop offset="1" stop-color="#F9FAFB" stop-opacity="0"/>
</linearGradient>
<linearGradient id="paint13_linear_1572_414" x1="101.595" y1="308.489" x2="58.7578" y2="179.828" gradientUnits="userSpaceOnUse">
<stop stop-color="#EBBD25"/>
<stop offset="1" stop-color="#EBD125" stop-opacity="0"/>
</linearGradient>
<linearGradient id="paint14_linear_1572_414" x1="74.5433" y1="180.884" x2="80.3695" y2="211.139" gradientUnits="userSpaceOnUse">
<stop stop-color="white"/>
<stop offset="1" stop-color="white" stop-opacity="0"/>
</linearGradient>
<linearGradient id="paint15_linear_1572_414" x1="53.1545" y1="-18.5106" x2="53.1545" y2="173.981" gradientUnits="userSpaceOnUse">
<stop stop-color="#EBB325"/>
<stop offset="1" stop-color="#EBB625" stop-opacity="0"/>
</linearGradient>
<linearGradient id="paint16_linear_1572_414" x1="127.069" y1="43.0966" x2="127.069" y2="64.3339" gradientUnits="userSpaceOnUse">
<stop stop-color="#7F270F"/>
<stop offset="1" stop-color="#7F270F" stop-opacity="0"/>
</linearGradient>
<linearGradient id="paint17_linear_1572_414" x1="132.501" y1="-14.7874" x2="132.501" y2="180.311" gradientUnits="userSpaceOnUse">
<stop stop-color="#7F270F"/>
<stop offset="1" stop-color="#7F270F" stop-opacity="0"/>
</linearGradient>
</defs>
</svg>
