<svg width="426" height="330" viewBox="0 0 426 330" fill="none" xmlns="http://www.w3.org/2000/svg">
<g clip-path="url(#clip0_28_11137)">
<path d="M350.186 285H72.1594C70.5271 285 69.439 283.913 69.439 282.282C69.439 280.651 70.5271 279.564 72.1594 279.564H349.914C351.546 279.564 352.634 280.651 352.634 282.282C352.634 283.913 351.546 285 350.186 285Z" fill="#F9FAFD"/>
<path d="M271.84 279.835C251.165 280.379 226.409 279.835 208.998 279.563C191.588 280.107 166.832 280.379 146.157 279.835C166.56 268.148 173.633 246.676 174.721 232.542H243.003C244.364 246.676 251.437 268.42 271.84 279.835Z" fill="url(#paint0_linear_28_11137)"/>
<path d="M337.943 52.6104V230.368C337.943 234.716 334.406 237.978 330.325 237.978H88.4804C84.3998 237.978 80.8633 234.445 80.8633 230.368V52.6104C80.8633 48.5334 84.3998 45 88.4804 45H330.325C334.678 45 337.943 48.5334 337.943 52.6104Z" fill="#F9FAFD"/>
<path d="M337.943 52.6104V205.634H80.8633V52.6104C80.8633 48.5334 84.3998 45 88.4804 45H330.325C334.678 45 337.943 48.5334 337.943 52.6104Z" fill="#748194"/>
<path d="M328.148 54.5127H89.5674V196.936H328.148V54.5127Z" fill="white"/>
<path d="M208.995 229.009C212.451 229.009 215.252 226.211 215.252 222.758C215.252 219.305 212.451 216.507 208.995 216.507C205.54 216.507 202.738 219.305 202.738 222.758C202.738 226.211 205.54 229.009 208.995 229.009Z" fill="#D8E2EE"/>
<path d="M314.824 189.325H278.099C275.106 189.325 272.386 186.879 272.386 183.618V67.2871C272.386 64.2973 274.834 61.5793 278.099 61.5793H314.824C317.817 61.5793 320.537 64.0255 320.537 67.2871V183.618C320.537 186.879 318.089 189.325 314.824 189.325Z" fill="#EDF2F8"/>
<path d="M308.836 70.5487H284.352C283.536 70.5487 282.72 69.7333 282.72 68.9179C282.72 68.1025 283.536 67.2871 284.352 67.2871H308.836C309.652 67.2871 310.468 68.1025 310.468 68.9179C310.468 69.7333 309.652 70.5487 308.836 70.5487Z" fill="#D8E2EE"/>
<path d="M312.915 83.0551H280.27C279.454 83.0551 278.91 82.511 278.91 81.6949C278.91 80.8788 279.454 80.3347 280.27 80.3347H312.915C313.731 80.3347 314.275 80.8788 314.275 81.6949C314.275 82.511 313.731 83.0551 312.915 83.0551Z" fill="#D8E2EE"/>
<path d="M312.915 90.6655H280.27C279.454 90.6655 278.91 90.1214 278.91 89.3053C278.91 88.4891 279.454 87.9451 280.27 87.9451H312.915C313.731 87.9451 314.275 88.4891 314.275 89.3053C314.275 90.1214 313.731 90.6655 312.915 90.6655Z" fill="#D8E2EE"/>
<path d="M312.915 98.2756H280.27C279.454 98.2756 278.91 97.7315 278.91 96.9154C278.91 96.0993 279.454 95.5552 280.27 95.5552H312.915C313.731 95.5552 314.275 96.0993 314.275 96.9154C314.275 97.7315 313.731 98.2756 312.915 98.2756Z" fill="#D8E2EE"/>
<path d="M312.915 105.886H280.27C279.454 105.886 278.91 105.342 278.91 104.526C278.91 103.71 279.454 103.166 280.27 103.166H312.915C313.731 103.166 314.275 103.71 314.275 104.526C314.275 105.342 313.731 105.886 312.915 105.886Z" fill="#D8E2EE"/>
<path d="M312.915 113.497H280.27C279.454 113.497 278.91 112.952 278.91 112.136C278.91 111.32 279.454 110.776 280.27 110.776H312.915C313.731 110.776 314.275 111.32 314.275 112.136C314.275 112.952 313.731 113.497 312.915 113.497Z" fill="#CED7E2"/>
<path d="M312.915 121.107H280.27C279.454 121.107 278.91 120.563 278.91 119.747C278.91 118.931 279.454 118.387 280.27 118.387H312.915C313.731 118.387 314.275 118.931 314.275 119.747C314.275 120.563 313.731 121.107 312.915 121.107Z" fill="#CED7E2"/>
<path d="M312.915 128.717H280.27C279.454 128.717 278.91 128.173 278.91 127.357C278.91 126.541 279.454 125.997 280.27 125.997H312.915C313.731 125.997 314.275 126.541 314.275 127.357C314.275 127.901 313.731 128.717 312.915 128.717Z" fill="#CED7E2"/>
<path d="M312.915 136.328H280.27C279.454 136.328 278.91 135.784 278.91 134.967C278.91 134.151 279.454 133.607 280.27 133.607H312.915C313.731 133.607 314.275 134.151 314.275 134.967C314.275 135.511 313.731 136.328 312.915 136.328Z" fill="#CED7E2"/>
<path d="M312.915 143.938H280.27C279.454 143.938 278.91 143.394 278.91 142.578C278.91 141.762 279.454 141.218 280.27 141.218H312.915C313.731 141.218 314.275 141.762 314.275 142.578C314.275 143.122 313.731 143.938 312.915 143.938Z" fill="#CED7E2"/>
<path d="M110.518 136.325H171.183C173.631 136.325 175.808 134.15 175.808 131.704V68.9185C175.808 66.4723 173.631 64.2979 171.183 64.2979H110.518C108.069 64.2979 105.893 66.4723 105.893 68.9185V131.704C105.621 134.15 107.797 136.325 110.518 136.325Z" fill="#EDF2F8"/>
<path d="M140.715 105.611C149.429 105.611 156.493 98.5534 156.493 89.8469C156.493 81.1405 149.429 74.0825 140.715 74.0825C132.001 74.0825 124.937 81.1405 124.937 89.8469C124.937 98.5534 132.001 105.611 140.715 105.611Z" fill="#CED7E2"/>
<path d="M162.477 116.756H119.222C118.134 116.756 117.318 115.94 117.318 114.853C117.318 113.766 118.134 112.951 119.222 112.951H162.477C163.565 112.951 164.381 113.766 164.381 114.853C164.381 115.94 163.565 116.756 162.477 116.756Z" fill="#CED7E2"/>
<path d="M149.421 125.452H132.282C131.194 125.452 130.378 124.637 130.378 123.55C130.378 122.463 131.194 121.647 132.282 121.647H149.421C150.509 121.647 151.325 122.463 151.325 123.55C151.325 124.365 150.509 125.452 149.421 125.452Z" fill="#CED7E2"/>
<path d="M192.128 136.325H252.793C255.242 136.325 257.418 134.15 257.418 131.704V68.9185C257.418 66.4723 255.242 64.2979 252.793 64.2979H192.128C189.68 64.2979 187.503 66.4723 187.503 68.9185V131.704C187.503 134.15 189.68 136.325 192.128 136.325Z" fill="#EDF2F8"/>
<path d="M222.594 105.612C231.308 105.612 238.372 98.5536 238.372 89.8472C238.372 81.1407 231.308 74.0828 222.594 74.0828C213.879 74.0828 206.815 81.1407 206.815 89.8472C206.815 98.5536 213.879 105.612 222.594 105.612Z" fill="#D8E2EE"/>
<path d="M244.359 116.756H200.833C199.744 116.756 198.928 115.941 198.928 114.854C198.928 113.766 199.744 112.951 200.833 112.951H244.087C245.175 112.951 245.991 113.766 245.991 114.854C246.263 115.941 245.447 116.756 244.359 116.756Z" fill="#D8E2EE"/>
<path d="M231.303 125.453H213.893C212.805 125.453 211.989 124.637 211.989 123.55C211.989 122.463 212.805 121.647 213.893 121.647H231.031C232.12 121.647 232.936 122.463 232.936 123.55C233.208 124.365 232.392 125.453 231.303 125.453Z" fill="#D8E2EE"/>
<path d="M175.805 150.459V196.937H105.619V150.459C105.619 147.741 107.795 145.838 110.243 145.838H170.909C173.629 145.838 175.805 148.013 175.805 150.459Z" fill="#EDF2F8"/>
<path d="M140.709 187.152C149.423 187.152 156.487 180.094 156.487 171.387C156.487 162.681 149.423 155.623 140.709 155.623C131.995 155.623 124.931 162.681 124.931 171.387C124.931 180.094 131.995 187.152 140.709 187.152Z" fill="#CED7E2"/>
<path d="M164.379 196.394C164.379 196.666 164.379 196.666 164.379 196.938H117.044C117.044 196.666 117.044 196.666 117.044 196.394C117.044 195.306 117.86 194.49 118.948 194.49H162.203C163.563 194.49 164.379 195.306 164.379 196.394Z" fill="#CED7E2"/>
<path d="M257.69 150.459V196.937H187.503V150.459C187.503 147.741 189.68 145.838 192.128 145.838H252.793C255.514 145.838 257.69 148.013 257.69 150.459Z" fill="#EDF2F8"/>
<path d="M222.594 187.152C231.308 187.152 238.372 180.094 238.372 171.387C238.372 162.681 231.308 155.623 222.594 155.623C213.879 155.623 206.815 162.681 206.815 171.387C206.815 180.094 213.879 187.152 222.594 187.152Z" fill="#D8E2EE"/>
<path d="M246.263 196.394C246.263 196.666 246.263 196.666 246.263 196.938H198.928C198.928 196.666 198.928 196.666 198.928 196.394C198.928 195.306 199.744 194.49 201.105 194.49H244.359C245.447 194.49 246.263 195.306 246.263 196.394Z" fill="#D8E2EE"/>
<g filter="url(#filter0_d_28_11137)">
<path d="M159.485 219.768H56.1096C50.1247 219.768 45.5 214.875 45.5 209.168V84.1395C45.5 78.1599 50.3967 73.5393 56.1096 73.5393H159.485C165.47 73.5393 170.095 78.4317 170.095 84.1395V209.168C170.095 214.875 165.198 219.768 159.485 219.768Z" fill="white"/>
</g>
<path opacity="0.7" d="M131.192 178.998H63.998C62.0937 178.998 60.4614 177.367 60.4614 175.465C60.4614 173.562 62.0937 171.931 63.998 171.931H131.192C133.097 171.931 134.729 173.562 134.729 175.465C134.729 177.367 133.097 178.998 131.192 178.998Z" fill="url(#paint1_linear_28_11137)"/>
<path opacity="0.7" d="M93.6505 199.382H63.998C62.0937 199.382 60.4614 197.751 60.4614 195.849C60.4614 193.946 62.0937 192.315 63.998 192.315H93.6505C95.5548 192.315 97.187 193.946 97.187 195.849C96.915 197.751 95.5548 199.382 93.6505 199.382Z" fill="url(#paint2_linear_28_11137)"/>
<path d="M155.23 124.004C154.961 124.004 154.782 123.821 154.782 123.547V122.268C154.782 121.994 154.961 121.811 155.23 121.811C155.499 121.811 155.678 121.994 155.678 122.268V123.547C155.678 123.821 155.409 124.004 155.23 124.004Z" fill="#BCC5D6"/>
<path d="M155.23 150.041C154.961 150.041 154.782 149.858 154.782 149.584V131.769C154.782 131.495 154.961 131.312 155.23 131.312C155.499 131.312 155.678 131.495 155.678 131.769V149.492C155.678 149.858 155.409 150.041 155.23 150.041Z" fill="#BCC5D6"/>
<path d="M155.499 132.5H154.872C154.603 132.5 154.424 132.317 154.334 132.043L153.976 130.125C153.887 129.759 154.155 129.485 154.514 129.485H155.857C156.216 129.485 156.484 129.759 156.395 130.125L156.036 132.043C155.947 132.317 155.768 132.5 155.499 132.5Z" fill="#BCC5D6"/>
<path d="M149.675 151.411C149.675 150.589 149.406 149.949 148.869 149.401C149.227 148.853 149.496 148.214 149.496 147.483C149.496 145.656 148.063 144.103 146.182 144.103C146.092 144.103 146.092 144.103 146.002 144.103C146.092 143.829 146.182 143.463 146.182 143.189C146.182 141.727 145.017 140.448 143.494 140.448C143.494 140.448 143.494 140.448 143.405 140.448C143.405 140.448 143.405 140.448 143.315 140.448C141.792 140.357 139.105 142.184 139.105 142.184L140.09 152.599L140.986 154.243L146.719 154.335C148.421 154.335 149.675 153.056 149.675 151.411Z" fill="#00D27B"/>
<path opacity="0.3" d="M149.675 151.411C149.675 150.589 149.406 149.949 148.869 149.401C149.227 148.853 149.496 148.214 149.496 147.483C149.496 145.656 148.063 144.103 146.182 144.103C146.092 144.103 146.092 144.103 146.002 144.103C146.092 143.829 146.182 143.463 146.182 143.189C146.182 141.727 145.017 140.448 143.494 140.448C143.494 140.448 143.494 140.448 143.405 140.448C143.405 140.448 143.405 140.448 143.315 140.448C141.792 140.357 139.105 142.184 139.105 142.184L140.09 152.599L140.986 154.243L146.719 154.335C148.421 154.335 149.675 153.056 149.675 151.411Z" fill="url(#paint3_linear_28_11137)"/>
<path d="M160.694 156.253H58.3958C57.8583 156.253 57.5 155.887 57.5 155.339C57.5 154.791 57.8583 154.426 58.3958 154.426H160.604C161.142 154.426 161.5 154.791 161.5 155.339C161.5 155.887 161.142 156.253 160.694 156.253Z" fill="#B6C2D2"/>
<g filter="url(#filter1_d_28_11137)">
<path d="M126.834 154.335H72.8186V103.358H142.152V154.335H134.807H126.834Z" fill="#E5F7FF"/>
</g>
<path d="M149.228 108.656V108.382C149.228 108.108 149.138 107.834 149.048 107.468C148.869 107.103 148.601 106.737 148.242 106.463L142.33 102.261H73.0863L64.0389 106.555C63.591 106.737 63.2327 107.103 63.0535 107.468C62.8744 107.834 62.7848 108.199 62.7848 108.656C62.4265 112.219 65.2034 115.69 68.9657 115.69C72.3696 115.69 75.1466 112.767 75.1466 109.295C75.1466 112.858 77.9235 115.69 81.3274 115.69C84.7314 115.69 87.5979 112.493 87.5979 108.93C87.5979 112.493 90.2852 115.69 93.6892 115.69C96.914 115.69 99.6013 113.041 99.8701 109.752C100.318 113.406 103.274 115.782 106.051 115.782C109.455 115.782 112.142 112.95 112.232 109.478C112.232 109.569 112.232 109.661 112.232 109.752V109.478C113.844 118.796 124.504 116.604 124.504 109.204C124.504 109.295 124.504 109.478 124.504 109.569C124.504 109.295 124.594 109.021 124.594 108.747C124.594 111.945 126.923 114.868 129.968 115.416C130.954 115.508 131.939 115.416 132.924 115.142C133.104 115.051 133.283 115.051 133.372 114.96C134.895 114.32 136.239 113.041 136.776 111.123C136.776 111.031 136.866 110.94 136.866 110.848C136.955 110.666 136.955 110.392 137.045 110.209C137.672 113.132 140.091 115.508 143.047 115.508C147.078 115.69 149.675 111.945 149.228 108.656Z" fill="url(#paint4_linear_28_11137)"/>
<path d="M137.223 109.295C137.223 109.661 137.223 110.117 137.134 110.483C137.134 110.665 137.044 110.94 136.955 111.122C136.955 111.214 136.865 111.305 136.865 111.396C136.328 113.132 135.074 114.502 133.461 115.233C133.282 115.325 133.103 115.325 133.013 115.416C132.386 115.69 131.67 115.781 131.043 115.781C130.684 115.781 130.415 115.781 130.057 115.69C127.101 115.142 124.682 112.219 124.682 109.021C124.682 109.295 124.682 109.569 124.593 109.843C124.593 109.843 124.593 109.843 124.593 109.935V109.752L124.682 107.285L122.085 102.352H132.028L133.192 103.631L137.134 107.559L137.223 109.295Z" fill="#EB5757"/>
<path d="M87.5973 107.194L87.6869 109.752C87.6869 109.478 87.5973 109.204 87.5973 108.838C87.5973 112.401 84.7308 115.599 81.3269 115.599C77.9229 115.599 75.146 112.858 75.146 109.295C75.146 109.478 75.146 109.569 75.146 109.661L75.2356 107.468L79.177 103.631L80.5207 102.352H90.1951L87.5973 107.194Z" fill="#EB5757"/>
<path d="M99.7807 107.377L99.6912 109.935C99.6912 109.661 99.7807 109.387 99.7807 109.022C99.7807 112.584 102.647 115.782 106.051 115.782C109.455 115.782 112.232 112.859 112.232 109.387C112.232 109.57 112.232 109.661 112.232 109.752L112.143 107.56L111.157 103.723L110.709 102.261H101.214L99.7807 107.377Z" fill="#EB5757"/>
<path d="M142.151 98.3325V102.352H73.0867V98.3325C73.0867 96.7795 74.3408 95.5005 75.8636 95.5005H139.464C140.897 95.5005 142.151 96.7795 142.151 98.3325Z" fill="#D8E2EE"/>
<path opacity="0.56" d="M109.993 120.258H79.5369V147.208H109.993V120.258Z" fill="#2A7BE4"/>
<path opacity="0.46" d="M108.201 122.085H81.238V145.381H108.201V122.085Z" fill="#EDF2F8"/>
<path opacity="0.2" d="M89.2105 122.085L81.238 139.535V130.947L85.269 122.085H89.2105Z" fill="url(#paint5_linear_28_11137)"/>
<path opacity="0.2" d="M105.514 122.085L94.8543 145.381H91.2712L91.0024 145.29L101.573 122.085H105.514Z" fill="url(#paint6_linear_28_11137)"/>
<path opacity="0.2" d="M108.201 122.999L97.8997 145.381H95.929L106.678 122.085L108.201 122.999Z" fill="url(#paint7_linear_28_11137)"/>
<path opacity="0.56" d="M115.904 120.258V154.426H135.791V120.258H115.904Z" fill="#2A7BE4"/>
<path opacity="0.46" d="M133.999 122.085H117.696V137.616H133.999V122.085Z" fill="#EDF2F8"/>
<path opacity="0.46" d="M133.999 139.443H117.696V152.599H133.999V139.443Z" fill="#EDF2F8"/>
<path opacity="0.4" d="M98.3477 131.769L93.7793 128.48C93.7793 128.298 93.7793 128.115 93.7793 128.024C93.6897 127.567 93.2418 127.201 92.7939 127.293C92.2564 127.293 91.8085 127.749 91.8085 128.298C91.8085 128.572 91.8981 128.846 92.0773 129.028L89.5691 134.053C89.4795 134.144 89.5691 134.327 89.6587 134.327H89.7482C89.8378 134.327 89.9274 134.236 89.9274 134.236L92.4356 129.211C92.5252 129.211 92.6147 129.302 92.7043 129.302C92.9731 129.302 93.2418 129.12 93.4209 128.937L97.9894 132.226C98.079 132.317 98.2582 132.317 98.3477 132.135C98.4373 131.952 98.4373 131.769 98.3477 131.769Z" fill="#9DA8BA"/>
<path d="M100.766 137.616L90.1961 140.357C89.7482 140.448 89.3003 140.174 89.1211 139.717L88.0462 135.332C87.9566 134.875 88.2254 134.418 88.6733 134.236L99.2435 131.495C99.6914 131.404 100.139 131.678 100.318 132.135L101.393 136.52C101.483 136.976 101.214 137.433 100.766 137.616Z" fill="url(#paint8_linear_28_11137)"/>
<path d="M91.0914 136.155L97.9889 134.419C98.3473 134.327 98.7056 134.51 98.7951 134.876C98.8847 135.241 98.7056 135.606 98.3473 135.698L91.4498 137.434C91.0914 137.525 90.7331 137.342 90.6435 136.977C90.554 136.52 90.8227 136.246 91.0914 136.155Z" fill="white"/>
<path d="M116.98 138.986C117.326 138.986 117.607 138.7 117.607 138.347C117.607 137.993 117.326 137.707 116.98 137.707C116.634 137.707 116.353 137.993 116.353 138.347C116.353 138.7 116.634 138.986 116.98 138.986Z" fill="#EB5757"/>
<path d="M135.701 152.598H115.904V155.156H135.701V152.598Z" fill="#EDF2F8"/>
<path d="M136.865 155.156H114.471V157.714H136.865V155.156Z" fill="#F9FAFD"/>
<path d="M155.23 130.308C157.209 130.308 158.813 128.672 158.813 126.654C158.813 124.635 157.209 122.999 155.23 122.999C153.251 122.999 151.647 124.635 151.647 126.654C151.647 128.672 153.251 130.308 155.23 130.308Z" fill="#EB5757"/>
<path d="M156.036 148.122H154.334C153.975 148.122 153.617 148.396 153.528 148.762L152.453 154.426H157.917L156.842 148.762C156.752 148.396 156.394 148.122 156.036 148.122Z" fill="#D8E2EE"/>
<path d="M65.7411 124.004C65.4724 124.004 65.2932 123.821 65.2932 123.547V122.268C65.2932 121.994 65.4724 121.811 65.7411 121.811C66.0098 121.811 66.189 121.994 66.189 122.268V123.547C66.189 123.821 66.0098 124.004 65.7411 124.004Z" fill="#BCC5D6"/>
<path d="M65.7411 150.041C65.4724 150.041 65.2932 149.858 65.2932 149.584V131.769C65.2932 131.495 65.4724 131.312 65.7411 131.312C66.0098 131.312 66.189 131.495 66.189 131.769V149.492C66.189 149.858 66.0098 150.041 65.7411 150.041Z" fill="#BCC5D6"/>
<path d="M66.0998 132.5H65.5623C65.2936 132.5 65.1144 132.317 65.0248 132.043L64.6665 130.125C64.577 129.759 64.8457 129.485 65.204 129.485H66.5477C66.906 129.485 67.1747 129.759 67.0851 130.125L66.5477 132.043C66.5477 132.317 66.2789 132.5 66.0998 132.5Z" fill="#BCC5D6"/>
<path d="M65.7416 130.308C67.7205 130.308 69.3247 128.672 69.3247 126.654C69.3247 124.635 67.7205 122.999 65.7416 122.999C63.7627 122.999 62.1584 124.635 62.1584 126.654C62.1584 128.672 63.7627 130.308 65.7416 130.308Z" fill="#EB5757"/>
<path d="M66.6376 148.122H64.9356C64.5773 148.122 64.219 148.396 64.1294 148.762L63.0544 154.426H68.5187L67.4438 148.762C67.3542 148.396 66.9959 148.122 66.6376 148.122Z" fill="#D8E2EE"/>
<path opacity="0.3" d="M149.139 107.559H63.0544C63.2336 107.194 63.5919 106.829 64.0398 106.646L73.0872 102.352H142.421L148.333 106.554C148.691 106.829 148.96 107.194 149.139 107.559Z" fill="url(#paint9_linear_28_11137)"/>
<path d="M115.905 104.18H98.1687C94.7647 104.18 92.0774 101.348 92.0774 97.9674C92.0774 94.4958 94.8543 91.7551 98.1687 91.7551H115.905C119.309 91.7551 121.996 94.5872 121.996 97.9674C122.086 101.348 119.309 104.18 115.905 104.18Z" fill="#EB5757"/>
<path d="M94.0484 157.166C94.0484 157.257 94.0484 157.257 94.0484 157.166H64.9355C64.8459 156.801 64.8459 156.344 64.8459 155.978C64.8459 154.608 65.2043 153.329 65.8313 152.233C65.6521 151.776 65.5626 151.228 65.5626 150.68C65.5626 148.578 67.2646 146.751 69.4144 146.751C70.3998 146.751 71.3851 147.208 72.1018 147.848C72.1913 145.746 73.8933 144.193 75.9536 144.193C78.1035 144.193 79.8055 145.929 79.8055 148.122C79.8055 148.853 79.6263 149.492 79.268 150.04C80.1638 150.406 80.8804 151.136 81.2387 152.05C82.2241 152.05 83.1199 152.507 83.8365 153.146C84.0156 151.867 85.0906 150.954 86.4342 150.954C87.1509 150.954 87.7779 151.228 88.2258 151.685C88.4945 150.497 89.4799 149.675 90.734 149.675C92.1672 149.675 93.3318 150.862 93.3318 152.324C93.3318 153.146 92.9734 153.786 92.436 154.334C93.4213 154.791 94.2275 155.978 94.0484 157.166Z" fill="#00D27B"/>
<path d="M85.9153 147.969C86.0514 146.737 85.1825 145.625 83.9744 145.486C82.7664 145.347 81.6766 146.234 81.5405 147.466C81.4043 148.698 82.2733 149.809 83.4813 149.948C84.6894 150.087 85.7791 149.201 85.9153 147.969Z" fill="#EB5757"/>
<path d="M77.745 156.161C77.745 156.527 77.745 156.892 77.5659 157.257H69.4143C69.3247 156.892 69.2351 156.527 69.2351 156.161C69.2351 155.613 69.3247 155.065 69.5038 154.517C70.1309 152.964 71.6537 151.867 73.4453 151.867C75.2368 151.867 76.7597 153.055 77.3867 154.608C77.6554 155.065 77.745 155.613 77.745 156.161Z" fill="#48E8A6"/>
<path d="M81.5066 156.801C81.5066 156.984 81.5066 157.166 81.5066 157.258H76.4902C76.4902 157.075 76.4006 156.984 76.4006 156.801C76.4006 155.887 76.8485 155.157 77.5651 154.608C78.013 154.334 78.4609 154.152 78.9984 154.152C80.3421 154.152 81.5066 155.339 81.5066 156.801Z" fill="#48E8A6"/>
<path d="M70.3992 156.435C70.3992 156.709 70.3096 156.983 70.22 157.257H65.3828C65.3828 156.983 65.2932 156.709 65.2932 156.435C65.2932 154.974 66.4577 153.786 67.8014 153.786C68.518 153.786 69.1451 154.06 69.593 154.517C70.1304 154.974 70.3992 155.704 70.3992 156.435Z" fill="#48E8A6"/>
<path d="M89.8371 157.258H84.7312C84.7312 155.796 85.8957 154.608 87.329 154.608C88.7622 154.608 89.8371 155.796 89.8371 157.258Z" fill="#48E8A6"/>
<path d="M166.56 199.654C166.288 200.198 166.016 200.47 165.472 200.741L158.126 203.731C157.038 204.275 155.95 204.818 155.134 205.634C154.318 206.449 153.774 207.265 153.502 208.352L150.509 215.69C150.237 216.778 148.877 217.321 148.061 216.778C147.789 216.506 147.245 216.234 147.245 215.962L133.099 184.977C132.827 184.433 132.827 183.89 133.099 183.618C133.371 183.074 134.187 182.803 135.003 183.074L166.016 197.208C166.56 197.752 166.832 198.839 166.56 199.654Z" fill="#0B1828"/>
<path d="M171.998 218.68C171.726 218.68 171.454 218.68 171.182 218.408L161.117 208.08C160.573 207.536 160.573 206.721 161.117 206.449C161.661 205.906 162.477 205.906 162.749 206.449L172.815 216.506C173.359 217.049 173.359 217.865 172.815 218.137C172.815 218.68 172.271 218.68 171.998 218.68Z" fill="#0B1828"/>
<path d="M161.664 218.681C161.392 218.681 161.12 218.681 160.847 218.409L156.223 213.788C155.679 213.245 155.679 212.429 156.223 212.157C156.767 211.614 157.583 211.614 157.855 212.157L162.48 216.778C163.024 217.322 163.024 218.137 162.48 218.409C162.48 218.681 162.208 218.681 161.664 218.681Z" fill="#0B1828"/>
<path d="M154.862 205.635C154.046 206.45 153.501 207.266 153.229 208.353L150.237 215.691C149.965 216.779 148.605 217.322 147.789 216.779C147.517 216.507 146.973 216.235 146.973 215.963L132.826 184.978C132.554 184.434 132.554 183.891 132.826 183.619L154.862 205.635Z" fill="#0B1828"/>
<g filter="url(#filter2_d_28_11137)">
<path d="M370.318 253.199H280.544C275.103 253.199 270.479 248.85 270.479 243.143V117.027C270.479 111.591 274.831 106.971 280.544 106.971H370.318C375.759 106.971 380.383 111.32 380.383 117.027V243.143C380.383 248.85 376.031 253.199 370.318 253.199Z" fill="white"/>
</g>
<g filter="url(#filter3_d_28_11137)">
<path d="M294.953 184.404L289.822 178.58C287.599 176.011 287.599 172.414 289.822 169.844L294.782 164.02C295.808 162.821 297.347 162.136 298.886 162.136H360.793C361.99 162.136 362.845 162.992 362.845 164.192V184.404C362.845 185.603 361.99 186.46 360.793 186.46H299.057C297.518 186.46 295.979 185.775 294.953 184.404Z" fill="#D8E2EE"/>
</g>
<path d="M343.347 179.437V168.988C343.347 167.789 344.373 166.761 345.57 166.761H356.002C357.199 166.761 358.225 167.789 358.225 168.988V179.437C358.225 180.636 357.199 181.664 356.002 181.664H345.57C344.373 181.835 343.347 180.808 343.347 179.437Z" fill="#B6C2D2"/>
<path d="M323.683 179.437V168.988C323.683 167.789 324.709 166.761 325.906 166.761H336.338C337.535 166.761 338.561 167.789 338.561 168.988V179.437C338.561 180.636 337.535 181.664 336.338 181.664H325.906C324.88 181.835 323.683 180.808 323.683 179.437Z" fill="#B6C2D2"/>
<path d="M304.185 179.437V168.988C304.185 167.789 305.211 166.761 306.408 166.761H316.84C318.037 166.761 319.063 167.789 319.063 168.988V179.437C319.063 180.636 318.037 181.664 316.84 181.664H306.408C305.211 181.835 304.185 180.808 304.185 179.437Z" fill="#B6C2D2"/>
<g filter="url(#filter4_d_28_11137)">
<path d="M306.582 186.974L298.886 186.46C295.637 186.289 292.901 183.548 292.73 180.293L292.217 172.585C292.046 171.044 292.73 169.502 293.756 168.303L337.535 124.451C338.39 123.595 339.587 123.595 340.442 124.451L354.636 138.669C355.492 139.525 355.492 140.724 354.636 141.581L310.857 185.432C309.831 186.46 308.292 187.145 306.582 186.974Z" fill="#D8E2EE"/>
</g>
<path d="M337.365 149.117L330.011 141.752C329.156 140.895 329.156 139.354 330.011 138.497L337.365 131.131C338.22 130.275 339.759 130.275 340.614 131.131L347.968 138.497C348.823 139.354 348.823 140.895 347.968 141.752L340.614 149.117C339.759 149.974 338.22 149.974 337.365 149.117Z" fill="#B6C2D2"/>
<path d="M323.515 162.993L316.161 155.627C315.306 154.771 315.306 153.229 316.161 152.373L323.515 145.007C324.37 144.15 325.909 144.15 326.764 145.007L334.118 152.373C334.973 153.229 334.973 154.771 334.118 155.627L326.764 162.993C325.909 163.849 324.37 163.849 323.515 162.993Z" fill="white"/>
<path d="M309.66 176.867L302.306 169.501C301.451 168.645 301.451 167.103 302.306 166.247L309.66 158.881C310.515 158.025 312.054 158.025 312.909 158.881L320.262 166.247C321.118 167.103 321.118 168.645 320.262 169.501L312.909 176.867C312.054 177.724 310.686 177.724 309.66 176.867Z" fill="#B6C2D2"/>
<g filter="url(#filter5_d_28_11137)">
<path d="M310.514 179.78L304.699 184.747C302.134 186.974 298.543 186.974 295.978 184.747L290.163 179.78C288.966 178.752 288.282 177.21 288.282 175.669V113.66C288.282 112.461 289.137 111.604 290.334 111.604H310.343C311.54 111.604 312.395 112.461 312.395 113.66V175.669C312.395 177.21 311.711 178.752 310.514 179.78Z" fill="white"/>
</g>
<path d="M305.555 131.303H295.123C293.926 131.303 292.9 130.275 292.9 129.076V118.627C292.9 117.428 293.926 116.4 295.123 116.4H305.555C306.752 116.4 307.778 117.428 307.778 118.627V128.905C307.778 130.275 306.752 131.303 305.555 131.303Z" fill="#2A7BE4"/>
<path d="M305.555 150.831H295.123C293.926 150.831 292.9 149.804 292.9 148.605V138.156C292.9 136.956 293.926 135.929 295.123 135.929H305.555C306.752 135.929 307.778 136.956 307.778 138.156V148.605C307.778 149.804 306.752 150.831 305.555 150.831Z" fill="#E63756"/>
<path d="M305.555 170.358H295.123C293.926 170.358 292.9 169.33 292.9 168.131V157.682C292.9 156.483 293.926 155.456 295.123 155.456H305.555C306.752 155.456 307.778 156.483 307.778 157.682V168.131C307.778 169.33 306.752 170.358 305.555 170.358Z" fill="#D8E2EE"/>
<path d="M300.424 182.863C302.407 182.863 304.015 181.252 304.015 179.265C304.015 177.279 302.407 175.668 300.424 175.668C298.44 175.668 296.832 177.279 296.832 179.265C296.832 181.252 298.44 182.863 300.424 182.863Z" fill="#EDF2F8"/>
<g filter="url(#filter6_d_28_11137)">
<path d="M341.183 222.129C340.852 223.536 340.357 224.943 339.779 226.184C338.211 229.163 335.817 231.562 332.846 233.052C329.791 234.624 326.159 235.203 322.445 234.459C313.86 232.638 308.33 224.281 310.146 215.675C311.962 207.07 320.299 201.526 328.883 203.346C331.938 204.008 334.662 205.497 336.89 207.649C340.687 211.455 342.256 216.916 341.183 222.129Z" fill="url(#paint10_linear_28_11137)"/>
</g>
<path d="M339.768 226.175C338.199 229.154 335.805 231.554 332.834 233.043L319.462 219.638L321.938 218.645L326.478 218.397H332.008L339.768 226.175Z" fill="url(#paint11_linear_28_11137)"/>
<path d="M330.688 217.487H327.056V213.846C327.056 213.102 326.478 212.439 325.653 212.439C324.91 212.439 324.249 213.019 324.249 213.846V217.487H320.617C319.874 217.487 319.214 218.066 319.214 218.894C319.214 219.721 319.792 220.3 320.617 220.3H324.249V223.941C324.249 224.686 324.827 225.348 325.653 225.348C326.396 225.348 327.056 224.769 327.056 223.941V220.3H330.688C331.431 220.3 332.091 219.721 332.091 218.894C332.091 218.066 331.431 217.487 330.688 217.487Z" fill="url(#paint12_linear_28_11137)"/>
<path opacity="0.84" d="M355.628 64.842C357.13 64.842 358.348 63.6251 358.348 62.124C358.348 60.6229 357.13 59.406 355.628 59.406C354.125 59.406 352.907 60.6229 352.907 62.124C352.907 63.6251 354.125 64.842 355.628 64.842Z" fill="url(#paint13_linear_28_11137)"/>
<path opacity="0.52" d="M119.497 253.471C120.999 253.471 122.217 252.254 122.217 250.753C122.217 249.252 120.999 248.035 119.497 248.035C117.994 248.035 116.776 249.252 116.776 250.753C116.776 252.254 117.994 253.471 119.497 253.471Z" fill="#00D27B"/>
<path opacity="0.68" d="M67 268C70.0376 268 72.5 265.538 72.5 262.5C72.5 259.462 70.0376 257 67 257C63.9624 257 61.5 259.462 61.5 262.5C61.5 265.538 63.9624 268 67 268Z" fill="url(#paint14_linear_28_11137)"/>
</g>
<defs>
<filter id="filter0_d_28_11137" x="-15.8952" y="42.8417" width="247.385" height="269.019" filterUnits="userSpaceOnUse" color-interpolation-filters="sRGB">
<feFlood flood-opacity="0" result="BackgroundImageFix"/>
<feColorMatrix in="SourceAlpha" type="matrix" values="0 0 0 0 0 0 0 0 0 0 0 0 0 0 0 0 0 0 127 0" result="hardAlpha"/>
<feOffset dy="30.6976"/>
<feGaussianBlur stdDeviation="30.6976"/>
<feColorMatrix type="matrix" values="0 0 0 0 0.397708 0 0 0 0 0.47749 0 0 0 0 0.575 0 0 0 0.18 0"/>
<feBlend mode="normal" in2="BackgroundImageFix" result="effect1_dropShadow_28_11137"/>
<feBlend mode="normal" in="SourceGraphic" in2="effect1_dropShadow_28_11137" result="shape"/>
</filter>
<filter id="filter1_d_28_11137" x="68.8186" y="101.358" width="77.3333" height="58.9768" filterUnits="userSpaceOnUse" color-interpolation-filters="sRGB">
<feFlood flood-opacity="0" result="BackgroundImageFix"/>
<feColorMatrix in="SourceAlpha" type="matrix" values="0 0 0 0 0 0 0 0 0 0 0 0 0 0 0 0 0 0 127 0" result="hardAlpha"/>
<feOffset dy="2"/>
<feGaussianBlur stdDeviation="2"/>
<feColorMatrix type="matrix" values="0 0 0 0 0 0 0 0 0 0 0 0 0 0 0 0 0 0 0.075 0"/>
<feBlend mode="normal" in2="BackgroundImageFix" result="effect1_dropShadow_28_11137"/>
<feBlend mode="normal" in="SourceGraphic" in2="effect1_dropShadow_28_11137" result="shape"/>
</filter>
<filter id="filter2_d_28_11137" x="209.083" y="76.2731" width="232.695" height="269.019" filterUnits="userSpaceOnUse" color-interpolation-filters="sRGB">
<feFlood flood-opacity="0" result="BackgroundImageFix"/>
<feColorMatrix in="SourceAlpha" type="matrix" values="0 0 0 0 0 0 0 0 0 0 0 0 0 0 0 0 0 0 127 0" result="hardAlpha"/>
<feOffset dy="30.6976"/>
<feGaussianBlur stdDeviation="30.6976"/>
<feColorMatrix type="matrix" values="0 0 0 0 0.397708 0 0 0 0 0.47749 0 0 0 0 0.575 0 0 0 0.18 0"/>
<feBlend mode="normal" in2="BackgroundImageFix" result="effect1_dropShadow_28_11137"/>
<feBlend mode="normal" in="SourceGraphic" in2="effect1_dropShadow_28_11137" result="shape"/>
</filter>
<filter id="filter3_d_28_11137" x="232.6" y="134.358" width="185.801" height="135.434" filterUnits="userSpaceOnUse" color-interpolation-filters="sRGB">
<feFlood flood-opacity="0" result="BackgroundImageFix"/>
<feColorMatrix in="SourceAlpha" type="matrix" values="0 0 0 0 0 0 0 0 0 0 0 0 0 0 0 0 0 0 127 0" result="hardAlpha"/>
<feOffset dy="27.7777"/>
<feGaussianBlur stdDeviation="27.7777"/>
<feColorMatrix type="matrix" values="0 0 0 0 0.397708 0 0 0 0 0.47749 0 0 0 0 0.575 0 0 0 0.18 0"/>
<feBlend mode="normal" in2="BackgroundImageFix" result="effect1_dropShadow_28_11137"/>
<feBlend mode="normal" in="SourceGraphic" in2="effect1_dropShadow_28_11137" result="shape"/>
</filter>
<filter id="filter4_d_28_11137" x="236.635" y="96.0314" width="174.198" height="174.302" filterUnits="userSpaceOnUse" color-interpolation-filters="sRGB">
<feFlood flood-opacity="0" result="BackgroundImageFix"/>
<feColorMatrix in="SourceAlpha" type="matrix" values="0 0 0 0 0 0 0 0 0 0 0 0 0 0 0 0 0 0 127 0" result="hardAlpha"/>
<feOffset dy="27.7777"/>
<feGaussianBlur stdDeviation="27.7777"/>
<feColorMatrix type="matrix" values="0 0 0 0 0.397708 0 0 0 0 0.47749 0 0 0 0 0.575 0 0 0 0.18 0"/>
<feBlend mode="normal" in2="BackgroundImageFix" result="effect1_dropShadow_28_11137"/>
<feBlend mode="normal" in="SourceGraphic" in2="effect1_dropShadow_28_11137" result="shape"/>
</filter>
<filter id="filter5_d_28_11137" x="232.727" y="83.8268" width="135.223" height="185.923" filterUnits="userSpaceOnUse" color-interpolation-filters="sRGB">
<feFlood flood-opacity="0" result="BackgroundImageFix"/>
<feColorMatrix in="SourceAlpha" type="matrix" values="0 0 0 0 0 0 0 0 0 0 0 0 0 0 0 0 0 0 127 0" result="hardAlpha"/>
<feOffset dy="27.7777"/>
<feGaussianBlur stdDeviation="27.7777"/>
<feColorMatrix type="matrix" values="0 0 0 0 0.397708 0 0 0 0 0.47749 0 0 0 0 0.575 0 0 0 0.18 0"/>
<feBlend mode="normal" in2="BackgroundImageFix" result="effect1_dropShadow_28_11137"/>
<feBlend mode="normal" in="SourceGraphic" in2="effect1_dropShadow_28_11137" result="shape"/>
</filter>
<filter id="filter6_d_28_11137" x="294.568" y="197.288" width="62.1783" height="62.2465" filterUnits="userSpaceOnUse" color-interpolation-filters="sRGB">
<feFlood flood-opacity="0" result="BackgroundImageFix"/>
<feColorMatrix in="SourceAlpha" type="matrix" values="0 0 0 0 0 0 0 0 0 0 0 0 0 0 0 0 0 0 127 0" result="hardAlpha"/>
<feOffset dy="9.52061"/>
<feGaussianBlur stdDeviation="7.61649"/>
<feColorMatrix type="matrix" values="0 0 0 0 0.1125 0 0 0 0 0.295916 0 0 0 0 1 0 0 0 0.22 0"/>
<feBlend mode="normal" in2="BackgroundImageFix" result="effect1_dropShadow_28_11137"/>
<feBlend mode="normal" in="SourceGraphic" in2="effect1_dropShadow_28_11137" result="shape"/>
</filter>
<linearGradient id="paint0_linear_28_11137" x1="208.971" y1="278.673" x2="208.971" y2="236.277" gradientUnits="userSpaceOnUse">
<stop stop-color="#F2F4F8"/>
<stop offset="0.9913" stop-color="#D7E1ED"/>
</linearGradient>
<linearGradient id="paint1_linear_28_11137" x1="149.926" y1="175.427" x2="42.6938" y2="175.427" gradientUnits="userSpaceOnUse">
<stop offset="0.00651336" stop-color="#748194" stop-opacity="0"/>
<stop offset="1" stop-color="#748194"/>
</linearGradient>
<linearGradient id="paint2_linear_28_11137" x1="107.079" y1="195.659" x2="45.8947" y2="195.659" gradientUnits="userSpaceOnUse">
<stop offset="0.00651336" stop-color="#748194" stop-opacity="0"/>
<stop offset="1" stop-color="#748194"/>
</linearGradient>
<linearGradient id="paint3_linear_28_11137" x1="129.204" y1="157.269" x2="146.808" y2="152.812" gradientUnits="userSpaceOnUse">
<stop stop-color="#344050"/>
<stop offset="1" stop-color="#344050" stop-opacity="0"/>
</linearGradient>
<linearGradient id="paint4_linear_28_11137" x1="254.214" y1="106.908" x2="235.2" y2="164.922" gradientUnits="userSpaceOnUse">
<stop stop-color="#1970E2"/>
<stop offset="0.0001" stop-color="#1970E2"/>
<stop offset="1" stop-color="#86BAFF"/>
</linearGradient>
<linearGradient id="paint5_linear_28_11137" x1="81.8837" y1="136.585" x2="91.7771" y2="132.065" gradientUnits="userSpaceOnUse">
<stop stop-color="#1970E2"/>
<stop offset="0.0001" stop-color="#1970E2"/>
<stop offset="1" stop-color="#4695FF"/>
</linearGradient>
<linearGradient id="paint6_linear_28_11137" x1="92.1777" y1="141.444" x2="107.86" y2="131.675" gradientUnits="userSpaceOnUse">
<stop stop-color="#1970E2"/>
<stop offset="0.0001" stop-color="#1970E2"/>
<stop offset="1" stop-color="#4695FF"/>
</linearGradient>
<linearGradient id="paint7_linear_28_11137" x1="96.9228" y1="141.444" x2="111.332" y2="133.853" gradientUnits="userSpaceOnUse">
<stop stop-color="#1970E2"/>
<stop offset="0.0001" stop-color="#1970E2"/>
<stop offset="1" stop-color="#4695FF"/>
</linearGradient>
<linearGradient id="paint8_linear_28_11137" x1="117.639" y1="134.535" x2="97.6195" y2="148.893" gradientUnits="userSpaceOnUse">
<stop stop-color="#1970E2"/>
<stop offset="0.0001" stop-color="#1970E2"/>
<stop offset="1" stop-color="#86BAFF"/>
</linearGradient>
<linearGradient id="paint9_linear_28_11137" x1="106.251" y1="99.554" x2="106.251" y2="109.359" gradientUnits="userSpaceOnUse">
<stop stop-color="#5F7DA9"/>
<stop offset="1" stop-color="#4D617D" stop-opacity="0"/>
</linearGradient>
<linearGradient id="paint10_linear_28_11137" x1="379.974" y1="213.923" x2="321.389" y2="241.796" gradientUnits="userSpaceOnUse">
<stop stop-color="#1970E2"/>
<stop offset="0.0001" stop-color="#1970E2"/>
<stop offset="1" stop-color="#86BAFF"/>
</linearGradient>
<linearGradient id="paint11_linear_28_11137" x1="322.766" y1="215.541" x2="336.92" y2="223.587" gradientUnits="userSpaceOnUse">
<stop stop-color="#1970E2"/>
<stop offset="0.0001" stop-color="#4392FC"/>
<stop offset="1" stop-color="#4293FF" stop-opacity="0"/>
</linearGradient>
<linearGradient id="paint12_linear_28_11137" x1="329.647" y1="222.895" x2="322.84" y2="216.104" gradientUnits="userSpaceOnUse">
<stop offset="0.0113208" stop-color="#C2DEFF"/>
<stop offset="1" stop-color="white"/>
</linearGradient>
<linearGradient id="paint13_linear_28_11137" x1="351.889" y1="62.1093" x2="358.366" y2="62.1093" gradientUnits="userSpaceOnUse">
<stop stop-color="#E63756"/>
<stop offset="1" stop-color="#FC97A9"/>
</linearGradient>
<linearGradient id="paint14_linear_28_11137" x1="59.4399" y1="262.47" x2="72.5367" y2="262.47" gradientUnits="userSpaceOnUse">
<stop stop-color="#E63756"/>
<stop offset="1" stop-color="#FC97A9"/>
</linearGradient>
<clipPath id="clip0_28_11137">
<rect width="425" height="330" fill="white" transform="translate(0.5)"/>
</clipPath>
</defs>
</svg>
