<svg width="426" height="330" viewBox="0 0 426 330" fill="none" xmlns="http://www.w3.org/2000/svg">
<path opacity="0.1" d="M204.9 310.2C285.018 310.2 349.967 245.013 349.967 164.6C349.967 84.1874 285.018 19 204.9 19C124.782 19 59.8333 84.1874 59.8333 164.6C59.8333 245.013 124.782 310.2 204.9 310.2Z" fill="#9DA8BA"/>
<path d="M258.673 291.153C240.684 291.661 218.895 291.153 203.693 290.899C188.491 291.153 166.702 291.661 148.713 291.153C166.448 280.994 172.782 261.947 173.796 249.502H233.59C234.857 261.947 240.938 280.994 258.673 291.153Z" fill="url(#paint0_linear_28_11833)"/>
<path d="M150.485 294.2H257.152C258.672 294.2 259.939 292.93 259.939 291.406C259.939 289.882 258.672 288.613 257.152 288.613H150.485C148.965 288.613 147.698 289.882 147.698 291.406C147.698 292.93 148.965 294.2 150.485 294.2Z" fill="#EBF0F6"/>
<path d="M316.949 91.0252V247.47C316.949 251.279 313.909 254.073 310.361 254.073H98.0416C94.2411 254.073 91.4541 251.025 91.4541 247.47V91.0252C91.4541 87.2157 94.4945 84.422 98.0416 84.422H310.361C313.909 84.1681 316.949 87.2157 316.949 91.0252Z" fill="#F9FAFD"/>
<path d="M316.949 91.0252V225.628H91.4541V91.0252C91.4541 87.2157 94.4945 84.422 98.0416 84.422H310.361C313.909 84.1681 316.949 87.2157 316.949 91.0252Z" fill="#172D45"/>
<path d="M308.332 92.8032H99.052V218.264H308.332V92.8032Z" fill="white"/>
<path d="M111.471 107.026C113.29 107.026 114.764 105.548 114.764 103.724C114.764 101.901 113.29 100.423 111.471 100.423C109.652 100.423 108.177 101.901 108.177 103.724C108.177 105.548 109.652 107.026 111.471 107.026Z" fill="#E63756"/>
<path d="M122.11 107.026C123.929 107.026 125.404 105.548 125.404 103.724C125.404 101.901 123.929 100.423 122.11 100.423C120.291 100.423 118.817 101.901 118.817 103.724C118.817 105.548 120.291 107.026 122.11 107.026Z" fill="#F68F57"/>
<path d="M132.752 107.026C134.571 107.026 136.046 105.548 136.046 103.724C136.046 101.901 134.571 100.423 132.752 100.423C130.933 100.423 129.458 101.901 129.458 103.724C129.458 105.548 130.933 107.026 132.752 107.026Z" fill="#00D27B"/>
<path d="M308.332 114.644H144.151H110.707H99.052V218.263H144.151V116.168H308.332V114.644Z" fill="#EDF2F8"/>
<path d="M122.112 136.993C125.19 136.993 127.686 134.492 127.686 131.406C127.686 128.32 125.19 125.819 122.112 125.819C119.033 125.819 116.538 128.32 116.538 131.406C116.538 134.492 119.033 136.993 122.112 136.993Z" fill="white"/>
<path d="M137.316 145.375H106.658C105.898 145.375 105.392 144.867 105.392 144.105C105.392 143.343 105.898 142.835 106.658 142.835H137.316C138.076 142.835 138.582 143.343 138.582 144.105C138.836 144.613 138.076 145.375 137.316 145.375Z" fill="white"/>
<path d="M137.316 153.247H106.658C105.898 153.247 105.392 152.74 105.392 151.978C105.392 151.216 105.898 150.708 106.658 150.708H137.316C138.076 150.708 138.582 151.216 138.582 151.978C138.836 152.486 138.076 153.247 137.316 153.247Z" fill="white"/>
<path d="M137.316 161.121H106.658C105.898 161.121 105.392 160.613 105.392 159.851C105.392 159.089 105.898 158.581 106.658 158.581H137.316C138.076 158.581 138.582 159.089 138.582 159.851C138.836 160.359 138.076 161.121 137.316 161.121Z" fill="white"/>
<path d="M137.316 168.994H106.658C105.898 168.994 105.392 168.486 105.392 167.724C105.392 166.962 105.898 166.454 106.658 166.454H137.316C138.076 166.454 138.582 166.962 138.582 167.724C138.836 168.232 138.076 168.994 137.316 168.994Z" fill="white"/>
<path d="M137.316 176.866H106.658C105.898 176.866 105.392 176.358 105.392 175.596C105.392 174.834 105.898 174.326 106.658 174.326H137.316C138.076 174.326 138.582 174.834 138.582 175.596C138.836 176.104 138.076 176.866 137.316 176.866Z" fill="white"/>
<path d="M122.62 184.739H106.405C105.898 184.739 105.392 184.232 105.392 183.724V182.962C105.392 182.454 105.898 181.946 106.405 181.946H122.62C123.127 181.946 123.634 182.454 123.634 182.962V183.724C123.381 184.232 123.127 184.739 122.62 184.739Z" fill="white"/>
<path d="M203.695 246.2C206.773 246.2 209.269 243.699 209.269 240.613C209.269 237.527 206.773 235.026 203.695 235.026C200.616 235.026 198.121 237.527 198.121 240.613C198.121 243.699 200.616 246.2 203.695 246.2Z" fill="#D8E2EE"/>
<g filter="url(#filter0_d_28_11833)">
<path d="M358.499 82.3904C358.499 84.9301 358.246 87.2158 357.739 89.7555C357.739 90.0095 357.739 90.0095 357.739 90.2634C355.205 100.93 347.351 109.819 337.47 113.629C336.963 113.882 336.71 113.882 336.203 114.136C332.909 115.406 329.362 115.914 325.562 115.914C307.319 115.914 292.371 100.93 292.371 82.6444C292.371 64.3586 307.319 49.3745 325.562 49.3745C343.804 49.3745 358.499 64.1047 358.499 82.3904Z" fill="url(#paint1_linear_28_11833)"/>
</g>
<path d="M357.743 89.7551C357.743 90.0091 357.743 90.0091 357.743 90.263C355.209 100.93 347.355 109.819 337.473 113.628C336.967 113.882 336.713 113.882 336.207 114.136L315.177 93.0567L318.218 82.39L317.964 78.3265L323.538 69.4376L328.859 66.8979L339.754 71.4694L357.743 89.7551Z" fill="url(#paint2_linear_28_11833)"/>
<path d="M169.743 172.804H158.089V200.995H169.743V172.804Z" fill="#D8E2EE"/>
<path d="M198.375 159.851H186.72V200.994H198.375V159.851Z" fill="#D8E2EE"/>
<path d="M227.006 172.804H215.351V200.995H227.006V172.804Z" fill="#D8E2EE"/>
<path d="M255.635 140.043H243.98V200.995H255.635V140.043Z" fill="#D8E2EE"/>
<path d="M284.264 159.09H272.609V200.994H284.264V159.09Z" fill="#D8E2EE"/>
<path d="M169.743 194.646H158.089V200.995H169.743V194.646Z" fill="#B6C2D2"/>
<path d="M198.375 191.851H186.72V200.994H198.375V191.851Z" fill="#B6C2D2"/>
<path d="M227.006 194.646H215.351V200.995H227.006V194.646Z" fill="#B6C2D2"/>
<path d="M255.635 187.281H243.98V200.995H255.635V187.281Z" fill="#B6C2D2"/>
<path d="M284.264 191.597H272.609V200.994H284.264V191.597Z" fill="#B6C2D2"/>
<g filter="url(#filter1_d_28_11833)">
<path d="M164.929 196.677C159.862 196.677 155.555 195.153 153.021 194.391C150.994 193.629 149.981 191.598 150.488 189.566C151.248 187.534 153.275 186.518 155.301 187.026C162.142 189.312 170.25 191.09 177.344 183.217L179.371 180.931C188.492 171.026 193.813 165.185 210.535 174.328C223.963 181.947 228.777 179.153 234.098 170.518C236.125 166.963 237.645 163.153 239.165 159.598C241.952 152.486 244.739 145.121 252.34 146.137H252.847C260.195 146.899 269.062 147.915 280.21 132.423C281.731 130.137 283.251 128.613 284.518 127.344C286.038 125.82 288.571 126.074 289.838 127.598C291.359 129.121 291.105 131.661 289.585 132.931C288.571 133.693 287.558 135.217 286.291 136.994C272.863 155.788 259.941 154.518 252.087 153.756H251.58C249.807 153.502 248.286 156.804 246.26 162.391C244.739 166.201 243.219 170.518 240.686 174.582C232.578 188.042 222.697 189.82 206.988 181.185C195.587 174.836 194.066 176.613 185.199 186.264L182.918 188.804C177.091 195.153 170.503 196.677 164.929 196.677Z" fill="url(#paint3_linear_28_11833)"/>
</g>
<path d="M173.8 134.455H158.345C157.078 134.455 156.318 133.439 156.318 132.424C156.318 131.154 157.331 130.392 158.345 130.392H173.8C175.067 130.392 175.827 131.408 175.827 132.424C175.827 133.693 174.813 134.455 173.8 134.455Z" fill="#D8E2EE"/>
<path d="M187.735 144.36H158.345C157.078 144.36 156.318 143.344 156.318 142.328C156.318 141.058 157.331 140.296 158.345 140.296H187.482C188.748 140.296 189.508 141.312 189.508 142.328C189.762 143.344 188.748 144.36 187.735 144.36Z" fill="#D8E2EE"/>
<g filter="url(#filter2_d_28_11833)">
<path d="M105.736 210.433C105.736 214.243 105.229 217.799 104.216 221.1C100.415 234.053 89.774 243.957 76.3456 247.005C73.812 247.513 71.2783 247.767 68.4913 247.767C48.2221 247.767 31.5 231.005 31.5 210.433C31.5 189.862 48.2221 173.1 68.7447 173.1C89.2672 173.1 105.736 189.862 105.736 210.433Z" fill="url(#paint4_linear_28_11833)"/>
</g>
<path d="M104.218 221.101C100.418 234.053 89.7763 243.958 76.348 247.006L53.5451 224.149L56.5855 221.355L53.2917 218.053L58.359 214.244L78.1215 200.529L80.4018 197.736L104.218 221.101Z" fill="url(#paint5_linear_28_11833)"/>
<path d="M76.2261 209.405H79.7732C80.5333 209.405 81.04 209.913 81.04 210.675V223.373C81.04 224.135 80.5333 224.643 79.7732 224.643H76.2261C75.466 224.643 74.9592 224.135 74.9592 223.373V210.675C74.9592 209.913 75.466 209.405 76.2261 209.405Z" fill="url(#paint6_linear_28_11833)"/>
<path d="M65.5845 215.755H69.1316C69.8917 215.755 70.3984 216.263 70.3984 217.025V223.374C70.3984 224.136 69.8917 224.644 69.1316 224.644H65.5845C64.8244 224.644 64.3176 224.136 64.3176 223.374V217.025C64.3176 216.263 64.8244 215.755 65.5845 215.755Z" fill="url(#paint7_linear_28_11833)"/>
<path d="M54.9425 220.835H58.4896C59.2497 220.835 59.7564 221.343 59.7564 222.105V223.374C59.7564 224.136 59.2497 224.644 58.4896 224.644H54.9425C54.1824 224.644 53.6757 224.136 53.6757 223.374V222.105C53.4223 221.343 54.1824 220.835 54.9425 220.835Z" fill="url(#paint8_linear_28_11833)"/>
<path d="M80.0242 196.961C80.531 196.961 81.0377 197.469 81.0377 197.977V204.58C81.0377 204.834 80.7843 205.088 80.531 205.088H78.504C78.2507 205.088 77.9973 204.834 77.9973 204.58V202.04C71.1565 208.644 63.0488 213.977 54.181 217.786C53.9276 217.786 53.9276 217.786 53.6743 217.786L53.4209 217.532V215.247C53.4209 214.993 53.6743 214.739 53.9276 214.739C62.0353 211.183 69.6363 206.104 75.9704 199.755H73.1834C72.93 199.755 72.6767 199.501 72.6767 199.247V197.215C72.6767 196.961 72.93 196.707 73.1834 196.707L80.0242 196.961Z" fill="url(#paint9_linear_28_11833)"/>
<path d="M338.112 83.5382H326.458C325.951 83.5382 325.444 83.0303 325.444 82.5223V70.8398C325.444 69.8239 324.684 69.316 323.924 69.062H323.671C315.816 70.0779 310.496 77.443 311.509 85.316C312.523 93.189 319.87 98.5223 327.724 97.5065C334.059 96.7446 339.126 91.6652 339.886 85.316C339.886 84.5541 339.126 83.5382 338.112 83.5382C338.366 83.5382 338.112 83.5382 338.112 83.5382Z" fill="url(#paint10_linear_28_11833)"/>
<path d="M328.483 67.7923V79.2209C328.483 79.9828 328.99 80.4907 329.75 80.4907H341.152C341.912 80.4907 342.418 79.9828 342.418 79.2209C341.912 72.8717 336.338 66.7765 329.75 66.5225C328.99 66.2685 328.483 66.7765 328.483 67.7923C328.483 67.7923 328.483 67.5384 328.483 67.7923Z" fill="white"/>
<path d="M77.7708 290.898H336.71" stroke="#F9FAFD" stroke-width="5" stroke-miterlimit="10" stroke-linecap="round" stroke-linejoin="round"/>
<path opacity="0.89" d="M31.9534 147.921C34.3111 147.921 36.4068 146.085 36.4068 143.461C36.4068 141.099 34.5731 139 31.9534 139C29.3338 139 27.5 140.837 27.5 143.461C27.5 145.822 29.3338 147.921 31.9534 147.921Z" fill="url(#paint11_linear_28_11833)"/>
<path opacity="0.73" d="M395.429 275C397.64 275 399.359 276.722 399.359 278.936C399.359 281.15 397.64 282.872 395.429 282.872C393.219 282.872 391.5 281.15 391.5 278.936C391.746 276.722 393.465 275 395.429 275Z" fill="url(#paint12_linear_28_11833)"/>
<path opacity="0.44" d="M385 173C388.656 173 391.5 175.844 391.5 179.5C391.5 183.156 388.656 186 385 186C381.344 186 378.5 183.156 378.5 179.5C378.906 175.844 381.75 173 385 173Z" fill="url(#paint13_linear_28_11833)"/>
<defs>
<filter id="filter0_d_28_11833" x="272.371" y="41.8745" width="106.128" height="106.54" filterUnits="userSpaceOnUse" color-interpolation-filters="sRGB">
<feFlood flood-opacity="0" result="BackgroundImageFix"/>
<feColorMatrix in="SourceAlpha" type="matrix" values="0 0 0 0 0 0 0 0 0 0 0 0 0 0 0 0 0 0 127 0" result="hardAlpha"/>
<feOffset dy="12.5"/>
<feGaussianBlur stdDeviation="10"/>
<feColorMatrix type="matrix" values="0 0 0 0 0.901961 0 0 0 0 0.215686 0 0 0 0 0.337255 0 0 0 0.33 0"/>
<feBlend mode="normal" in2="BackgroundImageFix" result="effect1_dropShadow_28_11833"/>
<feBlend mode="normal" in="SourceGraphic" in2="effect1_dropShadow_28_11833" result="shape"/>
</filter>
<filter id="filter1_d_28_11833" x="130.358" y="118.82" width="180.501" height="110.357" filterUnits="userSpaceOnUse" color-interpolation-filters="sRGB">
<feFlood flood-opacity="0" result="BackgroundImageFix"/>
<feColorMatrix in="SourceAlpha" type="matrix" values="0 0 0 0 0 0 0 0 0 0 0 0 0 0 0 0 0 0 127 0" result="hardAlpha"/>
<feOffset dy="12.5"/>
<feGaussianBlur stdDeviation="10"/>
<feColorMatrix type="matrix" values="0 0 0 0 0.1125 0 0 0 0 0.295916 0 0 0 0 1 0 0 0 0.22 0"/>
<feBlend mode="normal" in2="BackgroundImageFix" result="effect1_dropShadow_28_11833"/>
<feBlend mode="normal" in="SourceGraphic" in2="effect1_dropShadow_28_11833" result="shape"/>
</filter>
<filter id="filter2_d_28_11833" x="11.5" y="165.6" width="114.236" height="114.667" filterUnits="userSpaceOnUse" color-interpolation-filters="sRGB">
<feFlood flood-opacity="0" result="BackgroundImageFix"/>
<feColorMatrix in="SourceAlpha" type="matrix" values="0 0 0 0 0 0 0 0 0 0 0 0 0 0 0 0 0 0 127 0" result="hardAlpha"/>
<feOffset dy="12.5"/>
<feGaussianBlur stdDeviation="10"/>
<feColorMatrix type="matrix" values="0 0 0 0 0 0 0 0 0 0.803922 0 0 0 0 0.466667 0 0 0 0.21 0"/>
<feBlend mode="normal" in2="BackgroundImageFix" result="effect1_dropShadow_28_11833"/>
<feBlend mode="normal" in="SourceGraphic" in2="effect1_dropShadow_28_11833" result="shape"/>
</filter>
<linearGradient id="paint0_linear_28_11833" x1="203.687" y1="290.024" x2="203.687" y2="252.696" gradientUnits="userSpaceOnUse">
<stop stop-color="#F9FAFD"/>
<stop offset="0.9913" stop-color="#D8E2EE"/>
</linearGradient>
<linearGradient id="paint1_linear_28_11833" x1="353.7" y1="111.267" x2="292.367" y2="55.8" gradientUnits="userSpaceOnUse">
<stop stop-color="#E63756"/>
<stop offset="1" stop-color="#FC97A9"/>
</linearGradient>
<linearGradient id="paint2_linear_28_11833" x1="321.597" y1="76.6856" x2="346.803" y2="101.832" gradientUnits="userSpaceOnUse">
<stop stop-color="#E63756"/>
<stop offset="1" stop-color="#E63756" stop-opacity="0"/>
</linearGradient>
<linearGradient id="paint3_linear_28_11833" x1="241.684" y1="196.677" x2="253.773" y2="128.462" gradientUnits="userSpaceOnUse">
<stop stop-color="#1970E2"/>
<stop offset="0.0001" stop-color="#1970E2"/>
<stop offset="1" stop-color="#4695FF"/>
</linearGradient>
<linearGradient id="paint4_linear_28_11833" x1="41.0266" y1="179.467" x2="95.3461" y2="242.219" gradientUnits="userSpaceOnUse">
<stop stop-color="#00D27B"/>
<stop offset="1" stop-color="#02C06D"/>
</linearGradient>
<linearGradient id="paint5_linear_28_11833" x1="68.7458" y1="212.302" x2="91.3227" y2="234.825" gradientUnits="userSpaceOnUse">
<stop stop-color="#00AE66"/>
<stop offset="1" stop-color="#00AE66" stop-opacity="0"/>
</linearGradient>
<linearGradient id="paint6_linear_28_11833" x1="82.2235" y1="221.26" x2="67.7341" y2="206.805" gradientUnits="userSpaceOnUse">
<stop offset="0.0113208" stop-color="#C2FFC8"/>
<stop offset="1" stop-color="white"/>
</linearGradient>
<linearGradient id="paint7_linear_28_11833" x1="75.3193" y1="228.181" x2="60.8299" y2="213.726" gradientUnits="userSpaceOnUse">
<stop offset="0.0113208" stop-color="#C2FFD3"/>
<stop offset="1" stop-color="white"/>
</linearGradient>
<linearGradient id="paint8_linear_28_11833" x1="68.6906" y1="234.825" x2="54.2012" y2="220.37" gradientUnits="userSpaceOnUse">
<stop offset="0.0113208" stop-color="#C2FFC8"/>
<stop offset="1" stop-color="white"/>
</linearGradient>
<linearGradient id="paint9_linear_28_11833" x1="81.4732" y1="222.01" x2="66.9841" y2="207.555" gradientUnits="userSpaceOnUse">
<stop offset="0.0113208" stop-color="#C2FFCF"/>
<stop offset="1" stop-color="white"/>
</linearGradient>
<linearGradient id="paint10_linear_28_11833" x1="334.267" y1="95.6365" x2="314.879" y2="76.2954" gradientUnits="userSpaceOnUse">
<stop offset="0.0113208" stop-color="#FFC9E3"/>
<stop offset="1" stop-color="white"/>
</linearGradient>
<linearGradient id="paint11_linear_28_11833" x1="25.8319" y1="143.437" x2="36.4366" y2="143.437" gradientUnits="userSpaceOnUse">
<stop stop-color="#E63756"/>
<stop offset="1" stop-color="#FC97A9"/>
</linearGradient>
<linearGradient id="paint12_linear_28_11833" x1="408.89" y1="280.167" x2="394.374" y2="273.257" gradientUnits="userSpaceOnUse">
<stop stop-color="#1970E2"/>
<stop offset="0.0001" stop-color="#1970E2"/>
<stop offset="1" stop-color="#86BAFF"/>
</linearGradient>
<linearGradient id="paint13_linear_28_11833" x1="378.5" y1="176" x2="402.5" y2="191.5" gradientUnits="userSpaceOnUse">
<stop stop-color="#00D27B"/>
<stop offset="1" stop-color="#00D27B" stop-opacity="0"/>
</linearGradient>
</defs>
</svg>
