<svg width="426" height="330" viewBox="0 0 426 330" fill="none" xmlns="http://www.w3.org/2000/svg">
<path d="M293.542 268.139C294.403 267.705 294.833 267.271 295.694 266.837" stroke="#FF78B7" stroke-width="0.862764" stroke-linecap="round" stroke-linejoin="round"/>
<path d="M304.304 260.765C311.19 255.559 318.075 250.353 323.669 243.846C332.276 234.302 338.731 221.721 338.301 208.706C338.301 199.595 334.858 190.919 331.416 182.242C327.973 174 324.1 165.323 322.809 156.213C321.518 147.102 322.809 137.124 329.264 130.617C333.137 126.278 340.022 124.109 345.186 128.448C346.908 130.183 348.199 132.352 349.06 134.955C356.806 160.551 322.378 176.603 301.722 171.83C291.824 169.227 282.357 163.588 274.611 157.08C258.258 143.632 246.639 131.484 239.753 111.094C233.729 93.7413 229.855 74.6528 216.945 60.3364C173.911 12.6153 80.4367 40.0707 88.7041 124.543C91.7465 155.63 108.069 187.014 137.332 196.125C151.534 200.463 167.026 199.595 182.088 198.728C189.404 198.294 196.719 197.86 204.465 197.426" stroke="url(#paint0_linear_28_11286)" stroke-width="1.40905" stroke-linecap="round" stroke-linejoin="round" stroke-dasharray="1.72 5.64"/>
<path d="M209.199 197.859C210.06 197.859 210.92 197.859 211.781 197.859" stroke="#FF78B7" stroke-width="0.862764" stroke-linecap="round" stroke-linejoin="round"/>
<path d="M97.739 287.231H352.5" stroke="#D8E2EE" stroke-width="2.81811" stroke-miterlimit="10" stroke-linecap="round" stroke-linejoin="round"/>
<path d="M74.5 287.231H84.8282" stroke="#D8E2EE" stroke-width="2.81811" stroke-miterlimit="10" stroke-linecap="round" stroke-linejoin="round"/>
<path d="M285.365 68.5803H228.13V133.655H285.365V68.5803Z" fill="#B6C2D2"/>
<path d="M285.369 68.5803H247.068V133.655H285.369V68.5803Z" fill="url(#paint1_linear_28_11286)"/>
<path d="M235.936 54.3303H148.097V154.152H235.936V54.3303Z" fill="#E63756"/>
<path d="M235.935 54.3303H176.584V154.152H235.935V54.3303Z" fill="url(#paint2_linear_28_11286)"/>
<path opacity="0.26" d="M87.5557 208.817C93.7876 208.817 98.2389 204.361 98.2389 198.122C98.2389 191.883 93.7876 187.427 87.5557 187.427C81.3239 187.427 76.8726 191.883 76.8726 198.122C76.8726 204.361 82.2141 208.817 87.5557 208.817Z" fill="url(#paint3_linear_28_11286)"/>
<path d="M314.263 63.8746C316.845 63.8746 318.997 61.7054 318.997 59.1024C318.997 56.4995 316.845 54.3303 314.263 54.3303C311.681 54.3303 309.529 56.4995 309.529 59.1024C309.529 61.7054 311.681 63.8746 314.263 63.8746Z" fill="url(#paint4_linear_28_11286)" fill-opacity="0.51"/>
<path opacity="0.74" d="M346.208 111.184C347.93 111.184 349.651 109.448 349.651 107.713C349.651 105.978 347.93 104.242 346.208 104.242C344.487 104.242 342.766 105.978 342.766 107.713C342.766 109.448 344.487 111.184 346.208 111.184Z" fill="url(#paint5_linear_28_11286)"/>
<path d="M311.618 82.0281H109.359V285.06H311.618V82.0281Z" fill="white"/>
<path d="M312.051 82.0281H165.735V285.06H312.051V82.0281Z" fill="#EDF2F8"/>
<path d="M137.331 82.0281H109.359V285.06H137.331V82.0281Z" fill="url(#paint6_linear_28_11286)"/>
<path d="M165.733 285.061H109.359V284.627L137.761 256.428L165.733 285.061Z" fill="#EDF2F8"/>
<path d="M201.019 127.146C205.059 127.146 208.334 123.844 208.334 119.771C208.334 115.698 205.059 112.396 201.019 112.396C196.978 112.396 193.703 115.698 193.703 119.771C193.703 123.844 196.978 127.146 201.019 127.146Z" fill="#B6C2D2"/>
<path d="M273.316 127.146C277.356 127.146 280.631 123.844 280.631 119.771C280.631 115.698 277.356 112.396 273.316 112.396C269.275 112.396 266 115.698 266 119.771C266 123.844 269.275 127.146 273.316 127.146Z" fill="#B6C2D2"/>
<path d="M273.317 120.204V140.16C273.317 160.55 256.964 176.602 237.168 176.602C216.942 176.602 201.02 160.116 201.02 140.16V120.204" stroke="white" stroke-width="2.66889" stroke-miterlimit="10" stroke-linecap="round" stroke-linejoin="round"/>
<path opacity="0.7" d="M307.745 271.61L198.008 292C196.287 291.132 194.996 288.963 194.996 286.794V220.852C194.996 217.382 197.578 214.779 201.021 214.779H301.72L307.745 271.61Z" fill="url(#paint7_linear_28_11286)"/>
<path d="M337.01 217.816V283.324C337.01 286.795 334.428 289.398 330.986 289.398H224.692C221.249 289.398 218.667 286.795 218.667 283.324V217.816C218.667 214.346 221.249 211.743 224.692 211.743H330.986C334.428 211.743 337.01 214.346 337.01 217.816Z" fill="url(#paint8_linear_28_11286)"/>
<path d="M337.01 228.229H218.667V242.545H337.01V228.229Z" fill="#2A7BE4"/>
<path d="M287.52 267.707H276.762C275.471 267.707 274.61 266.84 274.61 265.538C274.61 264.237 275.471 263.369 276.762 263.369H287.52C288.811 263.369 289.672 264.237 289.672 265.538C289.241 266.84 288.381 267.707 287.52 267.707Z" fill="white"/>
<path d="M269.875 267.707H233.296C232.005 267.707 231.145 266.84 231.145 265.538C231.145 264.237 232.005 263.369 233.296 263.369H269.875C271.166 263.369 272.027 264.237 272.027 265.538C272.027 266.84 270.736 267.707 269.875 267.707Z" fill="white"/>
<path d="M249.649 275.949H233.296C232.005 275.949 231.145 275.081 231.145 273.78C231.145 272.478 232.005 271.611 233.296 271.611H249.649C250.94 271.611 251.801 272.478 251.801 273.78C251.801 275.081 250.94 275.949 249.649 275.949Z" fill="white"/>
<path d="M319.793 281.589C324.072 281.589 327.54 278.092 327.54 273.78C327.54 269.467 324.072 265.971 319.793 265.971C315.515 265.971 312.047 269.467 312.047 273.78C312.047 278.092 315.515 281.589 319.793 281.589Z" fill="#2A7BE4"/>
<path d="M309.467 281.589C313.745 281.589 317.213 278.092 317.213 273.78C317.213 269.467 313.745 265.971 309.467 265.971C305.189 265.971 301.721 269.467 301.721 273.78C301.721 278.092 305.189 281.589 309.467 281.589Z" fill="white"/>
<defs>
<linearGradient id="paint0_linear_28_11286" x1="39.1253" y1="148.276" x2="351.049" y2="148.276" gradientUnits="userSpaceOnUse">
<stop stop-color="#E63756"/>
<stop offset="1" stop-color="#FC97A9"/>
</linearGradient>
<linearGradient id="paint1_linear_28_11286" x1="247.277" y1="101.023" x2="285.408" y2="101.023" gradientUnits="userSpaceOnUse">
<stop offset="0.00289017" stop-color="#E6ECF5"/>
<stop offset="1" stop-color="#CED7E2"/>
</linearGradient>
<linearGradient id="paint2_linear_28_11286" x1="277.481" y1="67.4024" x2="152.844" y2="67.4024" gradientUnits="userSpaceOnUse">
<stop stop-color="#E63756"/>
<stop offset="1" stop-color="#FC97A9"/>
</linearGradient>
<linearGradient id="paint3_linear_28_11286" x1="79.6145" y1="189.25" x2="95.1653" y2="207.299" gradientUnits="userSpaceOnUse">
<stop stop-color="#00D27B"/>
<stop offset="1" stop-color="#02C06D"/>
</linearGradient>
<linearGradient id="paint4_linear_28_11286" x1="309.323" y1="57.8697" x2="348.955" y2="61.2346" gradientUnits="userSpaceOnUse">
<stop stop-color="#27BCFE"/>
<stop offset="1" stop-color="#0083CC"/>
</linearGradient>
<linearGradient id="paint5_linear_28_11286" x1="343.649" y1="104.834" x2="348.701" y2="110.656" gradientUnits="userSpaceOnUse">
<stop stop-color="#00D27B"/>
<stop offset="1" stop-color="#02C06D"/>
</linearGradient>
<linearGradient id="paint6_linear_28_11286" x1="123.547" y1="87.4392" x2="123.547" y2="282.089" gradientUnits="userSpaceOnUse">
<stop offset="0.00289017" stop-color="#E6ECF5"/>
<stop offset="1" stop-color="#CED7E2"/>
</linearGradient>
<linearGradient id="paint7_linear_28_11286" x1="205.27" y1="242.411" x2="302.407" y2="266.096" gradientUnits="userSpaceOnUse">
<stop offset="0.00289017" stop-color="#606673" stop-opacity="0"/>
<stop offset="1" stop-color="#373C47"/>
</linearGradient>
<linearGradient id="paint8_linear_28_11286" x1="444.85" y1="289.624" x2="254.326" y2="358.114" gradientUnits="userSpaceOnUse">
<stop stop-color="#1970E2"/>
<stop offset="0.0001" stop-color="#1970E2"/>
<stop offset="1" stop-color="#86BAFF"/>
</linearGradient>
</defs>
</svg>
