<svg width="426" height="330" viewBox="0 0 426 330" fill="none" xmlns="http://www.w3.org/2000/svg">
<path d="M279.915 37.7633L123.552 127.849C123.552 143.531 123.552 260.437 123.552 272.74L120.003 270.712V125.821L276.385 35.7351L279.915 37.7633Z" fill="#E6E6E6"/>
<path d="M279.915 37.7632V160.6L128.838 247.615C127.675 248.297 124.691 250.005 123.552 250.666V127.849L279.915 37.7632Z" fill="#F0F0F0"/>
<path d="M276.386 35.7513L279.915 37.7795L123.553 127.849L120.023 125.813L276.386 35.7513Z" fill="#F0F0F0"/>
<path d="M281.183 37.0736C279.63 37.9701 124.732 127.2 123.061 128.15V272.444L122.19 271.945V127.659C123.927 126.669 278.683 37.5158 280.321 36.5747L281.183 37.0736Z" fill="#F40649"/>
<path d="M279.894 37.8079L123.553 127.858L123.061 128.137V272.444L123.573 272.74L281.175 182.208V37.094L279.894 37.8079Z" fill="#F40649"/>
<path d="M280.317 36.5829L281.183 37.0737L123.061 128.158L122.19 127.659L280.317 36.5829Z" fill="#3F3D56"/>
<path d="M282.566 37.8688C252.072 55.4244 156.351 110.566 124.439 128.945V273.239L123.573 272.74V128.45C125.354 127.407 280.065 38.3231 281.704 37.3577L282.566 37.8688Z" fill="#F40649"/>
<path d="M281.183 38.6596C251.706 55.6352 155.408 111.117 124.435 128.957V273.239L125.309 273.742L128.745 271.665L282.566 183.015V37.9011L281.183 38.6596Z" fill="#F40649"/>
<path d="M281.704 37.3738L282.566 37.8686L124.439 128.949L123.573 128.458L281.704 37.3738Z" fill="#3F3D56"/>
<path d="M285.208 40.8379L281.183 43.1581C279.594 44.0423 130.403 130.011 128.838 130.9V275.774L125.313 273.746V128.872C127.805 127.436 279.293 40.1726 281.675 38.8219L285.208 40.8379Z" fill="#E6E6E6"/>
<path d="M281.679 38.7976L285.208 40.8298L128.842 130.9L125.313 128.863L281.679 38.7976Z" fill="#F0F0F0"/>
<path d="M128.838 130.9V275.774L285.208 185.712V40.8298L128.838 130.9Z" fill="#FAFAFA"/>
<path d="M144.886 126.328C147.886 125.091 146.622 129.902 144.886 130.575C141.865 131.812 143.142 127.002 144.886 126.328Z" fill="#E0E0E0"/>
<path d="M139.694 111.657C134.376 108.294 130.708 113.685 132.302 118.711L133.522 118.001C132.302 102.242 151.468 121.55 143.629 127.606C143.321 128.091 143.122 128.638 143.048 129.208C150.883 126.405 144.878 114.448 139.694 111.657Z" fill="#F40649"/>
<path d="M153.839 121.169C156.847 119.952 155.571 124.742 153.839 125.42C150.818 126.653 152.098 121.842 153.839 121.169Z" fill="#E0E0E0"/>
<path d="M148.647 106.497C143.329 103.134 139.665 108.525 141.255 113.551L142.475 112.841C140.848 97.9505 160.694 114.228 152.001 124.049C159.767 121.193 153.839 109.296 148.647 106.497Z" fill="#F40649"/>
<path d="M135.929 131.464C138.937 130.226 137.673 135.041 135.929 135.71C132.92 136.96 134.197 132.153 135.929 131.464Z" fill="#E0E0E0"/>
<path d="M130.741 116.808C125.423 113.45 121.755 118.836 123.345 123.862L124.565 123.152C122.938 108.266 142.8 124.531 134.087 134.356C141.938 131.573 135.925 119.591 130.741 116.808Z" fill="#F40649"/>
<path d="M162.792 116.017C165.8 114.772 164.528 119.591 162.792 120.264C159.775 121.493 161.047 116.686 162.792 116.017Z" fill="#E0E0E0"/>
<path d="M157.599 101.346C152.281 97.9748 148.614 103.345 150.208 108.395L151.428 107.681C149.801 92.803 169.65 109.065 160.958 118.893C168.793 116.098 162.779 104.128 157.599 101.346Z" fill="#F40649"/>
<path d="M171.74 110.858C176.457 109.336 170.927 118.885 169.898 114.05C169.931 113.411 170.115 112.788 170.435 112.233C170.755 111.678 171.203 111.207 171.74 110.858Z" fill="#E0E0E0"/>
<path d="M166.556 96.1739C161.242 92.8113 157.567 98.1777 159.161 103.224L160.38 102.518C158.754 87.6354 178.603 103.897 169.911 113.721C177.745 110.943 171.732 98.9687 166.556 96.1739Z" fill="#F40649"/>
<path d="M180.693 105.698C183.714 104.481 182.437 109.272 180.693 109.945C177.684 111.182 178.957 106.371 180.693 105.698Z" fill="#E0E0E0"/>
<path d="M175.509 91.0263C170.187 87.6596 166.528 93.0342 168.122 98.0843L169.341 97.3704C168.122 81.6238 187.288 100.899 179.453 106.976C179.146 107.46 178.948 108.006 178.872 108.574C186.641 105.726 180.693 93.8211 175.509 91.0263Z" fill="#F40649"/>
<path d="M189.646 100.538C192.663 99.3216 191.394 104.116 189.646 104.785C186.637 106.023 187.934 101.216 189.646 100.538Z" fill="#E0E0E0"/>
<path d="M184.482 85.8668C179.173 82.5082 175.477 87.8949 177.091 92.9247L178.311 92.2108C177.062 76.4603 196.261 95.7439 188.418 101.816C188.113 102.302 187.915 102.847 187.837 103.414C195.688 100.636 189.626 88.6535 184.482 85.8668Z" fill="#F40649"/>
<path d="M198.603 95.3627C201.608 94.1458 200.343 98.9403 198.603 99.6096C195.594 100.871 196.879 96.0563 198.603 95.3627Z" fill="#E0E0E0"/>
<path d="M193.419 80.7071C188.105 77.3485 184.413 82.7353 186.023 87.7651L187.243 87.0512C185.617 72.1727 205.466 88.4181 196.773 98.2627C204.539 95.399 198.607 83.51 193.419 80.7071Z" fill="#F40649"/>
<path d="M207.556 90.2274C210.564 88.9821 209.296 93.805 207.556 94.4743C204.551 95.7034 205.824 90.9007 207.556 90.2274Z" fill="#E0E0E0"/>
<path d="M202.372 75.5516C197.058 72.1889 193.366 77.5797 194.98 82.6054L196.2 81.8956C194.574 67.0252 214.423 83.2544 205.726 93.1031C213.549 90.3043 207.548 78.3261 202.372 75.5516Z" fill="#F40649"/>
<path d="M216.509 85.0677C219.521 83.8509 218.249 88.6454 216.509 89.3147C213.504 90.5478 214.768 85.7411 216.509 85.0677Z" fill="#E0E0E0"/>
<path d="M211.325 70.3961C206.039 67.0334 202.319 72.4242 203.933 77.4459L205.153 76.7401C203.527 61.8616 223.376 78.0949 214.679 87.9436C222.534 85.1448 216.472 73.1868 211.325 70.3961Z" fill="#F40649"/>
<path d="M225.466 79.9121C228.474 78.6952 227.202 83.4857 225.466 84.155C222.457 85.3922 223.713 80.5855 225.466 79.9121Z" fill="#E0E0E0"/>
<path d="M220.282 65.2404C214.972 61.8737 211.272 67.2686 212.886 72.2943L214.106 71.5845C212.479 56.7141 232.333 72.9393 223.636 82.7839C231.467 79.9932 225.457 68.023 220.282 65.2404Z" fill="#F40649"/>
<path d="M234.418 74.7526C237.423 73.5357 236.159 78.3302 234.418 78.9995C231.41 80.2326 232.682 75.4259 234.418 74.7526Z" fill="#E0E0E0"/>
<path d="M229.226 60.0729C223.908 56.7143 220.245 62.101 221.835 67.1268L223.055 66.4169C221.428 51.5303 241.29 67.7961 232.577 77.6204C240.403 74.8378 234.418 62.8636 229.226 60.0729Z" fill="#F40649"/>
<path d="M243.367 69.601C246.372 68.3557 245.103 73.1705 243.367 73.8439C240.35 75.081 241.603 70.2703 243.367 69.601Z" fill="#E0E0E0"/>
<path d="M238.175 54.9295C232.861 51.5547 229.186 56.9333 230.784 61.9793L232.003 61.2654C230.401 46.387 250.226 62.6527 241.534 72.473C249.364 69.6822 243.347 57.7121 238.175 54.9295Z" fill="#F40649"/>
<path d="M252.312 64.4414C255.333 63.2245 254.056 68.015 252.312 68.6884C249.328 69.9215 250.572 65.1148 252.312 64.4414Z" fill="#E0E0E0"/>
<path d="M247.128 49.7699C241.814 46.4072 238.139 51.7737 239.736 56.8197L240.956 56.1139C239.736 40.3795 258.846 59.5983 251.092 65.7192C250.785 66.2036 250.586 66.7489 250.511 67.3174C258.362 64.5348 252.292 52.5525 247.128 49.7699Z" fill="#F40649"/>
<path d="M261.269 59.2817C264.286 58.0649 263.013 62.8553 261.269 63.5287C258.273 64.7618 259.533 59.9551 261.269 59.2817Z" fill="#E0E0E0"/>
<path d="M256.081 44.6102C250.763 41.2516 247.096 46.6181 248.689 51.6682L249.909 50.9543C248.689 35.2037 267.856 54.4833 260.017 60.5596C259.712 61.0453 259.514 61.59 259.435 62.1578C267.217 59.3102 261.269 47.405 256.081 44.6102Z" fill="#F40649"/>
<path d="M270.222 54.1222C273.235 52.9053 271.966 57.6998 270.222 58.3691C267.217 59.6063 268.486 54.7996 270.222 54.1222Z" fill="#E0E0E0"/>
<path d="M265.038 39.4507C259.724 36.092 256.032 41.4788 257.642 46.5086L258.862 45.7947C257.642 30.0401 276.808 49.3318 268.974 55.4C268.667 55.8847 268.468 56.4299 268.392 56.9982C276.231 54.2156 270.214 42.2252 265.038 39.4507Z" fill="#F40649"/>
<path d="M279.175 48.9628C282.184 47.7459 280.915 52.5404 279.175 53.2097C276.162 54.455 277.443 49.6402 279.175 48.9628Z" fill="#E0E0E0"/>
<path d="M273.991 34.2911C268.681 30.9325 264.985 36.3193 266.599 41.3491L267.819 40.6351C266.193 25.7567 286.042 42.0021 277.345 51.8467C285.168 49.0479 279.195 37.0818 273.991 34.2911Z" fill="#F40649"/>
<path d="M148.687 142.521L159.868 136.031C160.681 135.548 161.373 135.889 161.377 136.781C161.848 139.564 150.22 144.322 148.687 145.705C146.236 146.768 147.297 143.04 148.687 142.521Z" fill="#D1D3D4"/>
<path d="M167.805 131.512L178.986 125.022C179.799 124.548 180.486 124.88 180.494 125.781C180.945 128.559 169.342 133.334 167.805 134.733C165.349 135.788 166.406 132.027 167.805 131.512Z" fill="#D1D3D4"/>
<path d="M186.926 120.512L198.099 114.021C200.538 112.975 199.51 116.739 198.099 117.266L186.906 123.757C184.474 124.763 185.536 121.019 186.926 120.512Z" fill="#D1D3D4"/>
<path d="M206.047 109.487L217.232 102.996C219.672 101.946 218.655 105.714 217.232 106.242L206.031 112.732C203.6 113.754 204.661 110.002 206.047 109.487Z" fill="#D1D3D4"/>
<path d="M225.185 98.4738L236.366 91.9837C238.806 90.9331 237.785 94.6974 236.386 95.2287L225.185 101.694C222.729 102.745 223.791 99.0132 225.185 98.4738Z" fill="#D1D3D4"/>
<path d="M244.294 87.4528L255.475 80.9627C257.915 79.9162 256.898 83.6845 255.475 84.2077L244.282 90.6978C241.834 91.7119 242.904 87.972 244.294 87.4528Z" fill="#D1D3D4"/>
<path d="M263.416 76.4439L274.597 69.9539C277.036 68.9236 276.008 72.6554 274.597 73.1746L263.4 79.6646C260.964 80.6949 262.025 76.9591 263.416 76.4439Z" fill="#D1D3D4"/>
<path d="M277.467 85.096L277.313 177.985L147.333 252.949V160.06L277.439 85.1001M278.776 82.788L146 159.282V255.257L278.646 178.76L278.809 82.7839L278.776 82.788Z" fill="#E0E0E0"/>
<path d="M164.946 244.354C163.674 243.851 163.674 148.841 164.946 148.334C166.219 148.841 166.219 243.851 164.946 244.354Z" fill="#E0E0E0"/>
<path d="M183.901 233.426C182.628 232.919 182.681 137.909 183.942 137.402C185.214 137.909 185.174 232.919 183.901 233.426Z" fill="#E0E0E0"/>
<path d="M202.852 222.503C201.579 221.996 201.632 126.977 202.917 126.474C204.198 126.977 204.124 221.996 202.852 222.503Z" fill="#E0E0E0"/>
<path d="M221.802 211.571C220.526 211.064 220.619 116.05 221.888 115.542C223.16 116.05 223.071 211.06 221.802 211.571Z" fill="#E0E0E0"/>
<path d="M240.749 200.64C239.476 200.137 239.594 105.126 240.863 104.619C242.14 105.126 242.009 200.137 240.749 200.64Z" fill="#E0E0E0"/>
<path d="M259.7 189.712C258.423 189.205 258.561 94.1944 259.834 93.6914C261.119 94.1903 260.968 189.213 259.7 189.712Z" fill="#E0E0E0"/>
<path d="M146.78 183.473C143.69 181.924 278.207 106.258 278.703 106.809C279.492 108.529 147.403 182.65 146.78 183.473Z" fill="#E0E0E0"/>
<path d="M146.78 207.47C143.702 205.905 278.195 130.206 278.699 130.847C279.415 132.522 147.378 206.655 146.78 207.47Z" fill="#E0E0E0"/>
<path d="M146.78 231.459C143.711 229.902 278.203 154.228 278.711 154.795C279.5 156.499 147.402 230.644 146.78 231.459Z" fill="#E0E0E0"/>
<g filter="url(#filter0_d_28_10976)">
<path opacity="0.1" d="M242.505 106.708V130.409L262.188 119.072V95.3748L242.505 106.708Z" fill="#27AE60"/>
<path d="M267.103 117.782C266.388 120.09 247.901 129.634 245.36 131.366L243.278 110.776L262.956 99.4634C264.034 104.148 262.452 114.553 267.103 117.782Z" fill="#27AE60"/>
<path d="M262.977 99.4027L243.298 110.736V107.102L262.977 95.7683V99.4027Z" fill="#27AE60"/>
<path opacity="0.1" d="M262.977 99.4027L243.298 110.736V107.102L262.977 95.7683V99.4027Z" fill="#27AE60"/>
</g>
<path d="M261.021 109.507C260.891 108.891 260.718 108.285 260.5 107.694C261.204 105.848 259.114 105.041 260 107.487C259.541 108.4 257.968 111.239 256.91 109.75C259.756 106.238 255.8 105.52 256.402 109.572C256.247 109.842 256.038 110.078 255.788 110.265C255.443 108.825 254.76 111.077 254.369 111.43C254.255 111.531 254.239 111.543 254.186 111.43C253.951 110.27 253.288 110.489 253.101 111.523C252.04 110.691 251.474 112.598 250.938 113.227C250.913 112.828 250.913 112.428 250.938 112.03C251.015 111.726 250.369 111.519 250.356 111.856C250.304 113.223 249.039 114.821 247.64 114.865C246.957 113.648 247.901 110.61 249.564 110.622C249.877 110.736 249.844 111.097 249.763 111.357C250.169 112.298 250.527 109.564 248.742 110.213C245.242 112.354 246.868 118.52 250.519 113.458C251.56 114.618 251.958 112.208 252.715 111.791C252.841 114.224 253.503 112.878 253.739 111.417C254.333 112.756 255.203 111.397 255.487 110.549C255.821 111.138 256.484 110.549 256.707 110.164C258.004 111.758 259.736 109.438 260.366 108.282C260.586 109.064 260.704 109.871 260.72 110.683C259.386 110.063 257.524 112.196 258.984 113.117C260.94 113.454 261.501 110.975 261.021 109.507ZM256.91 108.136C256.996 107.803 257.146 107.325 257.476 107.244C257.337 107.817 257.108 108.365 256.797 108.866C256.812 108.617 256.85 108.37 256.91 108.128V108.136ZM259.578 112.48C258.016 113.093 259.659 110.42 260.594 111.121C260.544 111.412 260.425 111.686 260.249 111.922C260.072 112.158 259.842 112.349 259.578 112.48Z" fill="#FAFAFA"/>
<path d="M248.99 117.993C248.742 119.209 247.791 120.021 247.335 121.063C247.661 121.566 248.441 120.211 248.75 119.903V119.842C248.779 120.654 247.335 126.3 248.628 125.468C248.413 124.203 250.328 117.672 248.99 117.993Z" fill="#FAFAFA"/>
<path d="M253.394 118.005C253.162 117.619 252.625 117.193 252.174 117.408C250.893 117.003 250.438 118.905 250.06 119.789C248.352 126.247 255.492 122.252 253.394 118.005ZM252.406 121.655C249.421 125.347 250.1 118.333 252.133 117.709C253.707 118.276 252.987 120.548 252.406 121.655Z" fill="#FAFAFA"/>
<path d="M263.664 117.871C263.066 115.92 261.976 112.736 261.224 116.735C260.984 116.26 260.464 116.151 260.265 116.735C258.464 113.579 259.098 120.013 258.195 119.071C257.961 118.68 257.845 118.229 257.862 117.773C257.077 116.475 257.374 119.282 256.821 119.647C254.816 122.231 255.508 118.203 257.097 117.786C257.012 116.828 255.471 118.362 255.321 118.812C253.979 121.558 257.101 121.599 257.76 119.197V119.242C259.508 121.023 259.232 117.485 259.622 116.548C260.139 117.786 260.399 119.432 260.842 116.974C262.208 119.38 261.558 116.342 262.277 115.449C262.688 115.83 263.017 118.836 263.664 117.871Z" fill="#FAFAFA"/>
<path d="M240.383 108.128C240.489 106.229 242.196 103.215 244.42 103.994L245.482 104.619C244.705 106.331 244.628 108.468 242.713 109.486L242.225 110.338L241.07 109.673H241.029C240.791 109.498 240.605 109.262 240.491 108.99C240.377 108.718 240.34 108.42 240.383 108.128Z" fill="#CCCCCC"/>
<path d="M246.213 106.112C246.575 108.436 242.078 112.866 241.529 108.805C241.196 106.505 245.668 102.084 246.213 106.112Z" fill="#E0E0E0"/>
<path opacity="0.1" d="M186.845 187.822V211.519L206.523 200.181V176.484L186.845 187.822Z" fill="#D1D3D4"/>
<path d="M211.439 198.863C210.723 201.175 192.24 210.719 189.703 212.451L187.621 191.813L207.304 180.5C208.361 185.088 206.84 195.853 211.439 198.863Z" fill="#D1D3D4"/>
<path d="M207.316 180.512L187.634 191.85V188.211L207.316 176.878V180.512Z" fill="#D1D3D4"/>
<path opacity="0.1" d="M207.316 180.512L187.634 191.85V188.211L207.316 176.878V180.512Z" fill="#D1D3D4"/>
<path d="M204.921 193.525C205.474 193.525 205.194 192.949 204.767 193.058C203.478 190.438 202.368 186.69 201.746 192.032C200.4 187.87 202.124 197.743 199.713 196.9C201.469 189.765 195.993 191.712 199.132 197.066C197.961 199.772 196.692 193.468 196.285 198.867C195.749 198.551 195.249 199.423 195.297 199.901C194.834 198.774 193.61 199.281 193.33 200.234C192.817 196.328 189.325 199.147 190.833 201.597C190.967 201.617 191.012 201.5 190.976 201.378C190.492 199.131 192.602 197.107 192.85 200.567C193.11 201.134 193.078 204.388 193.956 203.463C193.504 201.698 194.053 197.459 195.383 201.435C196.529 202.303 195.383 199.755 196.033 199.378C197.412 201.658 196.44 197.885 197.046 197.24C197.696 198.145 199.176 198.668 199.534 197.281C201.945 197.833 201.681 193.991 201.758 192.446C202.693 192.393 202.474 190.657 202.709 189.923C203.376 190.883 203.905 191.931 204.279 193.038C199.876 195.253 207.096 199.585 204.921 193.525ZM198.696 195.009C198.58 194.225 198.656 193.425 198.92 192.677C200.063 193.488 199.327 195.468 199.209 196.591C198.904 196.112 198.728 195.564 198.696 194.997V195.009ZM204.441 196.34C203.067 196.105 203.177 194.06 204.478 193.679C204.661 194.433 205.242 195.788 204.441 196.328V196.34Z" fill="#FAFAFA"/>
<path d="M205.726 188.694C205.344 188.032 204.1 184.155 203.425 184.836C203.624 186.236 204.494 187.432 204.901 188.771C204.999 189.099 205.035 189.582 205.486 189.545C205.938 189.509 205.824 189.006 205.726 188.694Z" fill="#FAFAFA"/>
<path d="M206.974 191.594C206.967 191.503 206.935 191.416 206.881 191.343C206.796 191.051 206.068 190.71 206.149 191.241C205.661 191.923 207.206 192.527 206.974 191.594Z" fill="#FAFAFA"/>
<path d="M184.722 189.245C184.82 187.343 186.528 184.289 188.76 185.084L189.829 185.716C189.016 187.453 189.016 189.505 187.06 190.584L186.58 191.436L185.418 190.771H185.377C185.14 190.599 184.955 190.366 184.84 190.098C184.724 189.829 184.684 189.535 184.722 189.245Z" fill="#CCCCCC"/>
<path d="M190.549 187.23C190.89 189.546 186.406 193.939 185.865 189.89C185.495 187.546 189.996 183.157 190.549 187.23Z" fill="#E0E0E0"/>
<path d="M231.032 165.974L266.697 145.425C269.071 144.058 270.998 144.967 270.998 147.421C270.998 149.875 269.071 153.035 266.697 154.398L231.032 174.939C224.01 177.981 226.966 167.565 231.032 165.974Z" fill="#D1D3D4"/>
<path d="M180.319 231.313C180.084 231.318 179.853 231.256 179.652 231.135L168.309 224.592C168.002 224.415 167.779 224.124 167.688 223.783C167.597 223.442 167.645 223.078 167.823 222.773C168 222.467 168.292 222.244 168.634 222.154C168.976 222.063 169.34 222.111 169.646 222.288L180.986 228.815C182.157 229.443 181.644 231.338 180.319 231.297V231.313Z" fill="#D1D3D4"/>
<path d="M169.459 237C169.225 237 168.994 236.938 168.791 236.821C168.588 236.705 168.418 236.537 168.3 236.335C168.182 236.133 168.118 235.903 168.116 235.669C168.114 235.435 168.174 235.204 168.288 235L178.343 216.857C179.156 215.339 181.543 216.646 180.681 218.146C180.209 218.43 170.366 238.144 169.459 237Z" fill="#D1D3D4"/>
<path d="M240.383 189.963C239.257 183.583 230.963 186.783 228.125 190.223C227.893 190.401 228.23 190.771 228.458 190.629C243.404 179.397 241.639 199.277 230.084 202.392C223.396 204.014 222.335 197.171 225.112 192.608C226.209 190.562 227.73 188.773 229.575 187.359C231.419 185.946 233.545 184.94 235.809 184.41C235.877 184.375 235.932 184.319 235.965 184.25C235.999 184.18 236.008 184.102 235.993 184.027C235.978 183.952 235.939 183.884 235.881 183.833C235.824 183.782 235.751 183.751 235.675 183.745C227.999 184.516 218.428 195.606 224.498 202.538C232.117 206.712 240.733 197.455 240.383 189.963Z" fill="#D1D3D4"/>
<path d="M156.119 159.046C156.274 159.144 157.445 162.377 157.77 162.076C158.132 162.17 162.019 159.785 161.072 161.671C158.953 165.756 158.327 165.346 159.262 170.12C159.413 172.031 156.237 170.051 155.603 170.866C155.4 170.822 152.224 176.018 152.29 174.148C152.233 173.986 153.046 169.305 152.696 169.386L150.472 167.788C149.74 166.514 153.843 165.001 154.054 163.963C154.339 163.675 155.274 158.186 156.119 159.046Z" fill="#D1D3D4"/>
<path d="M186.857 141.742C187.194 141.953 198.534 134.059 198.082 136.157C198.66 137.556 187.511 142.768 186.861 143.482C185.548 144.038 186.113 142.01 186.857 141.742Z" fill="#D1D3D4"/>
<path d="M186.857 145.997L194.033 141.856C195.346 141.288 194.777 143.312 194.033 143.588C193.574 143.633 182.95 150.966 186.857 145.997Z" fill="#D1D3D4"/>
<path d="M224.12 141.259C224.457 141.466 235.785 133.573 235.333 135.674C235.911 137.069 224.791 142.282 224.12 142.996C222.811 143.551 223.38 141.535 224.12 141.259Z" fill="#D1D3D4"/>
<path d="M224.12 145.531C224.506 145.652 232.426 139.852 232.105 141.795C232.418 143.304 224.933 146.504 224.12 147.283C222.807 147.831 223.38 145.807 224.12 145.531Z" fill="#D1D3D4"/>
<path d="M150.37 207.722C150.704 207.929 162.039 200.039 161.584 202.128C162.161 203.528 151.041 208.736 150.37 209.45C149.053 210.03 149.626 208.014 150.37 207.722Z" fill="#D1D3D4"/>
<path d="M150.371 212.009C150.757 212.135 158.673 206.33 158.356 208.277C158.661 209.782 151.167 212.983 150.371 213.749C149.057 214.301 149.622 212.285 150.371 212.009Z" fill="#D1D3D4"/>
<path d="M243.636 178.034C243.969 178.241 255.309 170.355 254.853 172.444C255.431 173.844 244.307 179.052 243.636 179.766C242.339 180.33 242.912 178.31 243.636 178.034Z" fill="#D1D3D4"/>
<path d="M243.636 182.309C244.022 182.431 251.942 176.63 251.621 178.573C251.93 180.082 244.437 183.283 243.636 184.045C242.339 184.601 242.904 182.573 243.636 182.309Z" fill="#D1D3D4"/>
<path d="M183.942 161.513L198.082 153.258L183.856 176.484L183.942 161.513Z" fill="#D1D3D4"/>
<path d="M133.209 169.743L141.991 164.676C143.357 164.088 142.804 166.206 141.991 166.494L133.209 171.56C131.826 172.136 132.428 170.031 133.209 169.743Z" fill="#D1D3D4"/>
<path d="M133.209 173.596C133.64 173.685 140.787 168.323 140.527 170.286C140.787 171.868 134.075 174.606 133.209 175.405C131.826 175.998 132.428 173.884 133.209 173.596Z" fill="#D1D3D4"/>
<path d="M133.209 193.699L141.991 188.633C143.357 188.045 142.804 190.162 141.991 190.45L133.209 195.516C131.826 196.101 132.428 193.991 133.209 193.699Z" fill="#D1D3D4"/>
<path d="M133.209 197.553C133.64 197.642 140.787 192.28 140.527 194.243C140.787 195.825 134.075 198.571 133.209 199.37C131.826 199.95 132.428 197.841 133.209 197.553Z" fill="#D1D3D4"/>
<path d="M133.209 217.7L141.991 212.638C143.357 212.05 142.804 214.167 141.991 214.455L133.209 219.518C131.826 220.098 132.428 217.992 133.209 217.7Z" fill="#D1D3D4"/>
<path d="M133.209 221.558C133.64 221.647 140.787 216.285 140.527 218.248C140.787 219.83 134.075 222.568 133.209 223.367C131.826 223.947 132.428 221.846 133.209 221.558Z" fill="#D1D3D4"/>
<path d="M133.209 241.645L141.991 236.578C143.361 235.986 142.804 238.112 141.991 238.396L133.209 243.462C131.826 244.042 132.428 241.937 133.209 241.645Z" fill="#D1D3D4"/>
<path d="M133.209 245.498C133.64 245.591 140.792 240.225 140.527 242.192C140.787 243.774 134.075 246.512 133.209 247.311C131.826 247.879 132.428 245.79 133.209 245.498Z" fill="#D1D3D4"/>
<path d="M146.906 294.214C142.95 296.21 152.911 303.247 157.884 300.538L244.485 249.948L254.877 238.996C254.952 238.949 255.017 238.889 255.068 238.818C255.119 238.746 255.155 238.666 255.175 238.58C255.195 238.495 255.198 238.407 255.183 238.32C255.169 238.234 255.137 238.151 255.091 238.077C255.044 238.003 254.984 237.938 254.912 237.887C254.841 237.836 254.76 237.8 254.675 237.78C254.589 237.76 254.501 237.758 254.414 237.772C254.327 237.786 254.244 237.818 254.17 237.864L234.122 243.948L146.906 294.214Z" fill="#E0E0E0"/>
<path d="M234.91 236.266L253.361 232.66C253.477 232.643 253.596 232.662 253.701 232.714C253.806 232.767 253.892 232.851 253.948 232.954C254.004 233.057 254.027 233.175 254.014 233.291C254 233.408 253.951 233.517 253.873 233.605L241.359 247.741L234.91 236.266Z" fill="#D1D3D4"/>
<path d="M253.873 233.605C253.951 233.515 253.998 233.403 254.009 233.284C254.02 233.166 253.994 233.047 253.935 232.944C253.876 232.841 253.786 232.759 253.678 232.709C253.571 232.659 253.45 232.643 253.333 232.664L249.734 233.37C250.23 233.675 250.631 234.111 250.893 234.629C251.156 235.147 251.27 235.728 251.222 236.306V236.635L253.873 233.605Z" fill="#333333"/>
<path d="M172.586 287.111L174.102 286.243L175.924 285.213L241.383 247.757C241.991 245.731 241.808 243.55 240.871 241.653C239.537 238.728 237.021 236.42 234.919 236.286L169.532 273.726L166.048 275.721C168.345 274.549 174.924 285.911 172.586 287.111Z" fill="#F40649"/>
<path d="M178.343 283.842L181.681 281.903C182.677 281.38 182.108 278.942 180.941 276.419C179.404 273.093 176.375 269.828 175.054 270.521L172.574 271.945L171.691 272.472C173.029 271.775 176.042 275.016 177.579 278.37C178.693 280.804 179.258 283.136 178.412 283.777C178.394 283.804 178.371 283.826 178.343 283.842Z" fill="#EBEBEB"/>
<path d="M179.185 283.347C181.494 282.13 174.875 270.773 172.562 271.99L169.183 273.912C171.5 272.696 178.128 284.053 175.802 285.27L179.185 283.347Z" fill="#3F3D56"/>
<path d="M172.586 287.111L175.924 285.213C178.205 284.029 171.919 273 169.496 273.726C169.447 273.735 169.401 273.753 169.358 273.778L166.02 275.713C168.345 274.549 174.924 285.911 172.586 287.111Z" fill="#EBEBEB"/>
<path d="M158.461 295.184L172.602 287.112C173.594 286.596 173.045 284.187 171.931 281.68C170.407 278.318 167.39 275.024 166.06 275.689L151.789 283.83C148.976 285.453 151.562 291.537 154.705 294.279C155.9 295.309 157.209 295.764 158.461 295.184Z" fill="#E0E0E0"/>
<path opacity="0.1" d="M159.291 290.811C158.478 287.631 155.9 284.515 153.526 283.842C153.176 283.717 152.802 283.678 152.434 283.727C152.066 283.776 151.715 283.913 151.411 284.126C149.281 286.126 151.757 291.703 154.745 294.267C155.888 295.281 157.185 295.731 158.405 295.2C159.437 294.591 159.844 292.969 159.291 290.811Z" fill="black"/>
<path d="M344.618 230.721C345.057 230.895 345.15 231.747 345.175 233.427C345.175 234.696 345.423 236.919 343.923 237.333C342.422 237.746 340.239 237.467 339.312 236.246C338.149 234.725 337.377 233.406 335.714 231.528C334.274 229.906 332.705 228.401 332.16 226.17C331.664 224.17 332.16 223.294 333.494 222.742C335.397 221.984 338.295 224.665 339.767 225.111C341.04 225.496 344.154 230.542 344.618 230.721Z" fill="#AFBED0"/>
<path d="M344.618 229.163L344.569 231.228C343.78 231.701 342.877 231.952 341.957 231.952C341.036 231.952 340.133 231.701 339.344 231.228C339.259 231.029 338.873 228.267 338.873 228.267L344.618 229.163Z" fill="#F9B499"/>
<path d="M327.594 242.257C327.594 242.257 328.143 244.062 328.407 245.64C328.635 246.889 328.948 248.966 328.497 249.907C328.046 250.848 326.313 251.404 323.671 251.323C321.955 251.27 319.259 252.369 317.405 253.323C315.551 254.276 311.563 254.653 309.566 254.381C307.216 254.053 304.818 252.637 304.456 251.656C304.094 250.674 304.622 249.66 310.225 247.445C310.274 247.445 317.995 245.113 320.743 242.217L327.594 242.257Z" fill="#AFBED0"/>
<path d="M327.643 239.994C327.643 239.994 327.602 241.527 327.59 242.399C327.578 243.271 326.513 244.553 323.838 244.395C321.959 244.289 320.658 243.729 320.764 242.212L320.817 239.981L327.643 239.994Z" fill="#F9B499"/>
<path d="M346.618 201.84C346.242 198.181 345.507 194.567 344.423 191.05C344.423 191.05 345.37 181.802 345.919 173.028C346.516 163.549 347.069 158.673 345.203 144.979C345.203 144.979 316.072 142.371 315.279 153.327C314.486 164.283 315.612 192.235 315.864 197.058C316.117 201.881 316.861 206.16 317.682 213.993C318.495 221.724 320.841 239.953 320.841 239.953C321.891 240.514 323.063 240.808 324.254 240.808C325.445 240.808 326.618 240.514 327.667 239.953C327.667 239.953 330.339 218.073 330.225 212.508C330.14 208.39 329.521 204.299 328.383 200.339C328.383 200.339 329.172 191.306 329.863 183.453C330.554 175.6 331.197 171.836 331.379 168.412L332.046 168.108C332.046 168.108 332.412 181.689 332.664 186.511C332.916 191.334 333.587 195.979 334.783 204.959C335.815 212.748 339.052 229.249 339.052 229.249C342.516 231.244 344.654 229.127 344.654 229.127C344.654 229.127 347.387 208.594 346.618 201.84Z" fill="#2F80ED"/>
<path d="M326.135 105.937L327.269 115.968L336.771 115.49L335.709 103.779L326.135 105.937Z" fill="#F9B499"/>
<path d="M340.344 109.791C343.882 109.624 345.683 110.16 347.256 113.198C348.83 116.236 349.472 125.334 350.017 130.019C350.562 134.704 350.688 138.01 348.797 138.493C346.907 138.976 339.324 139.17 339.324 139.17L340.344 109.791Z" fill="#AFBED0"/>
<path opacity="0.2" d="M340.344 109.791C343.882 109.624 345.683 110.16 347.256 113.198C348.83 116.236 349.472 125.334 350.017 130.019C350.562 134.704 350.688 138.01 348.797 138.493C346.907 138.976 339.324 139.17 339.324 139.17L340.344 109.791Z" fill="black"/>
<path d="M346.317 114.979C345.805 112.168 342.101 109.219 338.637 109.779L336.291 110.184C335.884 111.872 331.237 112.93 326.81 111.892C325.472 112.237 321.077 113.06 319.971 113.429C316.779 114.48 315.47 117.607 314.97 127.967C314.97 127.967 315.226 151.416 315.104 156.089C322.963 159.42 331.213 159.484 335.787 158.6C345.325 156.742 346.557 152.84 346.557 152.84L345.138 142.111C345.138 142.111 347.472 121.323 346.317 114.979Z" fill="#AFBED0"/>
<path d="M326.509 109.247L326.582 109.88C328.505 110.282 330.49 110.282 332.412 109.88C335.494 109.211 336.12 108.323 336.12 108.323L336.055 107.6C336.055 107.6 336.824 107.321 337.23 108.501C337.404 108.972 337.553 109.451 337.678 109.937C337.678 109.937 338.031 112.095 334.4 113.182C332.909 113.658 331.333 113.817 329.776 113.649C328.219 113.481 326.714 112.991 325.358 112.208L323.939 112.509C323.939 112.509 325.159 109.669 325.537 109.105C325.625 108.948 325.755 108.818 325.913 108.731C326.072 108.645 326.251 108.604 326.432 108.615L326.509 109.247Z" fill="#AFBED0"/>
<path opacity="0.2" d="M326.509 109.247L326.582 109.88C328.505 110.282 330.49 110.282 332.412 109.88C335.494 109.211 336.12 108.323 336.12 108.323L336.055 107.6C336.055 107.6 336.824 107.321 337.23 108.501C337.404 108.972 337.553 109.451 337.678 109.937C337.678 109.937 338.031 112.095 334.4 113.182C332.909 113.658 331.333 113.817 329.776 113.649C328.219 113.481 326.714 112.991 325.358 112.208L323.939 112.509C323.939 112.509 325.159 109.669 325.537 109.105C325.625 108.948 325.755 108.818 325.913 108.731C326.072 108.645 326.251 108.604 326.432 108.615L326.509 109.247Z" fill="black"/>
<path d="M286.208 127.525L285.92 127.371C285.688 127.251 285.499 127.062 285.379 126.831L279.415 110.131C279.386 110.055 279.387 109.97 279.419 109.895C279.451 109.819 279.51 109.759 279.585 109.726L287.473 105.353C287.722 105.304 287.98 105.346 288.201 105.471L288.489 105.617C288.721 105.739 288.909 105.93 289.026 106.164L294.978 122.864C294.995 122.904 295.003 122.946 295.003 122.989C295.003 123.032 294.995 123.075 294.978 123.114C294.961 123.154 294.937 123.19 294.906 123.22C294.876 123.25 294.839 123.274 294.799 123.29L286.936 127.646C286.687 127.687 286.431 127.644 286.208 127.525Z" fill="#828282"/>
<path d="M286.875 127.659C286.645 127.676 286.414 127.63 286.209 127.525L285.92 127.371C285.686 127.252 285.496 127.062 285.379 126.827L279.415 110.131C279.386 110.047 279.386 109.956 279.415 109.872L280.549 110.464C280.516 110.548 280.516 110.64 280.549 110.724L286.514 127.407C286.537 127.483 286.585 127.55 286.651 127.595C286.717 127.641 286.796 127.663 286.875 127.659Z" fill="#4F4F4F"/>
<path d="M280.561 110.724L286.522 127.407C286.548 127.49 286.605 127.559 286.68 127.601C286.755 127.643 286.844 127.655 286.928 127.634L294.816 123.258C294.894 123.228 294.957 123.169 294.992 123.093C295.027 123.017 295.031 122.931 295.003 122.852L289.051 106.152C289.023 106.071 288.966 106.003 288.891 105.963C288.815 105.922 288.727 105.911 288.644 105.933L280.748 110.29C280.666 110.323 280.601 110.387 280.566 110.469C280.531 110.55 280.529 110.641 280.561 110.724Z" fill="#BDBDBD"/>
<path d="M281.663 111.677L288.685 107.795C288.758 107.774 288.837 107.782 288.904 107.819C288.971 107.855 289.021 107.917 289.042 107.99L293.832 121.448C293.846 121.483 293.853 121.52 293.852 121.557C293.852 121.594 293.844 121.63 293.829 121.664C293.814 121.698 293.793 121.729 293.766 121.754C293.739 121.78 293.708 121.8 293.673 121.814L286.68 125.809C286.644 125.82 286.607 125.824 286.569 125.821C286.532 125.818 286.496 125.807 286.462 125.79C286.429 125.773 286.4 125.749 286.376 125.72C286.352 125.691 286.333 125.658 286.322 125.622L281.496 112.066C281.48 112.032 281.472 111.996 281.47 111.959C281.468 111.921 281.474 111.884 281.487 111.849C281.5 111.814 281.519 111.782 281.545 111.754C281.57 111.727 281.601 111.705 281.634 111.689C281.634 111.689 281.655 111.681 281.663 111.677Z" fill="white"/>
<path d="M284.505 108.627C284.559 108.601 284.62 108.598 284.676 108.616C284.732 108.635 284.779 108.675 284.806 108.728C284.821 108.75 284.832 108.775 284.838 108.801C284.844 108.828 284.844 108.855 284.839 108.881C284.834 108.908 284.824 108.933 284.809 108.955C284.794 108.978 284.775 108.997 284.753 109.012C284.724 109.022 284.694 109.027 284.663 109.025C284.633 109.024 284.603 109.016 284.575 109.003C284.547 108.99 284.523 108.971 284.502 108.948C284.482 108.926 284.466 108.899 284.456 108.87C284.44 108.825 284.439 108.776 284.451 108.73C284.463 108.683 284.489 108.642 284.525 108.61L284.505 108.627Z" fill="#263238"/>
<path d="M284.188 109.56C284.595 109.353 285.261 108.959 285.635 108.748C285.667 108.731 285.705 108.727 285.74 108.736C285.775 108.746 285.804 108.77 285.822 108.801C285.838 108.832 285.841 108.869 285.83 108.902C285.82 108.935 285.796 108.963 285.765 108.98L284.314 109.791C284.282 109.806 284.246 109.809 284.212 109.799C284.179 109.79 284.15 109.768 284.131 109.738C284.122 109.724 284.116 109.709 284.113 109.692C284.109 109.676 284.11 109.66 284.113 109.643C284.116 109.627 284.123 109.612 284.132 109.598C284.142 109.584 284.154 109.573 284.168 109.564L284.188 109.56Z" fill="#263238"/>
<path d="M283.818 109.75C283.849 109.737 283.884 109.735 283.916 109.745C283.948 109.756 283.976 109.778 283.993 109.807C284.01 109.835 284.015 109.868 284.007 109.9C283.999 109.932 283.98 109.96 283.952 109.977C283.936 109.984 283.918 109.987 283.901 109.986C283.884 109.986 283.866 109.982 283.85 109.975C283.834 109.968 283.82 109.957 283.808 109.945C283.796 109.932 283.787 109.917 283.781 109.9C283.772 109.874 283.77 109.846 283.777 109.82C283.783 109.793 283.798 109.769 283.818 109.75Z" fill="#263238"/>
<path d="M290.677 124.138C290.79 124.104 290.912 124.116 291.017 124.171C291.121 124.225 291.201 124.318 291.238 124.43C291.26 124.482 291.272 124.539 291.272 124.595C291.273 124.652 291.261 124.709 291.24 124.761C291.218 124.814 291.185 124.862 291.144 124.902C291.104 124.941 291.055 124.973 291.002 124.994C290.888 125.029 290.764 125.019 290.657 124.964C290.551 124.91 290.47 124.815 290.433 124.702C290.412 124.648 290.402 124.59 290.403 124.533C290.405 124.475 290.417 124.418 290.441 124.365C290.464 124.313 290.498 124.265 290.54 124.225C290.582 124.185 290.631 124.154 290.685 124.134L290.677 124.138Z" fill="#263238"/>
<path d="M286.44 111.689L287.583 113.194C287.601 113.221 287.627 113.242 287.658 113.253C287.689 113.264 287.722 113.265 287.754 113.255L289.164 112.646C289.311 112.581 289.445 112.813 289.392 113.052L288.864 115.194C288.831 115.283 288.831 115.38 288.864 115.47L289.677 117.412C289.766 117.619 289.677 117.883 289.51 117.867L288.042 117.692C288.009 117.692 287.977 117.701 287.95 117.72C287.923 117.739 287.902 117.766 287.892 117.798L286.989 119.611C286.896 119.794 286.701 119.729 286.664 119.497L286.29 117.238C286.278 117.156 286.234 117.081 286.168 117.031L284.786 116.22C284.717 116.151 284.676 116.06 284.669 115.963C284.663 115.866 284.691 115.77 284.749 115.693L285.969 114.476C286.024 114.411 286.056 114.329 286.058 114.245L286.095 111.92C286.148 111.657 286.327 111.531 286.44 111.689Z" fill="#E0E0E0"/>
<path d="M319.971 113.421C315.621 113.794 313.762 114.585 310.502 120.455C306.956 126.831 300.15 138.359 299.284 139.819C298.064 141.815 297.857 144.926 298.878 146.788C299.845 148.528 302.882 149.319 306.399 145.393C310.542 140.732 318.247 129.322 318.247 129.322C318.247 129.322 324.821 120.71 319.971 113.421Z" fill="#D1D3D4"/>
<path d="M300.699 148.119C297.365 147.713 289.583 137.167 287.355 133.743C285.607 130.949 283.313 128.535 280.61 126.645C280.082 126.293 279.629 125.841 279.276 125.314C279.011 124.796 278.88 124.221 278.894 123.639C278.942 122.879 278.928 122.117 278.854 121.359C278.735 120.925 278.668 120.479 278.654 120.029C278.695 119.599 278.915 119.197 278.988 118.763C279.027 118.233 279.009 117.7 278.935 117.173C278.909 116.818 278.981 116.461 279.142 116.143C279.342 115.843 279.579 115.57 279.85 115.332C280.198 115.034 280.567 114.763 280.956 114.521L282.106 117.664L283.212 120.67C283.619 121.075 284.338 121.83 284.806 121.043C284.915 120.838 284.976 120.61 284.985 120.378C285.066 119.611 284.985 118.828 285.139 118.074C285.218 117.59 285.415 117.133 285.713 116.743C285.916 116.504 286.526 115.932 286.835 116.236C286.929 116.331 286.99 116.453 287.009 116.585C287.028 116.935 287.028 117.286 287.009 117.636C287.066 118.082 287.229 118.528 287.314 118.966C287.488 119.871 287.596 120.788 287.636 121.708C287.62 122.386 287.654 123.064 287.737 123.736C287.813 124.526 288.093 125.282 288.55 125.931C289.416 127.172 301.036 138.274 301.036 138.274L300.699 148.119Z" fill="#F9B499"/>
<path d="M320.804 113.21C318.166 113.141 315.007 113.563 312.551 116.739C310.095 119.915 300.284 137.199 300.284 137.199L294.783 132.275C293.717 132.946 292.794 133.821 292.068 134.849C291.342 135.877 290.826 137.038 290.551 138.266C292.051 140.63 293.717 142.885 295.535 145.016C297.865 147.563 300.459 149.327 302.59 148.549C304.72 147.77 306.883 146.078 311.469 139.718C316.056 133.358 321.056 125.837 321.056 125.837C321.056 125.837 324.211 118.447 320.804 113.21Z" fill="#AFBED0"/>
<path d="M326.383 108.136L326.208 106.598C326.208 106.598 329.46 105.974 331.453 104.789C331.457 104.789 329.79 107.795 326.383 108.136Z" fill="#F4A48E"/>
<path d="M326.029 83.725C321.231 84.731 319.841 86.8403 319.394 94.4417C318.922 102.388 319.735 104.887 320.776 105.958C321.483 106.676 325.448 106.809 327.387 106.262C329.871 105.597 335.47 103.601 338.064 99.6054C341.154 94.9001 341.959 88.5317 338.657 85.9154C334.039 82.2323 327.981 83.3113 326.029 83.725Z" fill="#F9B499"/>
<path d="M319.097 86.8728C318.983 87.6 319.113 88.3443 319.467 88.9902C319.789 89.5443 320.261 89.9968 320.829 90.2959C321.397 90.595 322.038 90.7287 322.679 90.6817C322.459 90.6817 323.285 91.7525 323.346 91.8134C323.511 91.9737 323.707 92.0993 323.922 92.1829C324.137 92.2665 324.367 92.3063 324.598 92.3001C324.773 93.3629 324.691 94.4743 325.879 94.9611C325.879 94.9611 326.635 92.0243 329.131 92.3975C331.628 92.7707 331.977 95.9467 330.396 97.8694C328.814 99.7921 327.371 99.0863 327.358 99.062C327.497 99.135 327.55 100.072 327.598 100.246C327.765 100.808 327.989 101.352 328.265 101.869C328.806 102.902 329.575 103.799 330.514 104.493C331.301 105.137 332.228 105.589 333.221 105.812C334.124 105.958 335.177 105.552 336.067 105.43C338.366 102.307 340.294 98.9289 341.812 95.3626C342.588 93.7928 343.057 92.0899 343.195 90.345C343.195 88.9253 343.154 87.4083 342.28 86.2116C341.913 85.7101 341.449 85.2876 340.914 84.9697C340.38 84.6519 339.786 84.4451 339.17 84.362C339.049 83.5853 338.744 82.8486 338.28 82.2135C337.816 81.5784 337.207 81.0633 336.502 80.7113C335.082 80.0152 333.503 79.7032 331.924 79.8068C330.351 79.8473 328.79 80.1191 327.257 80.2773C324.015 80.5202 320.757 80.4523 317.527 80.0745C317.413 80.0499 317.293 80.0627 317.186 80.111C317.08 80.1985 317.011 80.3234 316.995 80.4598C316.487 82.6218 317.495 84.8568 319.747 85.3923C319.409 85.8231 319.185 86.3325 319.097 86.8728Z" fill="#4F4F4F"/>
<path d="M325.846 96.6566L325.935 93.3304C325.717 93.3246 325.499 93.3618 325.294 93.4399C325.09 93.5181 324.903 93.6357 324.744 93.786C324.585 93.9363 324.457 94.1163 324.368 94.3159C324.279 94.5154 324.23 94.7305 324.224 94.9489C324.218 95.1673 324.255 95.3847 324.334 95.5887C324.412 95.7927 324.53 95.9794 324.68 96.1379C324.831 96.2965 325.011 96.4239 325.211 96.5129C325.411 96.6019 325.627 96.6507 325.846 96.6566Z" fill="#4F4F4F"/>
<path opacity="0.19" d="M346.206 72.0141C351.566 72.0141 355.911 67.6779 355.911 62.3288C355.911 56.9798 351.566 52.6436 346.206 52.6436C340.845 52.6436 336.5 56.9798 336.5 62.3288C336.5 67.6779 340.845 72.0141 346.206 72.0141Z" fill="url(#paint0_linear_28_10976)"/>
<path opacity="0.51" d="M75.8853 96.3873C79.4118 96.3873 82.2706 93.5345 82.2706 90.0154C82.2706 86.4963 79.4118 83.6436 75.8853 83.6436C72.3588 83.6436 69.5 86.4963 69.5 90.0154C69.5 93.5345 72.3588 96.3873 75.8853 96.3873Z" fill="url(#paint1_linear_28_10976)"/>
<path opacity="0.53" d="M88.842 290.309C91.24 290.309 93.184 288.369 93.184 285.976C93.184 283.583 91.24 281.644 88.842 281.644C86.444 281.644 84.5 283.583 84.5 285.976C84.5 288.369 86.444 290.309 88.842 290.309Z" fill="url(#paint2_linear_28_10976)"/>
<path opacity="0.6" d="M351.587 89.7996C353.844 89.7996 355.673 87.9738 355.673 85.7216C355.673 83.4693 353.844 81.6436 351.587 81.6436C349.33 81.6436 347.5 83.4693 347.5 85.7216C347.5 87.9738 349.33 89.7996 351.587 89.7996Z" fill="url(#paint3_linear_28_10976)"/>
<path d="M191.77 53.473C190.748 53.9828 189.726 53.473 189.215 52.4535L184.873 41.7487C184.363 40.7292 184.873 39.7097 185.895 39.2C186.917 38.6902 187.938 39.2 188.449 40.2195L192.791 50.9243C193.302 52.1986 192.791 53.2181 191.77 53.473Z" fill="url(#paint4_linear_28_10976)"/>
<path d="M183.852 63.6689C183.341 64.1786 182.83 64.4335 182.064 64.1786L171.081 62.1396C170.06 61.8847 169.293 60.8652 169.549 59.8457C169.804 58.8262 170.826 58.0616 171.847 58.3165L182.83 60.3555C183.852 60.6104 184.618 61.6299 184.363 62.6494C184.107 63.1591 184.107 63.414 183.852 63.6689Z" fill="url(#paint5_linear_28_10976)"/>
<path d="M206.329 52.1996C206.073 52.1996 205.818 51.9447 205.307 51.9447C204.541 51.1801 204.286 50.1606 205.052 49.1411L211.948 40.2205C212.714 39.4558 213.736 39.201 214.757 39.9656C215.524 40.7302 215.779 41.7497 215.013 42.7692L208.117 51.6899C207.606 51.9447 206.84 52.1996 206.329 52.1996Z" fill="url(#paint6_linear_28_10976)"/>
<defs>
<filter id="filter0_d_28_10976" x="236.505" y="95.3748" width="36.5979" height="47.9915" filterUnits="userSpaceOnUse" color-interpolation-filters="sRGB">
<feFlood flood-opacity="0" result="BackgroundImageFix"/>
<feColorMatrix in="SourceAlpha" type="matrix" values="0 0 0 0 0 0 0 0 0 0 0 0 0 0 0 0 0 0 127 0" result="hardAlpha"/>
<feOffset dy="6"/>
<feGaussianBlur stdDeviation="3"/>
<feComposite in2="hardAlpha" operator="out"/>
<feColorMatrix type="matrix" values="0 0 0 0 0.152941 0 0 0 0 0.682353 0 0 0 0 0.376471 0 0 0 0.35 0"/>
<feBlend mode="normal" in2="BackgroundImageFix" result="effect1_dropShadow_28_10976"/>
<feBlend mode="normal" in="SourceGraphic" in2="effect1_dropShadow_28_10976" result="shape"/>
</filter>
<linearGradient id="paint0_linear_28_10976" x1="338.991" y1="54.2952" x2="353.067" y2="70.6847" gradientUnits="userSpaceOnUse">
<stop stop-color="#00D27B"/>
<stop offset="1" stop-color="#02C06D"/>
</linearGradient>
<linearGradient id="paint1_linear_28_10976" x1="97.7587" y1="88.0234" x2="74.2036" y2="99.2782" gradientUnits="userSpaceOnUse">
<stop stop-color="#1970E2"/>
<stop offset="0.0001" stop-color="#1970E2"/>
<stop offset="1" stop-color="#86BAFF"/>
</linearGradient>
<linearGradient id="paint2_linear_28_10976" x1="84.3111" y1="284.857" x2="94.4088" y2="286.083" gradientUnits="userSpaceOnUse">
<stop stop-color="#27BCFE"/>
<stop offset="1" stop-color="#0083CC"/>
</linearGradient>
<linearGradient id="paint3_linear_28_10976" x1="345.969" y1="85.6995" x2="355.7" y2="85.6995" gradientUnits="userSpaceOnUse">
<stop stop-color="#E63756"/>
<stop offset="1" stop-color="#FC97A9"/>
</linearGradient>
<linearGradient id="paint4_linear_28_10976" x1="183.115" y1="46.2967" x2="193.019" y2="46.2967" gradientUnits="userSpaceOnUse">
<stop stop-color="#E63756"/>
<stop offset="1" stop-color="#FC97A9"/>
</linearGradient>
<linearGradient id="paint5_linear_28_10976" x1="166.706" y1="61.2566" x2="184.462" y2="61.2566" gradientUnits="userSpaceOnUse">
<stop stop-color="#E63756"/>
<stop offset="1" stop-color="#FC97A9"/>
</linearGradient>
<linearGradient id="paint6_linear_28_10976" x1="202.55" y1="45.8174" x2="215.512" y2="45.8174" gradientUnits="userSpaceOnUse">
<stop stop-color="#E63756"/>
<stop offset="1" stop-color="#FC97A9"/>
</linearGradient>
</defs>
</svg>
