<svg width="85" height="40" viewBox="0 0 85 40" fill="none" xmlns="http://www.w3.org/2000/svg">
<g clip-path="url(#clip0_28_11851)">
<path d="M84.6676 32.299C84.6676 39.5223 75.331 42.9904 70.3914 34.6006C70.0373 33.9951 62.2533 20.5894 62.2533 20.5894V32.2993C62.2533 39.5223 52.9212 42.9904 47.9817 34.6006C47.6229 33.9951 39.8431 20.5894 39.8431 20.5894V31.6308C39.8431 36.6421 36.8688 39.3564 32.2163 39.3564H20.0356C14.9024 39.3564 9.97945 37.3172 6.34975 33.6875C2.72005 30.0578 0.680908 25.1349 0.680908 20.0017C0.680908 14.8685 2.72005 9.9456 6.34975 6.3159C9.97945 2.6862 14.9024 0.647054 20.0356 0.647054H26.3167V5.29505H20.0356C18.1043 5.29505 16.1919 5.67545 14.4076 6.41453C12.6233 7.15361 11.002 8.23689 9.63638 9.60253C8.27075 10.9682 7.18746 12.5894 6.44838 14.3737C5.70931 16.158 5.32891 18.0704 5.32891 20.0017C5.32891 21.933 5.70931 23.8454 6.44838 25.6297C7.18746 27.414 8.27075 29.0352 9.63638 30.4009C11.002 31.7665 12.6233 32.8498 14.4076 33.5889C16.1919 34.328 18.1043 34.7084 20.0356 34.7084H32.1085C32.9189 34.6924 33.6918 34.3636 34.2655 33.7909C34.8391 33.2182 35.1691 32.4458 35.1864 31.6354V7.83395C35.1749 7.62163 35.2355 7.41167 35.3585 7.23819C35.4814 7.06472 35.6595 6.93794 35.8636 6.87846C36.3571 6.74406 36.8776 7.0489 37.2591 7.695L44.7918 20.6744C49.1703 28.225 52.0466 33.1827 52.0823 33.2366C53.0647 34.8963 54.5274 35.1882 55.5728 34.9009C56.1702 34.7335 56.6949 34.3718 57.0638 33.873C57.4326 33.3741 57.6248 32.7666 57.6098 32.1464V7.83885C57.5975 7.62701 57.6567 7.41717 57.7779 7.24301C57.8991 7.06885 58.0754 6.94046 58.2783 6.87846C58.7673 6.74406 59.2828 7.0489 59.6598 7.695L66.6409 19.7231L74.4879 33.2499C75.2547 34.5509 76.3226 35.0132 77.2515 35.0132C77.4955 35.0132 77.7384 34.98 77.9735 34.9145C78.5788 34.7518 79.1118 34.3903 79.4869 33.8882C79.862 33.3862 80.0575 32.7726 80.042 32.146V0.647403H84.6809L84.6676 32.299ZM28.69 26.8932V7.6999C28.69 0.476602 38.0263 -2.9912 42.9658 5.40285C43.3246 6.00835 51.1044 19.4099 51.1044 19.4099V7.69956C51.1044 0.476255 60.4361 -2.99155 65.3756 5.4025C65.7347 6.008 73.5142 19.4095 73.5142 19.4095V0.646704H78.1709V32.1464C78.1826 32.3593 78.1221 32.5699 77.9992 32.7441C77.8763 32.9184 77.6982 33.046 77.4937 33.1064C77.0002 33.2408 76.4797 32.936 76.0982 32.2899C73.4768 27.7882 70.8627 23.2823 68.2561 18.7722L61.275 6.75316C60.2971 5.09276 58.839 4.8012 57.8027 5.08365C57.2055 5.25069 56.6808 5.61155 56.3112 6.10945C55.9417 6.60735 55.7481 7.21401 55.7611 7.83395V32.1464C55.772 32.3591 55.7112 32.5694 55.5884 32.7434C55.4656 32.9175 55.2879 33.0453 55.0839 33.1064C54.5858 33.2408 54.0654 32.936 53.6884 32.2899C53.6212 32.1779 49.9469 25.8474 46.3979 19.7277C43.887 15.3973 41.3746 11.0678 38.8607 6.73915C37.8828 5.0749 36.4201 4.7879 35.3747 5.07035C34.7771 5.23731 34.252 5.59802 33.8817 6.09583C33.5114 6.59364 33.317 7.20034 33.3289 7.82065V31.6214C33.3087 31.938 33.1735 32.2363 32.9488 32.4603C32.724 32.6842 32.4252 32.8183 32.1085 32.8373H20.0265C16.6186 32.8373 13.3504 31.4835 10.9407 29.0738C8.53101 26.6641 7.17726 23.3959 7.17726 19.9881C7.17726 16.5802 8.53101 13.312 10.9407 10.9023C13.3504 8.49261 16.6186 7.13885 20.0265 7.13885H26.3079V11.7869H20.0804C17.9053 11.7869 15.8193 12.6509 14.2812 14.1889C12.7432 15.727 11.8792 17.813 11.8792 19.9881C11.8792 22.1631 12.7432 24.2492 14.2812 25.7872C15.8193 27.3252 17.9053 28.1893 20.0804 28.1893H27.4069C27.5769 28.1905 27.7454 28.1577 27.9026 28.0928C28.0597 28.0279 28.2022 27.9322 28.3218 27.8114C28.4414 27.6905 28.5356 27.547 28.5988 27.3892C28.662 27.2313 28.693 27.0625 28.69 26.8925V26.8932Z" fill="#BFCBE2"/>
</g>
<defs>
<clipPath id="clip0_28_11851">
<rect width="84" height="40" fill="white" transform="translate(0.680908)"/>
</clipPath>
</defs>
</svg>
