<svg width="202" height="32" viewBox="0 0 202 32" fill="none" xmlns="http://www.w3.org/2000/svg">
<path fill-rule="evenodd" clip-rule="evenodd" d="M0.680908 1.3803H5.68356V30.6194H0.680908V1.3803ZM41.1736 20.0724L20.8749 0.910385V30.6194H25.6942V11.5879L45.9929 31.0632V1.3803H41.1736V20.0724ZM72.0801 14.329L67.3131 12.606C64.8511 11.7445 63.4629 10.883 63.4629 8.74228C63.4629 6.36661 65.6631 5.21793 68.6489 5.21793C72.1063 5.21793 74.804 6.49714 77.2399 8.35069V3.25995C74.8826 1.74579 71.8443 0.884277 68.5442 0.884277C63.1224 0.884277 58.5912 3.70376 58.5912 8.84671C58.5912 13.6503 61.5771 15.7649 65.5059 17.1746L69.7752 18.6888C72.4206 19.6808 73.9135 20.5945 73.9135 22.8919C73.9135 25.5025 71.5562 26.7034 68.2037 26.7034C64.7463 26.7034 61.5247 25.4764 58.827 23.3096V28.5309C60.8961 29.9667 64.2487 31.1154 68.2037 31.1154C74.2016 31.1154 78.7852 28.1654 78.7852 22.8397C78.8114 18.5844 76.6898 15.9998 72.0801 14.329ZM90.0477 1.3803H95.0504V30.6194H90.0477V1.3803ZM121.819 1.3803H110.504V30.6194H121.819C130.514 30.6194 136.146 24.9021 136.146 15.9998C136.146 7.09758 130.514 1.3803 121.819 1.3803ZM121.635 26.1813H115.506V5.74005H121.635C127.843 5.74005 131.143 9.6821 131.143 15.9737C131.143 22.2392 127.816 26.1813 121.635 26.1813ZM147.487 30.6194H165.402V26.1813H152.384V17.1224H164.04V12.7888H152.384V5.74005H165.376V1.3803H147.46V30.6194H147.487ZM191.332 18.5844C195.994 17.8795 198.194 15.06 198.194 10.152C198.194 4.43474 194.265 1.3803 188.136 1.3803H177.424V30.6194H182.427V18.7671H185.989L196.256 30.6194H201.94L191.332 18.5844ZM182.453 14.6162V5.66173H188.058C191.384 5.66173 193.244 7.41086 193.244 10.1259C193.244 12.841 191.358 14.5901 188.058 14.5901H182.453V14.6162Z" fill="#BFCBE2"/>
</svg>
