<svg width="185" height="40" viewBox="0 0 185 40" fill="none" xmlns="http://www.w3.org/2000/svg">
<path d="M12.5146 18.0826V24.2665C12.5146 24.5796 12.5146 24.971 12.4364 25.2059C12.4364 25.9886 12.5146 26.5366 12.6712 27.0063C12.7495 27.3976 12.9843 27.789 13.3757 27.9456C13.6888 28.1804 14.315 28.337 15.1761 28.4935C16.1154 28.5718 16.5068 28.8849 16.5068 29.4329C16.5068 30.0591 16.1937 30.3722 15.4892 30.3722C14.7847 30.3722 13.6888 30.3722 12.045 30.2939C10.4011 30.2157 9.22696 30.2157 8.44418 30.2157C7.89624 30.2157 6.80035 30.2157 5.31307 30.2939C3.82579 30.3722 2.65162 30.3722 1.94712 30.3722C1.63401 30.3722 1.32089 30.2939 1.08606 30.2157C0.929505 30.1374 0.772949 29.9025 0.772949 29.4329C0.772949 29.1198 0.851227 28.8849 1.08606 28.7284C1.32089 28.5718 1.63401 28.4935 1.94712 28.4935C2.80817 28.4153 3.51267 28.1804 3.82579 27.9456C4.21718 27.7108 4.53029 27.3194 4.60857 26.928C4.68684 26.5366 4.76512 25.9104 4.76512 25.1276V24.1883V8.14129V7.20195C4.76512 6.02778 4.60857 5.16673 4.37373 4.61879C4.1389 4.07084 3.35612 3.83601 2.26023 3.67945C1.71228 3.60117 1.39917 3.5229 1.16434 3.44462C1.08606 3.36634 0.929506 3.20978 0.929506 2.81839C0.929506 2.427 1.00778 2.19217 1.16434 2.11389C1.32089 2.03562 1.55573 1.95734 1.94712 1.95734C2.88645 1.95734 4.06062 1.95734 5.62618 2.03561C7.27001 2.11389 8.28763 2.11389 8.99213 2.11389C9.93146 2.11389 10.9491 2.11389 12.2798 2.03561C13.6105 1.95734 14.5499 1.95734 15.5675 1.95734C16.272 1.95734 16.5851 2.19217 16.5851 2.74012C16.5851 3.05323 16.5068 3.28806 16.3502 3.36634C16.1937 3.44462 15.8023 3.60117 15.4109 3.67945C14.4716 3.83601 13.7671 3.99256 13.454 4.30567C13.1409 4.54051 12.8277 4.9319 12.7495 5.40157C12.6712 5.94951 12.6712 6.73229 12.6712 8.06301V13.7773C12.6712 13.9339 12.6712 14.0904 12.5929 14.3252C12.6712 14.5601 12.7495 14.6384 12.8277 14.6384C12.906 14.6384 13.3757 14.4035 14.0019 13.7773C14.2367 13.4642 14.7847 12.9945 15.4892 12.29C16.1937 11.5855 16.8199 10.9593 17.4461 10.3331C18.0724 9.70685 19.2465 8.4544 20.9686 6.65401C22.0645 5.47984 22.6908 4.69706 22.6908 4.2274C22.6908 3.67945 22.2994 3.5229 21.4383 3.5229C20.7338 3.44462 20.2641 3.36634 19.951 3.28806C19.6379 3.20978 19.5596 2.97495 19.5596 2.50528C19.5596 2.19217 19.6379 1.95734 19.7945 1.87906C19.951 1.80078 20.3424 1.80078 20.7338 1.80078H31.3796H31.6927C32.3972 1.80078 32.7103 1.95734 32.7103 2.427C32.7103 3.20978 31.8493 3.5229 30.2054 3.5229C28.3268 3.5229 26.6829 4.14912 25.2739 5.40157L20.5773 9.78513C19.4814 10.881 18.8551 11.6638 18.8551 11.9769C18.8551 12.2117 19.09 12.6031 19.4814 12.9945L29.9706 25.3624C31.0665 26.6149 31.771 27.4759 32.1624 27.789C32.4755 28.0239 32.9452 28.1804 33.4931 28.337C34.1193 28.4153 34.4324 28.4935 34.589 28.4935C34.7455 28.5718 34.8238 28.7284 34.8238 29.198C34.8238 29.9025 34.1976 30.2939 32.9452 30.2939C32.2407 30.2939 31.1448 30.2939 29.6575 30.2157C28.1702 30.1374 27.0743 30.1374 26.3698 30.1374C25.6653 30.1374 24.6477 30.1374 23.317 30.2157C21.9863 30.2939 20.8904 30.2939 20.3424 30.2939C19.4814 30.2939 19.1683 29.9808 19.1683 29.198C19.1683 28.8849 19.2465 28.6501 19.4814 28.4935C19.6379 28.4153 20.0293 28.337 20.3424 28.2587C20.6555 28.1804 21.0469 28.1804 21.2035 28.1021C21.36 28.0239 21.4383 27.8673 21.4383 27.5542C21.4383 27.3976 21.36 27.2411 21.2818 27.0063C21.2035 26.7714 21.0469 26.6931 20.8904 26.38C20.7338 26.1452 20.499 25.9886 20.2641 25.6755L13.8454 17.6912C13.2191 16.9084 12.8277 16.5953 12.5929 16.517C12.5146 16.517 12.3581 16.7519 12.2798 17.3781C12.4364 17.7695 12.5146 17.926 12.5146 18.0826Z" fill="#BFCBE2"/>
<path d="M32.9452 15.1857C32.3972 14.168 32.0058 13.3853 31.6927 12.9156C31.3796 12.2894 30.9882 11.9763 30.7534 11.8197C30.5186 11.6632 30.2055 11.5066 29.9706 11.5066C29.7358 11.5066 29.4227 11.4283 29.2661 11.4283C28.4051 11.2718 28.0137 10.8804 28.0137 10.4107C28.0137 9.94104 28.5616 9.62793 29.501 9.62793H40.773C41.7906 9.62793 42.4168 9.86276 42.4168 10.4107C42.4168 10.8021 42.182 11.1152 41.634 11.2718C41.0861 11.4283 40.6947 11.5066 40.1467 11.6632C39.5988 11.8197 39.364 12.0545 39.364 12.5242C39.364 12.759 39.5988 13.4635 40.1467 14.4812L43.5127 21.6044C43.591 21.6827 43.6693 21.8393 43.8258 22.1524C43.9824 22.3872 44.0606 22.5438 44.1389 22.7786C44.2172 22.9352 44.2955 22.9352 44.452 22.9352C44.6086 22.9352 44.8434 22.7786 45 22.3872C45.1565 22.0741 45.2348 21.761 45.3914 21.4479L48.3659 14.6377C48.679 13.8549 48.9139 13.307 48.9139 12.8373C48.9139 12.2894 48.7573 11.9763 48.3659 11.8197C48.0528 11.6632 47.5049 11.5849 46.8786 11.5066C46.1741 11.4283 45.7828 11.35 45.5479 11.2718C45.3131 11.1935 45.1565 10.9587 45.1565 10.489C45.1565 9.94104 45.7045 9.70621 46.7221 9.70621H54.3933C54.9413 9.70621 55.1761 9.70621 55.3327 9.78448C55.4892 9.86276 55.5675 10.0193 55.5675 10.4107C55.5675 11.0369 55.1761 11.35 54.3933 11.4283C53.6888 11.5066 53.1409 11.5849 52.8278 11.7414C52.5147 11.898 52.1233 12.2894 51.7319 12.9156C51.3405 13.5418 50.7143 14.716 49.9315 16.3598L43.2779 30.3716C43.1996 30.5281 42.7299 31.5457 42.0254 33.4244C41.1644 35.3813 40.773 36.4772 40.6947 36.7121C40.3033 37.8862 39.9902 38.669 39.8336 38.9821C39.6771 39.2952 39.4422 39.6084 38.9726 39.7649C38.5029 39.9215 37.8767 39.9997 36.9374 39.9997C35.6066 39.9997 34.6673 39.8432 33.9628 39.4518C33.2583 39.1387 33.0235 38.4342 33.0235 37.4949C33.0235 35.6162 33.8062 34.5986 35.4501 34.442C36.2328 34.5203 36.9374 34.5986 37.4853 34.5986C38.2681 34.5986 38.9726 34.2855 39.5988 33.6592C40.3033 33.033 40.6164 32.4068 40.6164 31.5457C40.6164 30.8412 40.3033 30.0585 39.6771 29.0408L32.9452 15.1857Z" fill="#BFCBE2"/>
<path d="M58.229 17.3773V16.5162C58.229 15.7335 58.0725 15.2638 57.8376 14.7941C57.6028 14.4027 57.0548 14.1679 56.1938 14.0896C56.1155 14.0896 56.0372 14.0896 55.959 14.1679C55.6458 14.0896 55.2545 14.0113 55.0979 13.9331C54.9413 13.8548 54.8631 13.6982 54.8631 13.3068C54.8631 13.072 55.0196 12.7589 55.2545 12.6806C55.5676 12.5241 56.0372 12.4458 56.7417 12.2892C57.6811 12.1327 58.6987 11.663 59.8729 11.1933C61.047 10.5671 61.9081 10.0192 62.5343 9.23639C63.0823 8.68845 63.5519 8.45361 64.1781 8.45361C64.413 8.45361 64.5695 8.53189 64.8044 8.76672C64.8826 9.00155 64.9609 9.47123 64.9609 10.0192V23.9526C64.9609 24.8137 64.9609 25.4399 64.8826 25.8313C64.8826 26.5358 64.9609 27.0055 65.0392 27.3186C65.1175 27.5534 65.1958 27.8665 65.3523 27.9448C65.5089 28.1014 65.7437 28.1796 66.2134 28.1796C66.5265 28.2579 67.0744 28.2579 67.7006 28.3362C68.0138 28.3362 68.3269 28.4927 68.4834 28.6493C68.64 28.8059 68.7183 28.9624 68.7183 29.1973C68.7183 29.8235 68.3269 30.1366 67.3875 30.1366H55.959C55.0196 30.1366 54.4717 29.8235 54.4717 29.1973C54.4717 28.8841 54.6282 28.571 54.8631 28.4928C55.0979 28.4145 55.5676 28.3362 56.0372 28.2579C56.5852 28.2579 56.9766 28.1796 57.2114 28.1014C57.4462 28.0231 57.6028 27.8665 57.7593 27.5534C57.9942 27.0055 58.0725 25.8313 58.0725 23.9526L58.229 17.3773Z" fill="#BFCBE2"/>
<path d="M57.4458 3.44423C57.4458 2.42662 57.8372 1.56556 58.62 0.939335C59.481 0.313112 60.3421 0 61.3597 0C62.3773 0 63.3166 0.313112 64.1777 0.939335C64.9605 1.56556 65.3519 2.42661 65.3519 3.5225C65.3519 4.69667 64.9605 5.55773 64.1777 6.26223C63.3949 6.96673 62.3773 7.20156 61.3597 7.20156C60.2638 7.20156 59.4027 6.88845 58.62 6.18395C57.9155 5.40118 57.4458 4.54012 57.4458 3.44423Z" fill="#BFCBE2"/>
<path d="M70.1272 14.5597C69.5792 13.5421 69.2661 12.8376 69.1095 12.4462C68.953 12.1331 68.5616 11.82 68.3268 11.5852C68.0136 11.4286 67.544 11.2721 66.996 11.1938C66.6046 11.1155 66.2915 11.0372 66.135 10.959C65.9784 10.8807 65.9001 10.7241 65.9001 10.3327C65.9001 9.70651 66.4481 9.47168 67.3874 9.47168H78.6594C79.5988 9.47168 79.9902 9.70651 79.9902 10.3327C79.9902 10.6458 79.9119 10.959 79.6771 11.0372C79.4422 11.1155 79.0508 11.1938 78.5812 11.2721C78.0332 11.3504 77.6418 11.4286 77.407 11.5069C77.1722 11.5852 77.0156 11.82 77.0156 12.2897C77.0156 12.4462 77.0939 12.6811 77.1722 13.0725C77.3287 13.3856 77.407 13.777 77.4853 13.9335L80.7729 21.2134C81.0861 22.0744 81.3992 22.4658 81.5557 22.4658C81.7906 22.4658 82.1037 22.1527 82.2602 21.3699L84.6868 16.047C85.3913 14.4815 85.7044 13.4639 85.7044 12.9159C85.6262 12.0549 84.9217 11.4286 83.6692 11.3504C83.1213 11.2721 82.7299 11.1938 82.4951 11.1155C82.2602 11.0372 82.1819 10.8024 82.1819 10.411C82.1819 9.78479 82.4951 9.54996 83.2778 9.54996H91.2622C92.1232 9.54996 92.5146 9.78479 92.5146 10.411C92.5146 10.8024 92.2015 11.1938 91.497 11.3504C90.4794 11.5069 89.7749 11.6635 89.4618 11.8983C89.1487 12.1331 88.7573 12.6028 88.4442 13.4639L80.6947 28.8846C80.3033 29.6674 79.9119 30.137 79.7553 30.4502C79.5205 30.685 79.1291 30.7633 78.5812 30.7633C78.2681 30.7633 77.9549 30.7633 77.7984 30.685C77.6418 30.6067 77.4853 30.5284 77.2504 30.4502C77.1722 30.2936 77.0156 30.137 76.8591 29.7457C76.7025 29.3543 76.6242 29.1194 76.5459 29.0412L70.1272 14.5597Z" fill="#BFCBE2"/>
<path d="M109.188 13.8554C109.188 14.7948 109.266 15.3427 109.422 15.4993C109.97 15.8906 110.753 16.1255 111.927 16.1255C113.102 16.1255 114.119 15.8124 114.902 15.1861C115.685 14.5599 116.154 13.8554 116.546 12.9161C116.859 11.9768 117.094 11.0374 117.094 10.0198C117.094 8.29769 116.546 6.96697 115.606 5.63624C114.589 4.46208 113.336 3.83585 111.771 3.83585C110.753 3.83585 110.127 4.07069 109.736 4.61863C109.422 5.16658 109.188 5.87108 109.188 7.04525V9.08047V13.8554ZM109.188 18.6304V24.2664C109.188 25.3623 109.188 26.145 109.266 26.693C109.344 27.2409 109.579 27.5541 109.97 27.8672C110.362 28.1803 110.988 28.4151 111.849 28.5717C112.788 28.6499 113.18 28.9631 113.18 29.511C113.18 30.1372 112.867 30.4503 112.162 30.4503C111.458 30.4503 110.362 30.4503 108.718 30.3721C107.074 30.2938 105.9 30.2938 105.117 30.2938C104.569 30.2938 103.473 30.2938 101.986 30.3721C100.421 30.4503 99.3246 30.4503 98.6201 30.4503C98.307 30.4503 97.9939 30.3721 97.7591 30.2938C97.6025 30.2155 97.4459 29.9807 97.4459 29.511C97.4459 29.1979 97.5242 28.9631 97.7591 28.8065C97.9939 28.6499 98.307 28.5717 98.6201 28.5717C99.4812 28.4934 100.186 28.2586 100.499 28.0237C100.89 27.7889 101.203 27.3975 101.282 27.0061C101.36 26.6147 101.438 25.9885 101.438 25.2057V24.2664V8.14114V7.2018C101.438 6.34074 101.36 5.63624 101.282 5.24485C101.203 4.85347 100.968 4.46208 100.577 4.22724C100.264 3.99241 99.6377 3.83585 98.855 3.6793C98.2287 3.60102 97.9156 3.52274 97.6808 3.44446C97.4459 3.36619 97.3677 3.20963 97.3677 2.81824C97.3677 2.19202 97.6808 1.87891 98.3853 1.87891C99.3246 1.87891 100.342 1.87891 101.438 1.95718C102.534 2.03546 103.473 2.03546 104.178 2.03546C105.665 2.03546 107.309 2.03546 109.188 1.95718C111.066 1.87891 112.632 1.87891 113.884 1.87891C115.528 1.87891 116.781 1.95718 117.798 2.19202C118.816 2.34857 119.755 2.81824 120.694 3.36618C122.965 4.85346 124.217 6.96697 124.217 9.78497C124.217 11.2723 123.826 12.603 123.121 14.012C122.417 15.3427 121.399 16.4386 120.068 17.2996C118.738 18.1607 117.094 18.5521 115.215 18.5521C114.432 18.5521 113.728 18.4738 113.18 18.3955C112.554 18.3173 111.927 18.0824 110.988 17.7693C110.127 17.5345 109.501 17.4562 109.188 17.4562C108.875 17.4562 108.64 17.6128 108.561 18.0824C109.188 18.1607 109.188 18.3955 109.188 18.6304Z" fill="#BFCBE2"/>
<path d="M131.106 18.6306C131.106 20.2745 131.341 21.9183 131.81 23.4838C132.358 25.1277 132.984 26.3801 133.845 27.476C134.785 28.4936 135.802 29.0416 136.977 29.0416C138.464 29.0416 139.638 28.2588 140.577 26.7715C141.517 25.206 141.908 23.1707 141.908 20.5093C141.908 18.7089 141.673 17.0651 141.125 15.4995C140.577 13.934 139.951 12.6815 139.012 11.8204C138.151 10.8811 137.133 10.4897 136.115 10.4897C135.176 10.4897 134.315 10.8028 133.532 11.5073C132.75 12.2118 132.202 13.1512 131.732 14.4036C131.262 15.5778 131.106 17.0651 131.106 18.6306ZM123.748 19.8048C123.748 17.7696 124.374 15.8909 125.548 14.1688C126.722 12.5249 128.366 11.2725 130.323 10.3332C132.28 9.39383 134.315 9.00244 136.507 9.00244C138.307 9.00244 140.029 9.23727 141.517 9.8635C143.082 10.4114 144.413 11.1159 145.509 12.1336C146.605 13.0729 147.466 14.1688 148.092 15.4995C148.718 16.8302 149.031 18.0827 149.031 19.4134C149.031 21.6052 148.405 23.4838 147.231 25.206C146.057 26.9281 144.413 28.1805 142.456 29.1199C140.499 30.0592 138.464 30.4506 136.194 30.4506C134.08 30.4506 132.123 30.0592 130.088 29.2764C128.209 28.4154 126.566 27.2412 125.391 25.5973C124.296 24.0318 123.748 22.0749 123.748 19.8048Z" fill="#BFCBE2"/>
<path d="M150.205 24.971C150.284 24.3448 150.362 23.9534 150.44 23.7185C150.518 23.4837 150.753 23.4054 151.301 23.4054C151.693 23.4054 152.084 23.6403 152.397 24.2665C152.71 24.8927 153.102 25.5189 153.571 26.3017C153.963 27.1628 154.667 27.789 155.45 28.2586C156.233 28.7283 157.329 29.0414 158.581 29.0414C159.207 29.0414 159.834 28.9631 160.538 28.7283C161.243 28.5718 161.79 28.1804 162.338 27.789C162.886 27.3976 163.121 26.7714 163.121 26.1451C163.121 25.2841 162.808 24.6579 162.182 24.1882C161.556 23.7185 160.616 23.2489 159.364 22.8575C157.563 22.2312 156.389 21.8399 155.606 21.605C154.902 21.3702 154.041 20.9788 153.18 20.5091C152.319 19.9612 151.536 19.4132 151.066 18.6305C150.597 17.8477 150.205 16.9866 150.205 15.969C150.205 14.7949 150.597 13.5424 151.379 12.5248C152.241 11.5072 153.336 10.6461 154.745 10.0199C156.076 9.39368 157.642 9.08057 159.286 9.08057C161.086 9.08057 163.199 9.3154 165.626 9.94162C166.252 10.0982 166.644 10.2547 166.722 10.4896C166.8 10.7244 166.879 11.1158 166.879 11.742V12.7596C166.8 13.151 166.722 13.6207 166.644 14.0121C166.565 14.56 166.331 14.7166 165.939 14.7166C165.548 14.7166 165 14.4035 164.374 13.699C163.591 12.6814 163.121 11.9768 162.808 11.742C162.573 11.5072 162.104 11.1158 161.712 10.9592C161.164 10.7244 160.538 10.6461 159.677 10.6461C158.659 10.6461 157.72 10.8027 157.015 11.2723C156.311 11.6637 155.998 12.29 155.998 13.0727C155.998 13.9338 156.311 14.56 157.015 14.7949C157.72 15.108 159.207 15.6559 161.556 16.3604C163.826 17.1432 165.548 17.926 166.722 18.8653C167.818 19.8046 168.366 21.0571 168.366 22.8575C168.366 24.1882 167.974 25.5189 167.192 26.6931C166.409 27.8673 165.235 28.8066 163.591 29.5894C161.947 30.3722 160.068 30.6853 157.798 30.6853C155.215 30.6853 153.102 30.2939 151.458 29.3545C150.91 29.1197 150.597 28.8066 150.44 28.4935C150.284 28.2586 150.205 27.7107 150.205 26.9279V24.971Z" fill="#BFCBE2"/>
<path d="M178.307 13.4631V20.9778C178.307 22.2302 178.385 23.2479 178.464 24.2655C178.542 25.1265 178.777 25.831 179.09 26.379C179.403 26.9269 179.873 27.1617 180.577 27.1617C180.969 27.1617 181.438 27.0835 181.751 26.9269C182.065 26.7704 182.534 26.5355 182.926 26.2224C183.317 25.9876 183.63 25.831 183.787 25.831C183.943 25.831 184.021 25.9093 184.1 25.9876C184.178 26.0659 184.256 26.2224 184.256 26.379C184.256 26.7704 183.943 27.3183 183.239 28.0228C182.534 28.7273 181.673 29.2752 180.577 29.8232C179.481 30.3711 178.385 30.606 177.055 30.606C175.333 30.606 174.002 29.9797 172.984 28.8839C171.967 27.788 171.419 25.9876 171.419 23.6392V14.1676C171.419 13.0717 171.34 12.3672 171.262 12.1324C171.184 11.8976 170.871 11.741 170.245 11.741C169.931 11.741 169.54 11.741 169.227 11.8193C168.601 11.741 168.288 11.5062 168.288 11.1931C168.288 10.8799 168.366 10.8017 168.601 10.5668C168.836 10.4103 169.227 10.2537 169.697 9.94061C172.593 8.84472 174.55 7.20088 175.646 5.08738C176.194 4.06977 176.663 3.6001 177.211 3.6001C177.759 3.6001 177.994 3.91321 177.994 4.61771V5.32221V8.37505C177.994 9.00127 177.994 9.31438 178.072 9.39266C178.151 9.47094 178.385 9.54922 178.933 9.6275C179.09 9.54922 179.247 9.54922 179.481 9.54922H181.986H182.534C182.847 9.54922 183.239 9.6275 183.317 9.70578C183.474 9.78405 183.474 10.0189 183.474 10.4103C183.474 11.0365 183.395 11.3496 183.239 11.5062C183.082 11.5844 182.612 11.6627 181.908 11.6627H179.716C179.168 11.6627 178.777 11.6627 178.62 11.741C178.464 11.8193 178.385 11.8976 178.307 12.1324C178.307 12.4455 178.307 12.8369 178.307 13.4631Z" fill="#BFCBE2"/>
</svg>
