<svg width="170" height="44" viewBox="0 0 170 44" fill="none" xmlns="http://www.w3.org/2000/svg">
<path fill-rule="evenodd" clip-rule="evenodd" d="M169.681 0H0.743896V44H169.681V0ZM35.5072 14.4325H37.4278C37.4278 14.4325 37.4278 10.6488 37.5046 10.6488H29.3996V14.4325H31.3202V21.4148L23.1769 10.6488H16.9925V14.4325H18.9131V27.6559H16.9925V31.4396H25.0591V27.6559H23.1384V19.8545L31.8964 31.4396H35.5072V14.4325ZM50.2575 25.0814V24.1063C50.2575 19.8155 48.1832 16.4609 43.4585 16.4609C38.5033 16.4609 36.1218 20.4396 36.1218 24.1453C36.1218 28.28 38.4649 31.9857 43.4969 31.9857C48.6058 31.9857 49.9118 29.0602 49.9886 26.4857H46.1474C46.1474 27.968 45.1487 28.8651 43.7658 28.8651C42.1525 28.8651 41.077 28.007 41.3074 25.0814H50.2575ZM71.0385 20.4006H72.3445C72.3445 20.4006 72.3445 16.5779 72.4597 16.5779H65.9681V20.4006H67.8887L66.1601 26.3687L62.9335 16.5779H60.552L57.9015 26.3687L55.8657 20.4006H57.7863V16.5779H50.0654V20.4006H51.3714L55.0206 31.6736H59.4764L61.3202 25.5105L63.3561 31.6736H67.735L71.0385 20.4006ZM79.6428 21.8438C78.2216 21.4148 77.799 21.0637 77.799 20.5176C77.799 19.9325 78.2216 19.5034 79.2971 19.3474C80.5647 19.3474 81.7555 19.8935 81.8323 21.1807H85.7504V16.4999H81.986V17.6701C81.3714 17.007 80.219 16.3438 77.8375 16.3438C75.5327 16.3438 72.8439 17.8651 72.8439 20.9857C72.8439 23.5212 74.9565 24.9254 76.8003 25.5495L78.6441 26.1736C80.4879 26.7977 80.9104 27.2268 80.9104 27.8899C80.9104 28.475 80.3727 28.9431 79.2971 28.9431C77.9527 28.9431 76.4546 28.046 76.3394 26.3297H72.6134V31.5566H76.3778V30.2694C76.8387 30.8155 78.6057 31.9077 80.872 31.9077C83.7529 31.9077 86.0193 30.3864 86.0193 27.2658C86.0193 24.5743 83.6761 23.1701 81.7555 22.507L79.6428 21.8438ZM107.338 20.4006H108.644L108.606 16.5779H102.114V20.4006H104.111L102.383 26.3687L99.1562 16.5779H96.7747L94.2011 26.3687L92.1652 20.4006H94.0858V16.5779H86.365V20.4006H87.671L91.3202 31.6736H95.776L97.6198 25.5105L99.6556 31.6736H104.035L107.338 20.4006ZM122.319 25.0814V24.1063C122.319 19.7375 120.283 16.4609 115.597 16.4609C110.68 16.4609 108.222 20.4396 108.222 24.1453C108.222 28.28 110.565 31.9857 115.674 31.9857C120.706 31.9857 122.088 29.0602 122.127 26.4857H118.286C118.286 27.968 117.287 28.8651 115.904 28.8651C114.291 28.8651 113.215 28.007 113.446 25.0814H122.319ZM136.954 25.0424V24.0672C136.954 19.6595 134.918 16.3829 130.232 16.3829C125.315 16.3829 122.857 20.3616 122.857 24.0672C122.857 28.202 125.2 31.9077 130.309 31.9077C135.341 31.9077 136.723 28.9821 136.762 26.4467H132.921C132.921 27.929 131.922 28.8261 130.539 28.8261C128.926 28.8261 127.85 27.968 128.081 25.0424H136.954ZM148.67 31.6346H153.087C153.087 31.6346 153.087 27.8509 153.049 27.7729H151.128L147.402 22.819L150.629 20.4006H151.935V16.5779H143.714V20.4006H145.635L142.524 22.702V10.6488H136.339V14.5105H138.26V27.8899H136.954V31.6736H143.868V27.8509H142.562V26.6417L144.06 25.4715L148.67 31.6346ZM132.959 22.585H128.081C128.157 20.5956 129.425 19.6204 130.616 19.5814C131.576 19.5814 132.959 20.4396 132.959 22.585ZM118.324 22.585H113.446C113.522 20.6346 114.752 19.6595 115.942 19.5814C116.941 19.5814 118.324 20.4396 118.324 22.585ZM46.2626 22.663H41.3843C41.4611 20.6346 42.6519 19.6594 43.8811 19.6594C44.8798 19.6594 46.2626 20.5176 46.2626 22.663Z" fill="#BFCBE2"/>
</svg>
