<svg width="252" height="42" viewBox="0 0 252 42" fill="none" xmlns="http://www.w3.org/2000/svg">
<g clip-path="url(#clip0_28_11855)">
<path d="M33.6873 37.7C38.1664 37.3 42.6456 35.8 42.6456 31V15.9L40.5553 13.8L38.1664 15.9V27.3L40.0576 29L35.7775 32.8H35.5785L31.2984 29.2L32.3933 28.1V4.9C32.3933 3.2 30.9002 2.3 30.0044 2.1V1.7C30.4025 1.5 31.0993 1.3 31.8956 1.3C33.3886 1.3 34.6826 2.2 35.0808 3.2H35.2799C36.1757 1.9 37.6687 1.3 38.8632 1.3C39.2613 1.3 39.759 1.3 40.1572 1.5V1.9C39.5599 2.1 38.266 3 38.266 5.3V15L44.0391 9.6H44.4373C44.8354 10 47.2243 12.2 47.8215 12.6C48.0206 12.8 48.2197 12.8 48.7174 12.8C49.215 12.8 49.6132 12.6 50.0113 12.4V13C49.6132 13.4 48.9164 14.1 48.9164 15.1V28.2C48.9164 34 42.5461 37.6 33.9859 38.3V37.7H33.6873ZM31.4974 1.9C32.3933 2.5 33.1896 3.2 33.1896 4.7V28.5L32.2937 29.4L35.8771 32.4L36.972 31.5L34.1849 29.1L34.5831 28.7V4.9C34.5831 3 32.7914 2.1 31.4974 1.9ZM41.5507 36.2C43.2428 35.1 44.9349 33.8 44.9349 31.3V15L42.347 12.2L41.053 13.3L43.1433 15.7V31.1C43.5414 33.2 42.6456 34.9 41.5507 36.2ZM52.3007 15C54.8886 13.7 58.472 11.6 61.0599 9.6H61.4581C63.1502 11.3 65.5391 14.1 67.6294 16V16.4L58.2729 22.4V26.3C59.1687 26.9 61.8562 28.2 63.6479 28.9L67.5299 25.3L67.928 25.7L60.3632 33H59.965C57.3771 31.9 54.1919 30.4 52.1016 29.4C52.3007 28.5 52.4998 26.6 52.4998 24.3V15H52.3007ZM61.0599 31.5C58.472 30.4 56.3817 29.4 54.1919 28.3C54.391 27.7 54.391 26.6 54.391 24.2V14.5L52.8979 15.4V24.2C52.8979 26.6 52.8979 28.3 52.6988 28.9C54.59 30 57.3771 31.3 59.965 32.3C59.965 32.4 61.0599 31.5 61.0599 31.5ZM58.2729 21.9L62.553 19.1C61.0599 17.4 59.5669 15.7 58.2729 14.4V21.9ZM59.5669 12.4L58.472 13.3C59.766 14.8 61.4581 16.7 63.1502 18.7L64.4442 17.8C62.553 15.9 60.7613 13.9 59.5669 12.4ZM235.25 37.7C239.729 37.3 244.208 35.8 244.208 31V15.9L242.118 13.8L239.729 15.9V27.3L241.62 29L237.34 32.9H236.942L232.662 29.3L233.757 28.2V4.9C233.757 3.2 232.264 2.3 231.368 2.1V1.7C231.766 1.5 232.463 1.3 233.259 1.3C234.752 1.3 236.046 2.2 236.444 3.2H236.643C237.539 1.9 239.032 1.3 240.227 1.3C240.625 1.3 241.122 1.3 241.521 1.5V1.9C240.923 2.1 239.629 3 239.629 5.3V15L245.203 9.6H245.602C246 10 248.389 12.2 248.986 12.6C249.185 12.8 249.384 12.8 249.882 12.8C250.379 12.8 250.778 12.6 251.176 12.4V13.3C250.778 13.7 250.081 14.4 250.081 15.4V28.3C250.081 34.1 243.71 37.7 235.15 38.4C235.25 38.4 235.25 37.7 235.25 37.7ZM233.16 1.9C233.757 2.3 234.852 3.2 234.852 4.7V28.3L233.956 29.2L237.539 32.2L238.634 31.3L235.847 28.9L236.245 28.5V4.9C236.146 3 234.453 2.1 233.16 1.9ZM242.914 36C244.606 34.9 246.298 33.6 246.298 31.1V15L243.71 12.2L242.616 13.3L244.706 15.7V31.1C245.104 33.2 244.208 34.9 242.914 36ZM107.544 15C110.132 13.7 113.715 11.6 116.303 9.6H116.701C118.393 11.3 120.782 14.1 122.673 15.8V16.2L113.516 22.2V26.1C114.611 26.7 117.099 28 118.891 28.7L122.773 25.1L123.171 25.5L115.706 32.8H115.308C112.72 31.7 109.534 30.2 107.444 29.2C107.643 28.3 107.842 26.4 107.842 24.1V15.1H107.544V15ZM116.104 31.5C113.516 30.4 111.426 29.4 109.236 28.3C109.435 27.7 109.435 26.6 109.435 24.2V14.5L108.141 15.1V24C108.141 26.4 108.141 28.1 107.942 28.7C109.833 29.8 112.62 31.1 115.208 32.1C115.208 32.2 116.104 31.5 116.104 31.5ZM113.516 21.6L117.796 18.8C116.303 17.1 114.81 15.4 113.516 14.1V21.6ZM114.81 12.4L113.516 13.3C114.81 14.8 116.502 16.7 118.194 18.7L119.488 17.8C117.796 15.9 116.104 13.9 114.81 12.4ZM131.234 4.3V26.8C131.234 27.7 132.129 28.7 132.926 28.9L134.22 27.6L134.618 28L129.94 32.9H129.541C127.849 32.5 125.261 30.8 125.261 28V7L123.967 5.7L122.474 7.2L122.076 6.8L127.451 1.2H127.849L131.234 4.3ZM130.636 31.3C128.944 30.9 127.252 29.8 127.252 27.4V6.2L125.361 4.3L124.266 5.4L125.958 6.9V28.1C125.958 30.5 127.849 32 129.541 32.4L130.636 31.3ZM136.808 15C139.396 13.7 142.979 11.6 145.567 9.6H145.965C147.657 11.3 150.046 14.1 151.937 15.8V16.2L142.78 22.2V26.1C143.676 26.7 146.363 28 148.155 28.7L152.037 25.1L152.435 25.5L144.97 32.8H144.572C141.984 31.7 138.798 30.2 136.708 29.2C136.907 28.3 137.106 26.4 137.106 24.1V15.1H136.808V15ZM145.368 31.5C142.78 30.4 140.69 29.4 138.5 28.3C138.699 27.7 138.699 26.6 138.699 24.2V14.5L137.405 15.1V24C137.405 26.4 137.405 28.1 137.206 28.7C139.097 29.8 141.884 31.1 144.472 32.1C144.472 32.2 145.368 31.5 145.368 31.5ZM142.78 21.6L147.06 18.8C145.567 17.1 144.074 15.4 142.78 14.1V21.6ZM144.074 12.4L142.979 13.3C144.273 14.8 145.965 16.7 147.657 18.7L148.752 17.8C147.06 15.9 145.368 13.9 144.074 12.4ZM182.097 15.9V26.8C182.097 27.7 182.993 28.7 183.789 28.7L185.083 27.4L185.481 27.8L180.803 32.7H180.604C178.912 32.3 176.324 30.8 176.324 27.8V15.4L175.03 14.1L173.537 15.4L173.139 15L178.514 9.6H178.912L182.296 13V15L186.576 9.9H186.974C187.87 10.8 189.065 12 190.359 12.9L186.775 17.2C185.68 16.3 184.386 15.1 183.59 14.4C183.59 14.3 182.097 15.9 182.097 15.9ZM181.699 31.3C180.007 30.9 178.315 29.8 178.315 27.4V14.6L176.622 12.7L175.528 13.8L177.021 15.3V28C177.021 30.4 178.912 31.9 180.604 32.3C180.604 32.2 181.699 31.3 181.699 31.3ZM183.988 13.9C184.585 14.5 185.68 15.6 186.576 16.3L187.472 15.2C186.576 14.6 185.382 13.3 184.685 12.8L183.988 13.9ZM195.933 33L190.856 29.6V22.7C192.15 21.8 194.937 19.9 196.231 19.1C194.141 18 192.349 16.7 191.354 15.2V14.8C194.34 13.1 196.729 11.4 198.421 9.7H198.819C198.819 9.7 205.19 12.7 205.488 12.9C205.886 13.1 206.085 13.1 206.384 13.1C206.782 13.1 207.28 12.9 207.678 12.7V13.3C207.28 13.7 206.583 14.4 206.583 15.2V26.6C206.583 27.9 207.678 28.5 208.474 28.7L209.768 27.4L210.166 27.8L205.488 32.7H205.289C203.398 32.3 201.208 30.3 201.009 28.2L196.53 32.7H196.132V33H195.933ZM197.028 31.3L192.747 28.5V22.1L191.453 23V29.2L196.132 32.2L197.028 31.3ZM200.71 20.1V16.7L194.539 13.5C194.141 13.9 192.449 14.8 191.951 15.2C193.444 16.9 197.227 19.3 200.71 20.1ZM206.185 31.3C204.493 30.7 202.801 29.6 202.801 27.2V15.4L196.43 12.2C196.231 12.4 195.535 12.8 195.335 13.1L201.507 16.3V27.9C201.507 30 203.597 31.8 205.09 32.4L206.185 31.3ZM200.71 27.7V20.8C199.416 20.4 197.923 19.9 196.629 19.3V27.9L199.018 29.4L200.71 27.7ZM154.326 29.4V15L161.991 9.6H162.389C163.882 10.2 168.759 12.4 169.257 12.6C169.456 12.6 169.655 12.8 170.153 12.8C170.551 12.8 171.048 12.6 171.646 12.4V13.3C171.247 13.7 170.551 14.6 170.551 15.2V27.4C170.551 30.2 171.148 31.9 172.243 33V33.4C170.551 35.1 166.669 39.2 164.977 41.1H164.778C163.085 40.2 160.298 39.4 158.109 39.4C156.416 39.4 154.525 39.8 153.231 40.9L152.833 40.7C154.127 37.7 156.914 34.5 160.497 34.5C162.588 34.5 165.574 35.4 168.162 36.9C166.47 35 164.977 31.3 164.977 28.5L160.497 32.8H160.099L154.326 29.4ZM158.009 37.7C156.317 37.7 154.824 38.6 153.928 39.6V39.8C155.023 39.2 156.018 38.9 158.009 38.9C160.099 38.9 163.085 39.5 164.678 40.4L165.574 39.3C163.484 38.6 160.697 37.7 158.009 37.7ZM159.701 32.4L160.796 31.5L156.317 28.3V14.6L155.023 15.5V29.2C154.923 29.2 159.701 32.4 159.701 32.4ZM166.47 14.6L160.099 12V13.3L164.977 15.4V28.3C164.977 31.1 166.271 34.1 168.162 36.5L169.257 35.4C167.565 33.3 166.47 30.9 166.47 28.1V14.6ZM164.578 27.7V15.9L160.298 14V27.5L163.085 29.2L164.578 27.7ZM219.224 15L224.798 9.6H225.197C225.595 10 228.183 12.4 228.581 12.6C228.78 12.8 228.979 12.8 229.178 12.8C229.576 12.8 230.074 12.6 230.472 12.4V13.3C230.074 13.7 229.377 14.6 229.377 15.4V29.1C226.988 29.7 225.097 31 223.007 33.4H222.907L219.324 32.5V35.5L221.215 37.2L216.736 41.1H216.537L212.257 37.5L213.352 36.2V31.1C212.953 31.1 212.058 30.9 211.659 30.7V30C212.058 29.8 213.551 28.5 213.551 27.4V15.6L212.257 14.3L210.764 15.8L210.366 15.4L215.741 10H216.139L219.523 13.4V15H219.224ZM213.949 36.7L213.053 37.6L216.437 40.6L217.532 39.7L214.745 37.3L215.143 36.9V14.6L213.252 12.7L212.356 13.6L213.949 15V36.7ZM223.504 28.3V15.9L221.414 13.8L219.025 15.9V27.3C220.12 27.7 223.106 28.1 223.504 28.3ZM222.907 32.8C223.106 32.4 223.504 31.9 223.803 31.7L219.125 30.8V32.1C219.025 32.2 222.907 32.8 222.907 32.8ZM221.812 13.5L224.201 15.9V28.3L225.495 27.7V15L222.907 12.4L221.812 13.5ZM3.12939 20.4C3.12939 14.8 7.2104 11.2 10.9928 9.5L11.1919 9.9C9.8979 11.4 9.10161 12.9 9.10161 16.3C9.10161 20.2 10.1965 22.7 11.6896 24.5C12.0877 23.9 12.5854 23 12.5854 22.1V16.5L19.4535 11.6L19.6525 12C19.2544 12.6 18.7567 13.5 18.7567 14.8V18.4C18.7567 21 14.6757 23.8 12.0877 24.6C13.7799 26.3 16.1687 27 18.7567 27C19.6525 27 20.4488 27 21.3447 26.8V11.1C18.9558 10.9 16.8655 10.5 14.9743 9.8C12.884 9.2 10.6942 8.5 9.00207 8.5C6.21503 8.5 2.83077 9.4 2.83077 13.4V14.7L2.03448 15C1.63633 13.7 1.43726 12.4 1.43726 11.4C1.43726 6.5 5.02059 2.2 10.7937 2.2C13.1826 2.2 15.472 2.8 17.6618 3.5C19.8516 4.2 21.9419 4.8 24.0322 4.8C25.1271 4.8 25.7243 4.2 25.7243 3.1C25.7243 2 25.3261 1.6 24.4303 1.4V1C27.0183 1.4 29.5067 2.9 29.5067 6.1C29.7058 9.3 26.9187 11.2 22.2405 11.2H21.8424V27C24.8285 26.4 26.9187 25.1 28.5113 22.5L28.9095 22.7C27.2173 28.1 23.1363 33.2 16.0692 33.2C9.00207 33.2 3.12939 28.9 3.12939 20.4ZM22.34 9.2C17.2636 9.2 12.4859 6.6 8.90253 6.6C6.31457 6.6 3.52753 7.7 2.73124 10.5H2.93031C4.02522 8.6 6.51365 7.9 8.90253 7.9C12.7845 7.9 17.2636 10.5 22.34 10.5C26.4211 10.5 29.009 9 29.2081 5.8H29.009C28.5113 8.3 26.4211 9.2 22.34 9.2ZM7.60855 12.4C5.71735 14.3 4.02522 16.9 4.02522 20.3C4.02522 28.5 9.40022 32.5 16.3678 32.5C20.6479 32.5 23.634 30.1 25.3261 28.4L25.1271 28.2C23.2359 29.9 20.4488 31.2 16.1687 31.2C10.5947 31.2 5.3192 27.8 5.3192 20.3C5.3192 17.4 6.31457 14.3 7.60855 12.4ZM14.4766 21.6V15.6L13.1826 16.7V22.3C13.1826 22.9 12.9836 23.4 12.9836 23.8H13.1826C13.7798 23.1 14.4766 22.5 14.4766 21.6ZM79.1757 20.4C79.1757 14.8 83.2567 11.2 87.0391 9.5L87.2382 9.9C85.7451 11.6 84.8493 13.1 84.8493 16.3C84.8493 20.2 85.9442 22.7 87.4373 24.5C87.8354 23.9 88.3331 23 88.3331 22.1V16.5L95.4002 11.4L95.5993 11.8C95.0021 12.7 94.7035 13.5 94.7035 14.8V18.4C94.7035 21 90.6224 23.8 88.0345 24.6C89.7266 26.3 92.1155 27 94.7035 27C95.5993 27 96.3956 27 97.2914 26.8V11.1C94.9025 10.9 92.8123 10.5 90.9211 9.8C88.8308 9.2 86.641 8.5 84.9488 8.5C82.1618 8.5 78.7775 9.4 78.7775 13.4V14.7L78.2799 15C77.8817 13.7 77.6826 12.4 77.6826 11.4C77.6826 6.5 81.266 2.2 87.0391 2.2C89.428 2.2 91.7174 2.8 93.9072 3.5C96.097 4.2 98.1873 4.8 100.278 4.8C101.372 4.8 101.97 4.2 101.97 3.1C101.97 2 101.572 1.6 100.676 1.4V1C103.264 1.4 105.752 2.9 105.752 6.1C105.752 10 102.965 11.7 98.2868 11.7H97.8887V27.6C100.875 27 102.965 25.7 104.558 23.1L104.956 23.3C103.264 28.7 99.1826 33.8 92.1155 33.8C85.1479 33.2 79.1757 28.9 79.1757 20.4ZM98.3863 9.2C93.31 9.2 88.5322 6.6 84.9488 6.6C82.56 6.6 79.8724 7.7 78.7775 10.5H78.9766C80.0715 8.6 82.56 7.9 84.9488 7.9C88.8308 7.9 93.31 10.5 98.3863 10.5C102.467 10.5 105.055 9 105.254 5.8H105.055C104.359 8.3 102.467 9.2 98.3863 9.2ZM83.6549 12.4C81.7636 14.3 80.0715 16.9 80.0715 20.3C80.0715 28.5 85.4465 32.5 92.4141 32.5C96.6942 32.5 99.6803 30.1 101.372 28.4L101.173 28.2C99.2822 29.9 96.4951 31.2 92.215 31.2C86.641 31.2 81.3655 27.8 81.3655 20.3C81.266 17.4 82.3609 14.3 83.6549 12.4ZM90.5229 21.6V15.6L89.2289 16.5V22.1C89.2289 22.7 89.0299 23.2 89.0299 23.6H89.2289C89.8261 23.1 90.5229 22.5 90.5229 21.6Z" fill="#BFCBE2"/>
</g>
<defs>
<clipPath id="clip0_28_11855">
<rect width="250.833" height="42" fill="white" transform="translate(0.939453)"/>
</clipPath>
</defs>
</svg>
