<svg width="94" height="62" viewBox="0 0 94 62" fill="none" xmlns="http://www.w3.org/2000/svg">
<g filter="url(#filter0_d_28_10962)">
<path d="M38.6915 8.18851C36.4875 4.94295 33.2289 2.46149 29.4056 1.1171C25.5823 -0.227283 21.4008 -0.361973 17.4896 0.733289C13.5784 1.82855 10.1488 4.09459 7.71632 7.19081C5.2838 10.287 3.97977 14.0462 4.00024 17.9032C4.00227 21.0972 4.91136 24.2321 6.63254 26.9804C8.35373 29.7287 10.8238 31.9895 13.7848 33.5266C16.7458 35.0637 20.089 35.8207 23.4652 35.7186C26.8413 35.6165 30.1265 34.6589 32.9775 32.946C31.4953 37.1079 28.7345 41.548 24.1859 45.9988C23.3156 46.85 22.8387 47.9933 22.8599 49.1771C22.8704 49.7633 23.0029 50.3418 23.2498 50.8795C23.4968 51.4173 23.8533 51.9037 24.2991 52.3112C24.7448 52.7186 25.2711 53.0391 25.8478 53.2542C26.4246 53.4694 27.0405 53.575 27.6604 53.565C28.9123 53.545 30.1045 53.0555 30.9748 52.2042C47.7886 35.7277 45.6049 17.8176 38.6915 8.20991V8.18851ZM83.9509 8.18851C81.7468 4.94295 78.4882 2.46149 74.6649 1.1171C70.8416 -0.227283 66.6601 -0.361973 62.7489 0.733289C58.8378 1.82855 55.4082 4.09459 52.9757 7.19081C50.5431 10.287 49.2391 14.0462 49.2596 17.9032C49.2616 21.0972 50.1707 24.2321 51.8919 26.9804C53.6131 29.7287 56.0832 31.9895 59.0442 33.5266C62.0052 35.0637 65.3484 35.8207 68.7245 35.7186C72.1006 35.6165 75.3858 34.6589 78.2369 32.946C76.7546 37.1079 73.9938 41.548 69.4452 45.9988C69.0143 46.4203 68.6754 46.9179 68.4479 47.4633C68.2204 48.0086 68.1087 48.591 68.1192 49.1771C68.1297 49.7633 68.2622 50.3418 68.5092 50.8795C68.7561 51.4173 69.1126 51.9037 69.5584 52.3112C70.0042 52.7186 70.5304 53.0391 71.1072 53.2542C71.6839 53.4694 72.2998 53.575 72.9197 53.565C73.5396 53.5551 74.1514 53.4298 74.7201 53.1963C75.2887 52.9628 75.8032 52.6257 76.2341 52.2042C93.048 35.7277 90.8642 17.8176 83.9509 8.20991V8.18851Z" fill="#FF8A4C"/>
</g>
<defs>
<filter id="filter0_d_28_10962" x="0" y="0" width="93.1143" height="61.5657" filterUnits="userSpaceOnUse" color-interpolation-filters="sRGB">
<feFlood flood-opacity="0" result="BackgroundImageFix"/>
<feColorMatrix in="SourceAlpha" type="matrix" values="0 0 0 0 0 0 0 0 0 0 0 0 0 0 0 0 0 0 127 0" result="hardAlpha"/>
<feOffset dy="4"/>
<feGaussianBlur stdDeviation="2"/>
<feComposite in2="hardAlpha" operator="out"/>
<feColorMatrix type="matrix" values="0 0 0 0 0.94902 0 0 0 0 0.6 0 0 0 0 0.290196 0 0 0 0.25 0"/>
<feBlend mode="normal" in2="BackgroundImageFix" result="effect1_dropShadow_28_10962"/>
<feBlend mode="normal" in="SourceGraphic" in2="effect1_dropShadow_28_10962" result="shape"/>
</filter>
</defs>
</svg>
