<svg width="20" height="20" viewBox="0 0 20 20" fill="none" xmlns="http://www.w3.org/2000/svg">
<path d="M10.1397 8.84523L6.44388 3.67383H4.47266L9.05088 10.0794L9.62719 10.8852L13.5459 16.3728H15.5171L10.7136 9.65103L10.1397 8.84523Z" fill="black"/>
<path d="M18.3267 0H1.672C0.748005 0 -0.000976562 0.748982 -0.000976562 1.67297V18.3277C-0.000976562 19.2517 0.748005 20.0006 1.672 20.0006H18.3267C19.2507 20.0006 19.9997 19.2517 19.9997 18.3277V1.67297C19.9997 0.748982 19.2507 0 18.3267 0ZM12.9407 17.2733L8.97459 11.6249L4.00955 17.2733H2.72638L8.40556 10.8143L2.72638 2.72736H7.05802L10.8128 8.07477L15.5173 2.72736H16.8004L11.3848 8.88723L17.2723 17.2733H12.9407Z" fill="black"/>
</svg>
