<svg width="119" height="38" viewBox="0 0 119 16" fill="none" xmlns="http://www.w3.org/2000/svg">
<path d="M8.74 7.8C9.55333 7.97333 10.2067 8.38 10.7 9.02C11.1933 9.64667 11.44 10.3667 11.44 11.18C11.44 12.3533 11.0267 13.2867 10.2 13.98C9.38667 14.66 8.24667 15 6.78 15H0.24V0.96H6.56C7.98667 0.96 9.1 1.28667 9.9 1.94C10.7133 2.59333 11.12 3.48 11.12 4.6C11.12 5.42667 10.9 6.11333 10.46 6.66C10.0333 7.20667 9.46 7.58667 8.74 7.8ZM3.66 6.64H5.9C6.46 6.64 6.88667 6.52 7.18 6.28C7.48667 6.02667 7.64 5.66 7.64 5.18C7.64 4.7 7.48667 4.33333 7.18 4.08C6.88667 3.82667 6.46 3.7 5.9 3.7H3.66V6.64ZM6.18 12.24C6.75333 12.24 7.19333 12.1133 7.5 11.86C7.82 11.5933 7.98 11.2133 7.98 10.72C7.98 10.2267 7.81333 9.84 7.48 9.56C7.16 9.28 6.71333 9.14 6.14 9.14H3.66V12.24H6.18ZM23.9436 9.24C23.9436 9.56 23.9236 9.89333 23.8836 10.24H16.1436C16.1969 10.9333 16.4169 11.4667 16.8036 11.84C17.2036 12.2 17.6903 12.38 18.2636 12.38C19.1169 12.38 19.7103 12.02 20.0436 11.3H23.6836C23.4969 12.0333 23.1569 12.6933 22.6636 13.28C22.1836 13.8667 21.5769 14.3267 20.8436 14.66C20.1103 14.9933 19.2903 15.16 18.3836 15.16C17.2903 15.16 16.3169 14.9267 15.4636 14.46C14.6103 13.9933 13.9436 13.3267 13.4636 12.46C12.9836 11.5933 12.7436 10.58 12.7436 9.42C12.7436 8.26 12.9769 7.24667 13.4436 6.38C13.9236 5.51333 14.5903 4.84667 15.4436 4.38C16.2969 3.91333 17.2769 3.68 18.3836 3.68C19.4636 3.68 20.4236 3.90667 21.2636 4.36C22.1036 4.81333 22.7569 5.46 23.2236 6.3C23.7036 7.14 23.9436 8.12 23.9436 9.24ZM20.4436 8.34C20.4436 7.75333 20.2436 7.28667 19.8436 6.94C19.4436 6.59333 18.9436 6.42 18.3436 6.42C17.7703 6.42 17.2836 6.58667 16.8836 6.92C16.4969 7.25333 16.2569 7.72667 16.1636 8.34H20.4436ZM36.2678 9.24C36.2678 9.56 36.2478 9.89333 36.2078 10.24H28.4678C28.5211 10.9333 28.7411 11.4667 29.1278 11.84C29.5278 12.2 30.0145 12.38 30.5878 12.38C31.4411 12.38 32.0345 12.02 32.3678 11.3H36.0078C35.8211 12.0333 35.4811 12.6933 34.9878 13.28C34.5078 13.8667 33.9011 14.3267 33.1678 14.66C32.4345 14.9933 31.6145 15.16 30.7078 15.16C29.6145 15.16 28.6411 14.9267 27.7878 14.46C26.9345 13.9933 26.2678 13.3267 25.7878 12.46C25.3078 11.5933 25.0678 10.58 25.0678 9.42C25.0678 8.26 25.3011 7.24667 25.7678 6.38C26.2478 5.51333 26.9145 4.84667 27.7678 4.38C28.6211 3.91333 29.6011 3.68 30.7078 3.68C31.7878 3.68 32.7478 3.90667 33.5878 4.36C34.4278 4.81333 35.0811 5.46 35.5478 6.3C36.0278 7.14 36.2678 8.12 36.2678 9.24ZM32.7678 8.34C32.7678 7.75333 32.5678 7.28667 32.1678 6.94C31.7678 6.59333 31.2678 6.42 30.6678 6.42C30.0945 6.42 29.6078 6.58667 29.2078 6.92C28.8211 7.25333 28.5811 7.72667 28.4878 8.34H32.7678ZM48.9503 15.14C47.6303 15.14 46.417 14.8333 45.3103 14.22C44.217 13.6067 43.3436 12.7533 42.6903 11.66C42.0503 10.5533 41.7303 9.31333 41.7303 7.94C41.7303 6.56667 42.0503 5.33333 42.6903 4.24C43.3436 3.14667 44.217 2.29333 45.3103 1.68C46.417 1.06667 47.6303 0.76 48.9503 0.76C50.2703 0.76 51.477 1.06667 52.5703 1.68C53.677 2.29333 54.5436 3.14667 55.1703 4.24C55.8103 5.33333 56.1303 6.56667 56.1303 7.94C56.1303 9.31333 55.8103 10.5533 55.1703 11.66C54.5303 12.7533 53.6636 13.6067 52.5703 14.22C51.477 14.8333 50.2703 15.14 48.9503 15.14ZM48.9503 12.02C50.0703 12.02 50.9636 11.6467 51.6303 10.9C52.3103 10.1533 52.6503 9.16667 52.6503 7.94C52.6503 6.7 52.3103 5.71333 51.6303 4.98C50.9636 4.23333 50.0703 3.86 48.9503 3.86C47.817 3.86 46.9103 4.22667 46.2303 4.96C45.5636 5.69333 45.2303 6.68667 45.2303 7.94C45.2303 9.18 45.5636 10.1733 46.2303 10.92C46.9103 11.6533 47.817 12.02 48.9503 12.02ZM63.642 9.42C63.642 8.26 63.8754 7.24667 64.342 6.38C64.822 5.51333 65.482 4.84667 66.322 4.38C67.1754 3.91333 68.1487 3.68 69.242 3.68C70.642 3.68 71.8087 4.04667 72.742 4.78C73.6887 5.51333 74.3087 6.54667 74.602 7.88H70.962C70.6554 7.02667 70.062 6.6 69.182 6.6C68.5554 6.6 68.0554 6.84667 67.682 7.34C67.3087 7.82 67.122 8.51333 67.122 9.42C67.122 10.3267 67.3087 11.0267 67.682 11.52C68.0554 12 68.5554 12.24 69.182 12.24C70.062 12.24 70.6554 11.8133 70.962 10.96H74.602C74.3087 12.2667 73.6887 13.2933 72.742 14.04C71.7954 14.7867 70.6287 15.16 69.242 15.16C68.1487 15.16 67.1754 14.9267 66.322 14.46C65.482 13.9933 64.822 13.3267 64.342 12.46C63.8754 11.5933 63.642 10.58 63.642 9.42ZM79.8514 0.2V15H76.4314V0.2H79.8514ZM87.4098 15.16C86.3165 15.16 85.3298 14.9267 84.4498 14.46C83.5832 13.9933 82.8965 13.3267 82.3898 12.46C81.8965 11.5933 81.6498 10.58 81.6498 9.42C81.6498 8.27333 81.9032 7.26667 82.4098 6.4C82.9165 5.52 83.6098 4.84667 84.4898 4.38C85.3698 3.91333 86.3565 3.68 87.4498 3.68C88.5432 3.68 89.5298 3.91333 90.4098 4.38C91.2898 4.84667 91.9832 5.52 92.4898 6.4C92.9965 7.26667 93.2498 8.27333 93.2498 9.42C93.2498 10.5667 92.9898 11.58 92.4698 12.46C91.9632 13.3267 91.2632 13.9933 90.3698 14.46C89.4898 14.9267 88.5032 15.16 87.4098 15.16ZM87.4098 12.2C88.0632 12.2 88.6165 11.96 89.0698 11.48C89.5365 11 89.7698 10.3133 89.7698 9.42C89.7698 8.52667 89.5432 7.84 89.0898 7.36C88.6498 6.88 88.1032 6.64 87.4498 6.64C86.7832 6.64 86.2298 6.88 85.7898 7.36C85.3498 7.82667 85.1298 8.51333 85.1298 9.42C85.1298 10.3133 85.3432 11 85.7698 11.48C86.2098 11.96 86.7565 12.2 87.4098 12.2ZM94.3842 9.42C94.3842 8.26 94.6176 7.24667 95.0842 6.38C95.5642 5.51333 96.2242 4.84667 97.0642 4.38C97.9176 3.91333 98.8909 3.68 99.9842 3.68C101.384 3.68 102.551 4.04667 103.484 4.78C104.431 5.51333 105.051 6.54667 105.344 7.88H101.704C101.398 7.02667 100.804 6.6 99.9242 6.6C99.2976 6.6 98.7976 6.84667 98.4242 7.34C98.0509 7.82 97.8642 8.51333 97.8642 9.42C97.8642 10.3267 98.0509 11.0267 98.4242 11.52C98.7976 12 99.2976 12.24 99.9242 12.24C100.804 12.24 101.398 11.8133 101.704 10.96H105.344C105.051 12.2667 104.431 13.2933 103.484 14.04C102.538 14.7867 101.371 15.16 99.9842 15.16C98.8909 15.16 97.9176 14.9267 97.0642 14.46C96.2242 13.9933 95.5642 13.3267 95.0842 12.46C94.6176 11.5933 94.3842 10.58 94.3842 9.42ZM113.994 15L110.594 10.32V15H107.174V0.2H110.594V8.38L113.974 3.84H118.194L113.554 9.44L118.234 15H113.994Z" fill="black"/>
<path d="M58.813 0.96H62.313L60.073 6.32H57.773L58.813 0.96Z" fill="#FFB60A"/>
</svg>
