<svg width="38" height="38" viewBox="0 0 38 38" fill="none" xmlns="http://www.w3.org/2000/svg">
<g clip-path="url(#clip0_244_157)">
<path d="M26.8515 7.98964L21.3519 13.4837C21.2775 13.5593 21.1852 13.615 21.0836 13.6455C20.982 13.676 20.8744 13.6804 20.7707 13.6583C20.3338 13.5737 19.8896 13.5322 19.4447 13.5345C17.8411 13.5316 16.2856 14.0823 15.0412 15.0937C14.9949 15.1324 14.9385 15.1571 14.8786 15.1648C14.8187 15.1726 14.7578 15.1631 14.7032 15.1374C14.6485 15.1118 14.6023 15.0711 14.57 15.0201C14.5377 14.969 14.5206 14.9099 14.5208 14.8495V6.43822C14.52 6.30146 14.5631 6.16807 14.6436 6.05752C14.7241 5.94698 14.8379 5.8651 14.9683 5.82384C18.8726 4.63933 23.0873 5.05059 26.689 6.96751C26.7786 7.01367 26.8561 7.08026 26.9151 7.1619C26.9742 7.24354 27.0132 7.33794 27.029 7.43745C27.0449 7.53697 27.037 7.63881 27.0062 7.73474C26.9753 7.83067 26.9223 7.91799 26.8515 7.98964Z" fill="#FFB60A"/>
<path d="M34.7181 22.4217C33.8937 29.3512 28.3455 34.9414 21.4194 35.8022C17.7572 36.2745 14.0474 35.4131 10.9681 33.3754C7.88882 31.3378 5.64567 28.26 4.64873 24.7047C4.26423 23.351 4.07046 21.9504 4.07302 20.5432V0.37582C4.07302 0.206135 4.14043 0.0434004 4.26042 -0.0765847C4.3804 -0.19657 4.54314 -0.263977 4.71282 -0.263977H4.93382C6.85844 -0.264084 8.70973 0.474328 10.1059 1.799C11.5022 3.12366 12.3368 4.93359 12.4379 6.85555V6.86771C12.4434 6.99147 12.4489 7.12186 12.4489 7.25114V20.5432C12.4494 21.4815 12.6383 22.4101 13.0044 23.2739C13.3705 24.1378 13.9065 24.9193 14.5804 25.5721C15.2543 26.2249 16.0525 26.7356 16.9276 27.0741C17.8026 27.4125 18.7368 27.5718 19.6746 27.5423C23.2382 27.4318 26.2272 24.54 26.4449 20.9808C26.511 19.943 26.3441 18.9036 25.9565 17.9387C25.9065 17.8209 25.8924 17.6909 25.916 17.5651C25.9396 17.4393 25.9998 17.3232 26.0891 17.2315L31.3191 11.996C31.3873 11.9287 31.4697 11.8774 31.5603 11.846C31.6509 11.8146 31.7474 11.8038 31.8426 11.8144C31.9379 11.8249 32.0297 11.8567 32.1111 11.9072C32.1926 11.9578 32.2618 12.0259 32.3136 12.1065C34.311 15.1518 35.163 18.8071 34.7181 22.4217Z" fill="black"/>
<path d="M23.3222 21.0463H19.0514C18.9249 21.046 18.8013 21.0084 18.6962 20.938C18.5911 20.8676 18.5092 20.7677 18.4607 20.6509C18.4123 20.534 18.3995 20.4054 18.424 20.2813C18.4485 20.1572 18.5091 20.0432 18.5983 19.9535L27.287 11.2681C27.3464 11.2087 27.417 11.1616 27.4946 11.1294C27.5722 11.0973 27.6554 11.0807 27.7395 11.0807C27.8235 11.0807 27.9067 11.0973 27.9844 11.1294C28.062 11.1616 28.1326 11.2087 28.192 11.2681C28.2514 11.3276 28.2985 11.3981 28.3307 11.4758C28.3629 11.5534 28.3794 11.6366 28.3794 11.7206C28.3794 11.8047 28.3629 11.8879 28.3307 11.9655C28.2985 12.0432 28.2514 12.1137 28.192 12.1731L20.5995 19.7656H23.3244C23.4108 19.762 23.4969 19.7759 23.5778 19.8065C23.6586 19.8371 23.7324 19.8837 23.7947 19.9435C23.8571 20.0033 23.9067 20.0751 23.9406 20.1546C23.9745 20.2341 23.992 20.3196 23.992 20.406C23.992 20.4924 23.9745 20.5779 23.9406 20.6574C23.9067 20.7368 23.8571 20.8086 23.7947 20.8685C23.7324 20.9283 23.6586 20.9749 23.5778 21.0054C23.4969 21.036 23.4108 21.0499 23.3244 21.0463H23.3222Z" fill="black"/>
</g>
<defs>
<clipPath id="clip0_244_157">
<rect width="38" height="38" fill="white"/>
</clipPath>
</defs>
</svg>
