<svg width="172" height="46" viewBox="0 0 172 46" fill="none" xmlns="http://www.w3.org/2000/svg">
<g clip-path="url(#clip0_199_626)">
<path d="M26.8517 11.9896L21.3521 17.4837C21.2777 17.5593 21.1855 17.615 21.0839 17.6455C20.9823 17.676 20.8746 17.6804 20.7709 17.6583C20.334 17.5737 19.8899 17.5322 19.4449 17.5345C17.8413 17.5316 16.2859 18.0823 15.0415 19.0937C14.9951 19.1324 14.9387 19.1571 14.8788 19.1648C14.8189 19.1726 14.7581 19.1631 14.7034 19.1374C14.6488 19.1118 14.6026 19.0711 14.5702 19.0201C14.5379 18.969 14.5208 18.9099 14.521 18.8495V10.4382C14.5203 10.3015 14.5633 10.1681 14.6439 10.0575C14.7244 9.94698 14.8381 9.8651 14.9685 9.82384C18.8729 8.63933 23.0876 9.05059 26.6893 10.9675C26.7789 11.0137 26.8563 11.0803 26.9154 11.1619C26.9744 11.2435 27.0135 11.3379 27.0293 11.4375C27.0451 11.537 27.0373 11.6388 27.0064 11.7347C26.9756 11.8307 26.9226 11.918 26.8517 11.9896Z" fill="#FFB60A"/>
<path d="M34.7183 26.4217C33.894 33.3512 28.3458 38.9414 21.4196 39.8022C17.7575 40.2745 14.0477 39.4131 10.9684 37.3754C7.88906 35.3378 5.64592 32.26 4.64897 28.7047C4.26447 27.351 4.0707 25.9504 4.07327 24.5432V4.37582C4.07327 4.20613 4.14067 4.0434 4.26066 3.92342C4.38064 3.80343 4.54338 3.73602 4.71306 3.73602H4.93407C6.85869 3.73592 8.70997 4.47433 10.1062 5.799C11.5024 7.12366 12.3371 8.93359 12.4381 10.8556V10.8677C12.4437 10.9915 12.4492 11.1219 12.4492 11.2511V24.5432C12.4496 25.4815 12.6385 26.4101 13.0046 27.2739C13.3708 28.1378 13.9067 28.9193 14.5806 29.5721C15.2545 30.2249 16.0527 30.7356 16.9278 31.0741C17.8029 31.4125 18.737 31.5718 19.6748 31.5423C23.2384 31.4318 26.2275 28.54 26.4452 24.9808C26.5112 23.943 26.3443 22.9036 25.9567 21.9387C25.9067 21.8209 25.8926 21.6909 25.9162 21.5651C25.9398 21.4393 26 21.3232 26.0893 21.2315L31.3193 15.996C31.3876 15.9287 31.47 15.8774 31.5606 15.846C31.6511 15.8146 31.7476 15.8038 31.8429 15.8144C31.9382 15.8249 32.0299 15.8567 32.1114 15.9072C32.1928 15.9578 32.262 16.0259 32.3138 16.1065C34.3112 19.1518 35.1632 22.8071 34.7183 26.4217Z" fill="black"/>
<path d="M23.3225 25.0463H19.0516C18.9251 25.046 18.8016 25.0084 18.6965 24.938C18.5913 24.8676 18.5094 24.7677 18.461 24.6509C18.4125 24.534 18.3997 24.4054 18.4242 24.2813C18.4487 24.1572 18.5094 24.0432 18.5986 23.9535L27.2872 15.2681C27.3466 15.2087 27.4172 15.1616 27.4948 15.1294C27.5725 15.0973 27.6557 15.0807 27.7397 15.0807C27.8238 15.0807 27.907 15.0973 27.9846 15.1294C28.0623 15.1616 28.1328 15.2087 28.1922 15.2681C28.2516 15.3276 28.2988 15.3981 28.3309 15.4758C28.3631 15.5534 28.3797 15.6366 28.3797 15.7206C28.3797 15.8047 28.3631 15.8879 28.3309 15.9655C28.2988 16.0432 28.2516 16.1137 28.1922 16.1731L20.5998 23.7656H23.3247C23.411 23.762 23.4972 23.7759 23.578 23.8065C23.6588 23.8371 23.7326 23.8837 23.795 23.9435C23.8573 24.0033 23.9069 24.0751 23.9408 24.1546C23.9747 24.2341 23.9922 24.3196 23.9922 24.406C23.9922 24.4924 23.9747 24.5779 23.9408 24.6574C23.9069 24.7368 23.8573 24.8086 23.795 24.8685C23.7326 24.9283 23.6588 24.9749 23.578 25.0054C23.4972 25.036 23.411 25.0499 23.3247 25.0463H23.3225Z" fill="black"/>
</g>
<path d="M61.74 22.8C62.5533 22.9733 63.2067 23.38 63.7 24.02C64.1933 24.6467 64.44 25.3667 64.44 26.18C64.44 27.3533 64.0267 28.2867 63.2 28.98C62.3867 29.66 61.2467 30 59.78 30H53.24V15.96H59.56C60.9867 15.96 62.1 16.2867 62.9 16.94C63.7133 17.5933 64.12 18.48 64.12 19.6C64.12 20.4267 63.9 21.1133 63.46 21.66C63.0333 22.2067 62.46 22.5867 61.74 22.8ZM56.66 21.64H58.9C59.46 21.64 59.8867 21.52 60.18 21.28C60.4867 21.0267 60.64 20.66 60.64 20.18C60.64 19.7 60.4867 19.3333 60.18 19.08C59.8867 18.8267 59.46 18.7 58.9 18.7H56.66V21.64ZM59.18 27.24C59.7533 27.24 60.1933 27.1133 60.5 26.86C60.82 26.5933 60.98 26.2133 60.98 25.72C60.98 25.2267 60.8133 24.84 60.48 24.56C60.16 24.28 59.7133 24.14 59.14 24.14H56.66V27.24H59.18ZM76.9436 24.24C76.9436 24.56 76.9236 24.8933 76.8836 25.24H69.1436C69.1969 25.9333 69.4169 26.4667 69.8036 26.84C70.2036 27.2 70.6903 27.38 71.2636 27.38C72.1169 27.38 72.7103 27.02 73.0436 26.3H76.6836C76.4969 27.0333 76.1569 27.6933 75.6636 28.28C75.1836 28.8667 74.5769 29.3267 73.8436 29.66C73.1103 29.9933 72.2903 30.16 71.3836 30.16C70.2903 30.16 69.3169 29.9267 68.4636 29.46C67.6103 28.9933 66.9436 28.3267 66.4636 27.46C65.9836 26.5933 65.7436 25.58 65.7436 24.42C65.7436 23.26 65.9769 22.2467 66.4436 21.38C66.9236 20.5133 67.5903 19.8467 68.4436 19.38C69.2969 18.9133 70.2769 18.68 71.3836 18.68C72.4636 18.68 73.4236 18.9067 74.2636 19.36C75.1036 19.8133 75.7569 20.46 76.2236 21.3C76.7036 22.14 76.9436 23.12 76.9436 24.24ZM73.4436 23.34C73.4436 22.7533 73.2436 22.2867 72.8436 21.94C72.4436 21.5933 71.9436 21.42 71.3436 21.42C70.7703 21.42 70.2836 21.5867 69.8836 21.92C69.4969 22.2533 69.2569 22.7267 69.1636 23.34H73.4436ZM89.2678 24.24C89.2678 24.56 89.2478 24.8933 89.2078 25.24H81.4678C81.5211 25.9333 81.7411 26.4667 82.1278 26.84C82.5278 27.2 83.0145 27.38 83.5878 27.38C84.4411 27.38 85.0345 27.02 85.3678 26.3H89.0078C88.8211 27.0333 88.4811 27.6933 87.9878 28.28C87.5078 28.8667 86.9011 29.3267 86.1678 29.66C85.4345 29.9933 84.6145 30.16 83.7078 30.16C82.6145 30.16 81.6411 29.9267 80.7878 29.46C79.9345 28.9933 79.2678 28.3267 78.7878 27.46C78.3078 26.5933 78.0678 25.58 78.0678 24.42C78.0678 23.26 78.3011 22.2467 78.7678 21.38C79.2478 20.5133 79.9145 19.8467 80.7678 19.38C81.6211 18.9133 82.6011 18.68 83.7078 18.68C84.7878 18.68 85.7478 18.9067 86.5878 19.36C87.4278 19.8133 88.0811 20.46 88.5478 21.3C89.0278 22.14 89.2678 23.12 89.2678 24.24ZM85.7678 23.34C85.7678 22.7533 85.5678 22.2867 85.1678 21.94C84.7678 21.5933 84.2678 21.42 83.6678 21.42C83.0945 21.42 82.6078 21.5867 82.2078 21.92C81.8211 22.2533 81.5811 22.7267 81.4878 23.34H85.7678ZM101.95 30.14C100.63 30.14 99.417 29.8333 98.3103 29.22C97.217 28.6067 96.3436 27.7533 95.6903 26.66C95.0503 25.5533 94.7303 24.3133 94.7303 22.94C94.7303 21.5667 95.0503 20.3333 95.6903 19.24C96.3436 18.1467 97.217 17.2933 98.3103 16.68C99.417 16.0667 100.63 15.76 101.95 15.76C103.27 15.76 104.477 16.0667 105.57 16.68C106.677 17.2933 107.544 18.1467 108.17 19.24C108.81 20.3333 109.13 21.5667 109.13 22.94C109.13 24.3133 108.81 25.5533 108.17 26.66C107.53 27.7533 106.664 28.6067 105.57 29.22C104.477 29.8333 103.27 30.14 101.95 30.14ZM101.95 27.02C103.07 27.02 103.964 26.6467 104.63 25.9C105.31 25.1533 105.65 24.1667 105.65 22.94C105.65 21.7 105.31 20.7133 104.63 19.98C103.964 19.2333 103.07 18.86 101.95 18.86C100.817 18.86 99.9103 19.2267 99.2303 19.96C98.5636 20.6933 98.2303 21.6867 98.2303 22.94C98.2303 24.18 98.5636 25.1733 99.2303 25.92C99.9103 26.6533 100.817 27.02 101.95 27.02ZM116.642 24.42C116.642 23.26 116.875 22.2467 117.342 21.38C117.822 20.5133 118.482 19.8467 119.322 19.38C120.175 18.9133 121.149 18.68 122.242 18.68C123.642 18.68 124.809 19.0467 125.742 19.78C126.689 20.5133 127.309 21.5467 127.602 22.88H123.962C123.655 22.0267 123.062 21.6 122.182 21.6C121.555 21.6 121.055 21.8467 120.682 22.34C120.309 22.82 120.122 23.5133 120.122 24.42C120.122 25.3267 120.309 26.0267 120.682 26.52C121.055 27 121.555 27.24 122.182 27.24C123.062 27.24 123.655 26.8133 123.962 25.96H127.602C127.309 27.2667 126.689 28.2933 125.742 29.04C124.795 29.7867 123.629 30.16 122.242 30.16C121.149 30.16 120.175 29.9267 119.322 29.46C118.482 28.9933 117.822 28.3267 117.342 27.46C116.875 26.5933 116.642 25.58 116.642 24.42ZM132.851 15.2V30H129.431V15.2H132.851ZM140.41 30.16C139.317 30.16 138.33 29.9267 137.45 29.46C136.583 28.9933 135.897 28.3267 135.39 27.46C134.897 26.5933 134.65 25.58 134.65 24.42C134.65 23.2733 134.903 22.2667 135.41 21.4C135.917 20.52 136.61 19.8467 137.49 19.38C138.37 18.9133 139.357 18.68 140.45 18.68C141.543 18.68 142.53 18.9133 143.41 19.38C144.29 19.8467 144.983 20.52 145.49 21.4C145.997 22.2667 146.25 23.2733 146.25 24.42C146.25 25.5667 145.99 26.58 145.47 27.46C144.963 28.3267 144.263 28.9933 143.37 29.46C142.49 29.9267 141.503 30.16 140.41 30.16ZM140.41 27.2C141.063 27.2 141.617 26.96 142.07 26.48C142.537 26 142.77 25.3133 142.77 24.42C142.77 23.5267 142.543 22.84 142.09 22.36C141.65 21.88 141.103 21.64 140.45 21.64C139.783 21.64 139.23 21.88 138.79 22.36C138.35 22.8267 138.13 23.5133 138.13 24.42C138.13 25.3133 138.343 26 138.77 26.48C139.21 26.96 139.757 27.2 140.41 27.2ZM147.384 24.42C147.384 23.26 147.618 22.2467 148.084 21.38C148.564 20.5133 149.224 19.8467 150.064 19.38C150.918 18.9133 151.891 18.68 152.984 18.68C154.384 18.68 155.551 19.0467 156.484 19.78C157.431 20.5133 158.051 21.5467 158.344 22.88H154.704C154.398 22.0267 153.804 21.6 152.924 21.6C152.298 21.6 151.798 21.8467 151.424 22.34C151.051 22.82 150.864 23.5133 150.864 24.42C150.864 25.3267 151.051 26.0267 151.424 26.52C151.798 27 152.298 27.24 152.924 27.24C153.804 27.24 154.398 26.8133 154.704 25.96H158.344C158.051 27.2667 157.431 28.2933 156.484 29.04C155.538 29.7867 154.371 30.16 152.984 30.16C151.891 30.16 150.918 29.9267 150.064 29.46C149.224 28.9933 148.564 28.3267 148.084 27.46C147.618 26.5933 147.384 25.58 147.384 24.42ZM166.994 30L163.594 25.32V30H160.174V15.2H163.594V23.38L166.974 18.84H171.194L166.554 24.44L171.234 30H166.994Z" fill="black"/>
<path d="M111.813 15.96H115.313L113.073 21.32H110.773L111.813 15.96Z" fill="#FFB60A"/>
<defs>
<clipPath id="clip0_199_626">
<rect width="38" height="38" fill="white" transform="translate(0 4)"/>
</clipPath>
</defs>
</svg>
